<svg width="408" height="235" viewBox="0 0 408 235" fill="none" xmlns="http://www.w3.org/2000/svg">
<g clip-path="url(#clip0_59_2)">
<path d="M61.8942 138.277C69.8018 138.277 76.2121 131.867 76.2121 123.959C76.2121 116.051 69.8018 109.641 61.8942 109.641C53.9866 109.641 47.5762 116.051 47.5762 123.959C47.5762 131.867 53.9866 138.277 61.8942 138.277Z" fill="#010002"/>
<path d="M89.2406 92.5175L93.625 85.9707L85.9133 82.7795L36.801 99.5574L40.1254 109.295L89.2406 92.5175Z" fill="#010002"/>
<path d="M140.121 89.723L138.594 82L130.877 85.194L108.019 131.781L117.261 136.319L140.121 89.723Z" fill="#010002"/>
<path d="M129.814 217.678C113.175 206.486 96.5837 195.098 79.5252 184.55C79.6669 183.127 79.5904 181.656 79.2418 180.188C79.2106 180.083 77.0142 170.657 75.6396 158.524C84.7513 158.093 93.8488 157.365 102.969 156.883C109.873 156.517 112.557 149.732 110.958 144.742L113.022 140.55L116.366 142.197L117.944 138.98L105.758 133L104.176 136.217L107.132 137.665L106.075 139.816C105.188 139.555 104.199 139.433 103.091 139.49C89.8782 140.19 76.6882 141.42 63.4302 141.491C62.5517 141.389 61.6504 141.375 60.7378 141.454C60.1937 141.502 59.6609 141.59 59.1422 141.701C52.5699 140.079 46.0004 138.456 39.431 136.834C36.5487 128.037 33.6664 119.237 30.7812 110.437L34.134 109.292L35.3413 112.821L38.7253 111.665L34.3324 98.8204L30.9541 99.9796L32.0084 103.089L27.6779 104.568C21.9303 99.3618 10.3813 103.933 13.3316 112.946C16.8516 123.676 20.3687 134.411 23.8887 145.147C26.1276 151.994 31.1865 152.708 37.2572 154.21C41.0918 155.157 44.9235 156.101 48.7609 157.047C49.9484 169.824 52.1165 180.604 52.995 184.635C45.7624 186.057 38.5297 187.48 31.2999 188.908C26.8702 189.781 23.696 195.28 25.1555 199.548C28.4714 209.277 31.5748 219.08 34.681 228.878C38.0621 239.531 54.8712 235.076 51.4759 224.372C49.3107 217.547 47.1171 210.725 44.8781 203.909C52.2298 202.464 59.5787 201.016 66.9247 199.573C67.8656 199.395 68.6819 199.091 69.4017 198.712C86.9704 209.504 104.012 221.234 121.124 232.741C130.44 239.001 139.078 223.901 129.814 217.678Z" fill="#010002"/>
</g>
<path d="M238.219 115.285C232.221 112.487 229.625 105.357 232.422 99.3585C235.219 93.3599 242.35 90.7646 248.348 93.5617C254.347 96.3588 256.942 103.489 254.145 109.488C251.348 115.486 244.218 118.082 238.219 115.285Z" fill="black"/>
<path d="M274.75 143.813H253.625L248.141 128.984C246.313 124.313 242.656 120.25 237.375 118.422L235.344 117.406C230.672 115.172 225.391 115.375 221.125 117.203L201.016 124.516C199.594 124.922 198.375 125.938 197.766 127.359L187.203 149.703C185.984 152.344 187 155.391 189.844 156.812C192.484 158.031 195.531 157.016 196.953 154.172L206.5 133.656L218.281 129.391L190.859 188.094H165.469C161.203 188.094 157.953 191.344 157.953 195.609C157.953 199.875 161.203 203.125 165.469 203.125H195.531C198.578 203.125 201.016 201.297 202.234 198.656L211.781 178.141L230.672 229.734C232.094 233.594 236.359 235.625 240.219 234.203C244.078 232.781 246.109 228.516 244.687 224.656L225.188 170.828L240.219 138.531L244.687 150.719C245.5 152.75 247.328 154.172 249.562 154.172H274.75C277.594 154.172 280.031 151.734 280.031 148.891C280.031 146.25 277.594 143.813 274.75 143.813Z" fill="black"/>
<path d="M350.163 124.312C344.466 120.323 343.081 112.469 347.07 106.772C351.06 101.074 358.913 99.689 364.611 103.679C370.309 107.668 371.693 115.521 367.704 121.219C363.714 126.917 355.861 128.302 350.163 124.312Z" fill="black"/>
<path d="M394.797 127.766C392.359 125.937 388.703 126.75 387.078 129.187L375.297 146.047L354.984 131.828L346.859 125.937C343.609 123.5 339.75 122.484 335.891 122.484H310.297C308.469 122.281 306.437 123.094 305.422 124.922L290.594 146.047C288.766 148.484 289.578 152.141 292.016 153.766C294.453 155.391 298.109 154.781 299.734 152.344L312.937 133.453H328.375L288.562 190.328L263.578 183.625C259.312 182.609 255.047 185.047 254.031 189.109C253.016 193.375 255.453 197.641 259.516 198.656L289.984 206.781C291.812 207.187 294.047 207.187 296.078 205.969C297.5 205.156 298.516 203.531 299.328 202.516C300.141 201.5 313.141 182.812 313.141 182.812L337.719 200.281L342.594 228.312C343.406 232.578 347.469 235.422 351.734 234.812C356 234 358.844 229.937 358.234 225.672L352.75 194.594C352.344 192.562 351.125 190.734 349.5 189.516L330 175.906L352.344 143.203L373.672 158.031C376.109 159.859 379.766 159.047 381.391 156.609L396.219 135.281C398.047 132.844 397.437 129.391 394.797 127.766Z" fill="black"/>
<defs>
<clipPath id="clip0_59_2">
<rect width="152.977" height="152.977" fill="white" transform="translate(0 82)"/>
</clipPath>
</defs>
</svg>
