<svg width="154" height="154" viewBox="0 0 154 154" fill="none" xmlns="http://www.w3.org/2000/svg">
<path d="M52.3372 42.1377C54.8878 48.3295 61.9748 51.2814 68.1673 48.7308C71.9884 47.1565 74.5697 43.8533 75.3914 40.1002L85.242 42.9016L86.5949 38.9265L76.4971 32.18L77.4759 23.9536C77.6593 22.4094 76.6944 20.9609 75.1989 20.5356L62.3405 16.8787C60.8451 16.4534 59.2617 17.1776 58.6054 18.5871L55.1958 25.9111L43.3847 26.6378L42.0318 30.6123L52.1284 33.4842C51.1677 36.2008 51.1533 39.2634 52.3372 42.1377ZM76.7083 79.0838H62.1053L54.5305 51.7284C53.435 46.8972 49.1212 43.2163 44.0597 43.2163H17.331C15.4872 43.2163 13.6441 44.1956 12.6094 45.8084L2.01104 64.3353C0.398851 66.9214 1.43294 70.1699 3.97033 71.758C6.28213 73.1999 9.70803 72.3181 11.387 69.9142L20.4345 54.2044H34.4527L17.1975 83.9601C15.1847 87.4317 14.994 91.6673 16.6874 95.3056L25.3258 113.867L17.7082 143.017C16.6434 147.228 19.1502 151.45 23.251 152.551C27.4613 153.616 31.6777 151.11 32.7852 147.009L40.8467 115.108C41.2786 113.472 41.2239 111.531 40.36 109.888L39.6237 108.331L49.973 114.293L39.7633 142.111C38.2786 146.145 40.1892 150.75 44.1986 152.278C48.2688 153.829 52.7534 151.785 54.2561 147.708L66.735 113.606C68.2804 109.389 66.5587 104.686 62.6648 102.459L40.6091 89.871L49.2367 74.8001L52.3853 85.9242C53.0975 88.3605 55.3317 90.0353 57.8697 90.0353H76.7071C79.754 90.1454 82.0381 87.8396 82.1524 84.8522C82.2571 82.1247 79.6276 79.3509 76.7083 79.0838ZM114.42 36.264C124.54 32.4218 130.023 21.8 127.736 11.5482C127.707 12.0752 127.471 12.5089 127.253 12.9926C125.885 16.0341 122.228 17.4225 119.186 16.0545C118.703 15.8368 118.25 15.5504 117.866 15.2947C114.531 12.5486 109.81 11.5891 105.602 13.1869C99.2891 15.5835 95.9685 22.6904 98.4222 29.1535C100.876 35.6161 107.958 38.7172 114.42 36.264ZM152.762 122.904C152.762 122.904 150.328 83.9511 134.813 69.9569C134.711 69.8649 134.61 69.7795 134.509 69.6904V41.8008L147.391 36.178C150.677 34.7427 152.438 31.0527 151.487 27.5943L145.275 5.00442C144.518 2.25046 141.672 0.63226 138.917 1.38903C136.163 2.14639 134.544 4.99299 135.302 7.74694L140.807 27.7651L129.382 32.7521L106.418 42.9498C101.935 44.9409 98.8626 49.2108 98.4018 54.0937L97.2606 66.1623L83.8422 58.4725C81.3637 57.0522 78.2037 57.9094 76.7835 60.3879C75.3632 62.8663 76.221 66.0263 78.6988 67.4466L96.7535 77.7935C97.8195 78.4047 99.001 78.7115 100.184 78.7115C101.27 78.7115 102.357 78.4534 103.357 77.9354C105.45 76.852 106.831 74.8049 107.055 72.4576L108.136 61.0237L113.518 73.6084C113.518 73.6084 114.681 81.8606 99.8281 92.4698C82.7919 104.638 88.5723 129.888 88.5723 129.888C88.5723 129.888 93.6495 128.119 101.045 127.107V146.011C101.05 149.677 104.155 152.656 107.738 152.704C111.403 152.699 114.378 149.597 114.431 146.011V126.524C116.924 126.666 119.479 126.965 122.044 127.476L121.889 127.547L126.947 147.605C127.848 151.158 131.586 153.288 135.072 152.459C138.625 151.558 140.751 147.822 139.926 144.333L136.205 129.576C150.969 130.053 152.762 122.904 152.762 122.904Z" fill="black"/>
</svg>
