<svg width="135" height="135" viewBox="0 0 135 135" fill="none" xmlns="http://www.w3.org/2000/svg">
<g clip-path="url(#clip0_22_417)">
<path d="M96.2611 81.8482C103.408 81.8482 109.201 76.0547 109.201 68.9082C109.201 61.7616 103.408 55.9682 96.2611 55.9682C89.1146 55.9682 83.3212 61.7616 83.3212 68.9082C83.3212 76.0547 89.1146 81.8482 96.2611 81.8482Z" fill="black"/>
<path d="M129.888 70.0675C126.987 68.9944 123.77 70.4701 122.692 73.3661L115.448 92.8691L66.5388 77.5173L74.2091 61.6643C75.5553 58.881 74.3912 55.5346 71.6077 54.1882C68.8289 52.842 65.4777 54.0061 64.1316 56.7871L53.6372 78.475C52.928 79.9384 52.8922 81.6395 53.5367 83.1343C54.1835 84.6265 55.4458 85.7665 56.9981 86.2527L64.9963 88.763L45.8019 99.696L33.4538 103.327C33.4418 103.332 33.4297 103.334 33.4177 103.337L33.0154 103.456L15.4284 81.5436C12.5277 77.9267 7.24091 77.3518 3.62647 80.25C0.0095269 83.1533 -0.567871 88.4373 2.3329 92.0543L23.4411 118.354C25.0603 120.371 27.4847 121.492 29.9902 121.492C30.7782 121.492 31.5761 121.382 32.3594 121.149L34.1056 120.634L48.5283 132.18C50.0613 133.409 51.9203 134.022 53.7742 134.022C55.6424 134.022 57.5086 133.401 59.0489 132.159L74.5733 119.63C74.6262 119.587 74.6643 119.534 74.7146 119.489L100.034 99.7681L117.163 105.146C117.722 105.32 118.285 105.404 118.842 105.404C121.123 105.404 123.252 104.001 124.088 101.756L133.184 77.2679C134.262 74.3671 132.786 71.1429 129.888 70.0675Z" fill="black"/>
<path d="M114.703 53.8938C114.703 55.2159 115.776 56.2891 117.099 56.2891C118.421 56.2891 119.494 55.2159 119.494 53.8938V17.3664C119.494 16.0443 118.421 14.9711 117.099 14.9711C115.776 14.9711 114.703 16.0443 114.703 17.3664V53.8938Z" fill="black"/>
<path d="M111.086 38.9251V2.3952C111.086 1.07307 110.013 -6.10352e-05 108.691 -6.10352e-05C107.369 -6.10352e-05 106.296 1.07307 106.296 2.3952V38.9249C106.296 40.2472 107.369 41.3201 108.691 41.3201C110.016 41.3204 111.086 40.2472 111.086 38.9251Z" fill="black"/>
<path d="M28.8932 45.189V81.7161C28.8932 83.041 29.9663 84.1114 31.2885 84.1114C32.6106 84.1114 33.6837 83.041 33.6837 81.7161V45.189C33.6837 43.8666 32.6106 42.7937 31.2885 42.7937C29.9661 42.7935 28.8932 43.8666 28.8932 45.189Z" fill="black"/>
<path d="M37.301 30.2178V66.7474C37.301 68.0698 38.3741 69.1427 39.6962 69.1427C41.0186 69.1427 42.0915 68.0698 42.0915 66.7474V30.2178C42.0915 28.8954 41.0184 27.8225 39.6962 27.8225C38.3741 27.8225 37.301 28.8956 37.301 30.2178Z" fill="black"/>
</g>
<defs>
<clipPath id="clip0_22_417">
<rect width="134.022" height="134.022" fill="white"/>
</clipPath>
</defs>
</svg>
