<svg width="260" height="235" viewBox="0 0 260 235" fill="none" xmlns="http://www.w3.org/2000/svg">
<path d="M90.2192 115.285C84.2206 112.487 81.6253 105.357 84.4224 99.3585C87.2195 93.3599 94.3498 90.7646 100.348 93.5617C106.347 96.3588 108.942 103.489 106.145 109.488C103.348 115.486 96.2178 118.082 90.2192 115.285Z" fill="black"/>
<path d="M126.75 143.813H105.625L100.141 128.984C98.3125 124.313 94.6562 120.25 89.375 118.422L87.3438 117.406C82.6719 115.172 77.3906 115.375 73.125 117.203L53.0156 124.516C51.5937 124.922 50.375 125.938 49.7656 127.359L39.2031 149.703C37.9844 152.344 39 155.391 41.8437 156.812C44.4844 158.031 47.5312 157.016 48.9531 154.172L58.5 133.656L70.2812 129.391L42.8594 188.094H17.4687C13.2031 188.094 9.95313 191.344 9.95313 195.609C9.95313 199.875 13.2031 203.125 17.4687 203.125H47.5313C50.5781 203.125 53.0156 201.297 54.2344 198.656L63.7813 178.141L82.6719 229.734C84.0937 233.594 88.3594 235.625 92.2188 234.203C96.0781 232.781 98.1094 228.516 96.6875 224.656L77.1875 170.828L92.2188 138.531L96.6875 150.719C97.5 152.75 99.3281 154.172 101.562 154.172H126.75C129.594 154.172 132.031 151.734 132.031 148.891C132.031 146.25 129.594 143.813 126.75 143.813Z" fill="black"/>
<path d="M202.163 124.312C196.466 120.323 195.081 112.469 199.07 106.772C203.06 101.074 210.913 99.689 216.611 103.679C222.309 107.668 223.693 115.521 219.704 121.219C215.714 126.917 207.861 128.302 202.163 124.312Z" fill="black"/>
<path d="M246.797 127.766C244.359 125.937 240.703 126.75 239.078 129.187L227.297 146.047L206.984 131.828L198.859 125.937C195.609 123.5 191.75 122.484 187.891 122.484H162.297C160.469 122.281 158.437 123.094 157.422 124.922L142.594 146.047C140.766 148.484 141.578 152.141 144.016 153.766C146.453 155.391 150.109 154.781 151.734 152.344L164.937 133.453H180.375L140.562 190.328L115.578 183.625C111.312 182.609 107.047 185.047 106.031 189.109C105.016 193.375 107.453 197.641 111.516 198.656L141.984 206.781C143.812 207.187 146.047 207.187 148.078 205.969C149.5 205.156 150.516 203.531 151.328 202.516C152.141 201.5 165.141 182.812 165.141 182.812L189.719 200.281L194.594 228.312C195.406 232.578 199.469 235.422 203.734 234.812C208 234 210.844 229.937 210.234 225.672L204.75 194.594C204.344 192.562 203.125 190.734 201.5 189.516L182 175.906L204.344 143.203L225.672 158.031C228.109 159.859 231.766 159.047 233.391 156.609L248.219 135.281C250.047 132.844 249.437 129.391 246.797 127.766Z" fill="black"/>
</svg>
