<svg width="153" height="153" viewBox="0 0 153 153" fill="none" xmlns="http://www.w3.org/2000/svg">
<g clip-path="url(#clip0_22_385)">
<path d="M61.8942 56.277C69.8018 56.277 76.2121 49.8666 76.2121 41.9591C76.2121 34.0515 69.8018 27.6411 61.8942 27.6411C53.9866 27.6411 47.5762 34.0515 47.5762 41.9591C47.5762 49.8666 53.9866 56.277 61.8942 56.277Z" fill="#010002"/>
<path d="M89.2406 10.5175L93.625 3.97069L85.9133 0.77948L36.801 17.5574L40.1254 27.2955L89.2406 10.5175Z" fill="#010002"/>
<path d="M140.121 7.72296L138.594 0L130.877 3.19405L108.019 49.7812L117.261 54.3186L140.121 7.72296Z" fill="#010002"/>
<path d="M129.814 135.678C113.175 124.486 96.5837 113.098 79.5252 102.55C79.6669 101.127 79.5904 99.6559 79.2418 98.1879C79.2106 98.083 77.0142 88.6567 75.6396 76.5239C84.7513 76.0931 93.8488 75.3647 102.969 74.8829C109.873 74.5173 112.557 67.7325 110.958 62.7416L113.022 58.5499L116.366 60.1966L117.944 56.9798L105.758 50.9999L104.176 54.2166L107.132 55.6648L106.075 57.8159C105.188 57.5552 104.199 57.4333 103.091 57.49C89.8782 58.19 76.6882 59.42 63.4302 59.4909C62.5517 59.3888 61.6504 59.3747 60.7378 59.454C60.1937 59.5022 59.6609 59.5901 59.1422 59.7006C52.5699 58.0795 46.0004 56.4555 39.431 54.8344C36.5487 46.0373 33.6664 37.2374 30.7812 28.4375L34.134 27.2925L35.3413 30.821L38.7253 29.6646L34.3324 16.8204L30.9541 17.9796L32.0084 21.0886L27.6779 22.568C21.9303 17.3618 10.3813 21.9332 13.3316 30.9457C16.8516 41.6756 20.3687 52.4112 23.8887 63.1469C26.1276 69.9941 31.1865 70.7083 37.2572 72.2104C41.0918 73.157 44.9235 74.1007 48.7609 75.0473C49.9484 87.8235 52.1165 98.6045 52.995 102.635C45.7624 104.057 38.5297 105.48 31.2999 106.908C26.8702 107.781 23.696 113.28 25.1555 117.548C28.4714 127.277 31.5748 137.08 34.681 146.878C38.0621 157.531 54.8712 153.076 51.4759 142.372C49.3107 135.547 47.1171 128.725 44.8781 121.909C52.2298 120.464 59.5787 119.016 66.9247 117.573C67.8656 117.395 68.6819 117.091 69.4017 116.712C86.9704 127.504 104.012 139.234 121.124 150.741C130.44 157.001 139.078 141.901 129.814 135.678Z" fill="#010002"/>
</g>
<defs>
<clipPath id="clip0_22_385">
<rect width="152.977" height="152.977" fill="white"/>
</clipPath>
</defs>
</svg>
