<svg width="251" height="604" viewBox="0 0 251 604" fill="none" xmlns="http://www.w3.org/2000/svg">
<path d="M149.337 492.138C151.888 498.33 158.975 501.281 165.167 498.731C168.988 497.157 171.57 493.853 172.391 490.1L182.242 492.902L183.595 488.927L173.497 482.18L174.476 473.954C174.659 472.409 173.694 470.961 172.199 470.536L159.341 466.879C157.845 466.453 156.262 467.178 155.605 468.587L152.196 475.911L140.385 476.638L139.032 480.612L149.128 483.484C148.168 486.201 148.153 489.263 149.337 492.138ZM173.708 529.084H159.105L151.53 501.728C150.435 496.897 146.121 493.216 141.06 493.216H114.331C112.487 493.216 110.644 494.196 109.609 495.808L99.011 514.335C97.3989 516.921 98.4329 520.17 100.97 521.758C103.282 523.2 106.708 522.318 108.387 519.914L117.434 504.204H131.453L114.197 533.96C112.185 537.432 111.994 541.667 113.687 545.306L122.326 563.867L114.708 593.017C113.643 597.228 116.15 601.45 120.251 602.551C124.461 603.616 128.678 601.11 129.785 597.009L137.847 565.108C138.279 563.472 138.224 561.531 137.36 559.888L136.624 558.331L146.973 564.293L136.763 592.111C135.279 596.145 137.189 600.75 141.199 602.278C145.269 603.829 149.753 601.785 151.256 597.708L163.735 563.606C165.28 559.389 163.559 554.686 159.665 552.459L137.609 539.871L146.237 524.8L149.385 535.924C150.098 538.361 152.332 540.035 154.87 540.035H173.707C176.754 540.145 179.038 537.84 179.152 534.852C179.257 532.125 176.628 529.351 173.708 529.084ZM211.42 486.264C221.54 482.422 227.023 471.8 224.736 461.548C224.707 462.075 224.471 462.509 224.253 462.993C222.885 466.034 219.228 467.422 216.186 466.055C215.703 465.837 215.25 465.55 214.866 465.295C211.531 462.549 206.81 461.589 202.602 463.187C196.289 465.583 192.968 472.69 195.422 479.154C197.876 485.616 204.958 488.717 211.42 486.264ZM249.762 572.904C249.762 572.904 247.328 533.951 231.813 519.957C231.711 519.865 231.61 519.779 231.509 519.69V491.801L244.391 486.178C247.677 484.743 249.438 481.053 248.487 477.594L242.275 455.004C241.518 452.25 238.672 450.632 235.917 451.389C233.163 452.146 231.544 454.993 232.302 457.747L237.807 477.765L226.382 482.752L203.418 492.95C198.935 494.941 195.863 499.211 195.402 504.094L194.261 516.162L180.842 508.472C178.364 507.052 175.204 507.909 173.783 510.388C172.363 512.866 173.221 516.026 175.699 517.447L193.754 527.793C194.819 528.405 196.001 528.711 197.184 528.711C198.27 528.711 199.357 528.453 200.357 527.935C202.45 526.852 203.831 524.805 204.055 522.458L205.136 511.024L210.518 523.608C210.518 523.608 211.681 531.861 196.828 542.47C179.792 554.638 185.572 579.888 185.572 579.888C185.572 579.888 190.649 578.119 198.045 577.107V596.011C198.05 599.677 201.155 602.656 204.738 602.704C208.403 602.699 211.378 599.597 211.431 596.011V576.524C213.924 576.666 216.479 576.965 219.044 577.476L218.889 577.547L223.947 597.605C224.848 601.158 228.586 603.288 232.072 602.459C235.625 601.558 237.751 597.822 236.926 594.333L233.205 579.576C247.969 580.053 249.762 572.904 249.762 572.904Z" fill="black"/>
<g clip-path="url(#clip0_33_35)">
<path d="M207.261 316.848C214.408 316.848 220.201 311.055 220.201 303.908C220.201 296.762 214.408 290.968 207.261 290.968C200.115 290.968 194.321 296.762 194.321 303.908C194.321 311.055 200.115 316.848 207.261 316.848Z" fill="black"/>
<path d="M240.888 305.068C237.987 303.994 234.77 305.47 233.692 308.366L226.448 327.869L177.539 312.517L185.209 296.664C186.555 293.881 185.391 290.535 182.608 289.188C179.829 287.842 176.478 289.006 175.132 291.787L164.637 313.475C163.928 314.938 163.892 316.64 164.537 318.134C165.184 319.626 166.446 320.767 167.998 321.253L175.996 323.763L156.802 334.696L144.454 338.327C144.442 338.332 144.43 338.334 144.418 338.337L144.015 338.456L126.428 316.544C123.528 312.927 118.241 312.352 114.626 315.25C111.01 318.153 110.432 323.437 113.333 327.054L134.441 353.354C136.06 355.371 138.485 356.492 140.99 356.492C141.778 356.492 142.576 356.382 143.359 356.149L145.106 355.634L159.528 367.18C161.061 368.409 162.92 369.022 164.774 369.022C166.642 369.022 168.509 368.401 170.049 367.159L185.573 354.63C185.626 354.587 185.664 354.534 185.715 354.489L211.034 334.768L228.163 340.146C228.722 340.32 229.285 340.404 229.842 340.404C232.123 340.404 234.252 339.001 235.088 336.756L244.184 312.268C245.262 309.367 243.786 306.143 240.888 305.068Z" fill="black"/>
<path d="M225.703 288.894C225.703 290.216 226.776 291.289 228.099 291.289C229.421 291.289 230.494 290.216 230.494 288.894V252.366C230.494 251.044 229.421 249.971 228.099 249.971C226.776 249.971 225.703 251.044 225.703 252.366V288.894Z" fill="black"/>
<path d="M222.086 273.925V237.395C222.086 236.073 221.013 235 219.691 235C218.369 235 217.296 236.073 217.296 237.395V273.925C217.296 275.247 218.369 276.32 219.691 276.32C221.016 276.32 222.086 275.247 222.086 273.925Z" fill="black"/>
<path d="M139.893 280.189V316.716C139.893 318.041 140.966 319.111 142.288 319.111C143.611 319.111 144.684 318.041 144.684 316.716V280.189C144.684 278.867 143.611 277.794 142.288 277.794C140.966 277.793 139.893 278.867 139.893 280.189Z" fill="black"/>
<path d="M148.301 265.218V301.747C148.301 303.07 149.374 304.143 150.696 304.143C152.019 304.143 153.091 303.07 153.091 301.747V265.218C153.091 263.895 152.018 262.823 150.696 262.823C149.374 262.823 148.301 263.896 148.301 265.218Z" fill="black"/>
</g>
<path d="M102.292 77.0251C109.996 77.0251 116.241 70.7801 116.241 63.0766C116.241 55.3731 109.996 49.1282 102.292 49.1282C94.5887 49.1282 88.3438 55.3731 88.3438 63.0766C88.3438 70.7801 94.5887 77.0251 102.292 77.0251Z" fill="black"/>
<path d="M40.9438 150.1L57.6078 130.103L76.8641 146.273C79.95 149.236 84.1469 151.087 88.8375 151.087C98.3422 151.087 106.242 143.311 106.242 133.683C106.242 133.683 106.242 96.2812 106.242 96.1578C106.242 90.2328 103.28 85.0484 98.7125 81.8391L70.3219 61.8422L65.8782 37.0312C65.3844 33.6984 62.0516 31.4766 58.7188 32.2172C55.386 32.7109 53.1641 36.0437 53.9047 39.3766L58.7188 66.9031C59.0891 68.5078 59.9532 69.8656 61.1875 70.7297L78.4688 82.5797V125.042L62.0516 111.217C61.1875 110.353 59.9532 109.859 58.7188 109.489C55.5094 108.625 52.0532 109.859 49.9547 112.328L27.4891 138.991C24.4032 142.694 24.8969 148.248 28.4766 151.211C32.1797 154.173 37.7344 153.927 40.9438 150.1Z" fill="black"/>
<defs>
<clipPath id="clip0_33_35">
<rect width="134.022" height="134.022" fill="white" transform="translate(111 235)"/>
</clipPath>
</defs>
</svg>
