<svg width="158" height="158" viewBox="0 0 158 158" fill="none" xmlns="http://www.w3.org/2000/svg">
<path d="M102.292 77.0251C109.996 77.0251 116.241 70.7801 116.241 63.0766C116.241 55.3731 109.996 49.1282 102.292 49.1282C94.5887 49.1282 88.3438 55.3731 88.3438 63.0766C88.3438 70.7801 94.5887 77.0251 102.292 77.0251Z" fill="black"/>
<path d="M40.9438 150.1L57.6078 130.103L76.8641 146.273C79.95 149.236 84.1469 151.087 88.8375 151.087C98.3422 151.087 106.242 143.311 106.242 133.683C106.242 133.683 106.242 96.2812 106.242 96.1578C106.242 90.2328 103.28 85.0484 98.7125 81.8391L70.3219 61.8422L65.8782 37.0312C65.3844 33.6984 62.0516 31.4766 58.7188 32.2172C55.386 32.7109 53.1641 36.0437 53.9047 39.3766L58.7188 66.9031C59.0891 68.5078 59.9532 69.8656 61.1875 70.7297L78.4688 82.5797V125.042L62.0516 111.217C61.1875 110.353 59.9532 109.859 58.7188 109.489C55.5094 108.625 52.0532 109.859 49.9547 112.328L27.4891 138.991C24.4032 142.694 24.8969 148.248 28.4766 151.211C32.1797 154.173 37.7344 153.927 40.9438 150.1Z" fill="black"/>
</svg>
