<svg width="504" height="45" viewBox="0 0 504 45" fill="none" xmlns="http://www.w3.org/2000/svg">
<path d="M9.12 33.175C8.25667 33.175 7.63833 32.9883 7.265 32.615C6.89167 32.2183 6.705 31.4833 6.705 30.41C6.705 29.6867 6.775 28.8117 6.915 27.785C7.055 26.7583 7.3 25.2067 7.65 23.13C7.69667 22.85 7.88333 21.7183 8.21 19.735C8.53667 17.7283 8.82833 15.6283 9.085 13.435C9.31833 11.5683 9.435 10.1683 9.435 9.235C9.435 8.185 9.05 7.66 8.28 7.66C7.69667 7.66 6.96167 7.975 6.075 8.605C5.21167 9.21167 4.27833 10.1917 3.275 11.545C2.94833 11.9883 2.58667 12.21 2.19 12.21C1.86333 12.21 1.57167 12.0583 1.315 11.755C1.08167 11.4283 0.965 11.0667 0.965 10.67C0.965 10.2733 1.035 9.9 1.175 9.55C1.315 9.17667 1.57167 8.73333 1.945 8.22C3.08833 6.65667 4.36 5.455 5.76 4.615C7.16 3.75166 8.63 3.32 10.17 3.32C11.4533 3.32 12.41 3.71667 13.04 4.51C13.6933 5.30333 14.02 6.45833 14.02 7.975C14.02 9.32833 13.8333 11.2883 13.46 13.855C14.6267 10.4017 16.1083 7.78833 17.905 6.015C19.7017 4.21833 21.8133 3.32 24.24 3.32C26.1533 3.32 27.5883 3.86833 28.545 4.965C29.525 6.03833 30.015 7.485 30.015 9.305C30.015 10.3317 29.8633 11.58 29.56 13.05L27.425 23.06C27.1917 24.2267 27.075 25.23 27.075 26.07C27.075 27.05 27.2967 27.785 27.74 28.275C28.2067 28.765 28.8483 29.01 29.665 29.01C30.435 29.01 31.1817 28.7533 31.905 28.24C32.6517 27.7267 33.5267 26.875 34.53 25.685C34.81 25.3583 35.125 25.195 35.475 25.195C35.7783 25.195 36.0117 25.335 36.175 25.615C36.3617 25.895 36.455 26.28 36.455 26.77C36.455 27.68 36.2333 28.4033 35.79 28.94C34.5767 30.41 33.375 31.4833 32.185 32.16C30.995 32.8367 29.7467 33.175 28.44 33.175C26.4567 33.175 24.905 32.5917 23.785 31.425C22.665 30.235 22.105 28.6483 22.105 26.665C22.105 25.895 22.1633 25.055 22.28 24.145C22.42 23.235 22.6417 22.08 22.945 20.68L24.345 14.275C24.3917 14.065 24.4733 13.6917 24.59 13.155C24.7067 12.6183 24.8 12.1167 24.87 11.65C24.94 11.16 24.975 10.6817 24.975 10.215C24.975 9.46833 24.765 8.87333 24.345 8.43C23.925 7.98667 23.33 7.765 22.56 7.765C21.16 7.765 19.76 8.51167 18.36 10.005C16.96 11.4983 15.665 13.9133 14.475 17.25C13.285 20.5633 12.3517 24.81 11.675 29.99C11.5117 31.18 11.2667 32.0083 10.94 32.475C10.6367 32.9417 10.03 33.175 9.12 33.175ZM37.9176 33.175C36.471 33.175 35.316 32.65 34.4526 31.6C33.5893 30.55 33.1576 29.1733 33.1576 27.47C33.1576 25.6033 33.5893 23.8417 34.4526 22.185C35.316 20.505 36.4593 19.1633 37.8826 18.16C39.3293 17.1333 40.8576 16.62 42.4676 16.62C42.981 16.62 43.3193 16.725 43.4826 16.935C43.6693 17.1217 43.821 17.4717 43.9376 17.985C44.4276 17.8917 44.941 17.845 45.4776 17.845C46.621 17.845 47.1926 18.2533 47.1926 19.07C47.1926 19.56 47.0176 20.7267 46.6676 22.57C46.131 25.2533 45.8626 27.12 45.8626 28.17C45.8626 28.52 45.9443 28.8 46.1076 29.01C46.2943 29.22 46.5276 29.325 46.8076 29.325C47.251 29.325 47.7876 29.045 48.4176 28.485C49.0476 27.9017 49.8993 26.9683 50.9726 25.685C51.2526 25.3583 51.5676 25.195 51.9176 25.195C52.221 25.195 52.4543 25.335 52.6176 25.615C52.8043 25.895 52.8976 26.28 52.8976 26.77C52.8976 27.7033 52.676 28.4267 52.2326 28.94C51.276 30.13 50.261 31.1333 49.1876 31.95C48.1143 32.7667 47.076 33.175 46.0726 33.175C45.3026 33.175 44.591 32.9183 43.9376 32.405C43.3076 31.8683 42.8293 31.145 42.5026 30.235C41.2893 32.195 39.761 33.175 37.9176 33.175ZM39.1776 29.64C39.691 29.64 40.181 29.3367 40.6476 28.73C41.1143 28.1233 41.4526 27.3183 41.6626 26.315L42.9576 19.875C41.9776 19.8983 41.0676 20.2717 40.2276 20.995C39.411 21.695 38.7576 22.6283 38.2676 23.795C37.7776 24.9617 37.5326 26.1983 37.5326 27.505C37.5326 28.2283 37.6726 28.765 37.9526 29.115C38.256 29.465 38.6643 29.64 39.1776 29.64ZM46.2826 14.38C45.9093 14.38 45.5593 14.3217 45.2326 14.205C44.906 14.065 44.486 13.82 43.9726 13.47L40.2276 10.88L38.6876 13.085C38.3143 13.5983 37.7893 13.855 37.1126 13.855C36.6926 13.855 36.331 13.7383 36.0276 13.505C35.7476 13.2483 35.6076 12.91 35.6076 12.49C35.6076 11.9533 36.0393 11.055 36.9026 9.795C37.4393 9.025 37.9643 8.465 38.4776 8.115C38.991 7.74167 39.551 7.555 40.1576 7.555C40.5543 7.555 40.9043 7.61333 41.2076 7.73C41.5343 7.84667 41.9543 8.09167 42.4676 8.465L46.2126 11.055L47.7526 8.85C48.126 8.33667 48.651 8.08 49.3276 8.08C49.7476 8.08 50.0976 8.20833 50.3776 8.465C50.681 8.69833 50.8326 9.025 50.8326 9.445C50.8326 9.77167 50.716 10.145 50.4826 10.565C50.2726 10.9617 49.9576 11.4867 49.5376 12.14C49.001 12.91 48.476 13.4817 47.9626 13.855C47.4493 14.205 46.8893 14.38 46.2826 14.38ZM55.968 33.175C54.5914 33.175 53.413 32.8367 52.433 32.16C51.4764 31.46 50.753 30.55 50.263 29.43C49.773 28.31 49.528 27.1083 49.528 25.825C49.528 24.0517 49.8547 22.4767 50.508 21.1C51.1847 19.7 52.0947 18.615 53.238 17.845C54.3814 17.0517 55.6647 16.655 57.088 16.655C58.4647 16.655 59.643 17.005 60.623 17.705C61.603 18.3817 62.338 19.28 62.828 20.4C63.318 21.52 63.563 22.7217 63.563 24.005C63.563 25.7783 63.2247 27.365 62.548 28.765C61.8714 30.1417 60.9497 31.2267 59.783 32.02C58.6397 32.79 57.368 33.175 55.968 33.175ZM56.353 29.395C57.1464 29.395 57.8114 28.9633 58.348 28.1C58.908 27.2367 59.188 25.9767 59.188 24.32C59.188 23.0367 58.9547 22.0683 58.488 21.415C58.0214 20.7617 57.4614 20.435 56.808 20.435C55.968 20.435 55.268 20.8667 54.708 21.73C54.1714 22.57 53.903 23.83 53.903 25.51C53.903 26.84 54.1364 27.82 54.603 28.45C55.0697 29.08 55.653 29.395 56.353 29.395ZM89.3501 33.175C86.5735 33.175 84.1585 32.6733 82.1051 31.67C80.0518 30.6433 78.4768 29.1967 77.3801 27.33C76.2835 25.4633 75.7351 23.2933 75.7351 20.82C75.7351 17.39 76.3768 14.345 77.6601 11.685C78.9668 9.025 80.7285 6.97167 82.9451 5.525C85.1618 4.055 87.6235 3.32 90.3301 3.32C92.8501 3.32 94.7635 3.97333 96.0701 5.28C97.3768 6.56333 98.0301 8.26667 98.0301 10.39C98.0301 11.8133 97.7735 12.9567 97.2601 13.82C96.7701 14.6833 96.0585 15.115 95.1251 15.115C94.4718 15.115 93.9585 14.9633 93.5851 14.66C93.2118 14.3567 93.0251 13.9133 93.0251 13.33C93.0251 13.12 93.0718 12.735 93.1651 12.175C93.3051 11.475 93.3751 10.915 93.3751 10.495C93.3751 8.37167 92.2435 7.31 89.9801 7.31C88.4401 7.31 86.9701 7.81167 85.5701 8.815C84.1701 9.81833 83.0385 11.3 82.1751 13.26C81.3118 15.1967 80.8801 17.5067 80.8801 20.19C80.8801 22.99 81.6618 25.16 83.2251 26.7C84.7885 28.2167 87.0985 28.975 90.1551 28.975C91.6718 28.975 93.2001 28.7883 94.7401 28.415C96.3035 28.0183 98.0301 27.4233 99.9201 26.63C100.27 26.49 100.562 26.42 100.795 26.42C101.168 26.42 101.448 26.56 101.635 26.84C101.822 27.12 101.915 27.4817 101.915 27.925C101.915 29.3483 101.145 30.3983 99.6051 31.075C97.9485 31.7983 96.2218 32.335 94.4251 32.685C92.6518 33.0117 90.9601 33.175 89.3501 33.175ZM116.677 22.255C116.981 22.255 117.214 22.4067 117.377 22.71C117.541 23.0133 117.622 23.3983 117.622 23.865C117.622 24.985 117.284 25.65 116.607 25.86C115.207 26.35 113.667 26.63 111.987 26.7C111.544 28.66 110.669 30.235 109.362 31.425C108.056 32.5917 106.574 33.175 104.917 33.175C103.517 33.175 102.316 32.8367 101.312 32.16C100.332 31.4833 99.5858 30.585 99.0725 29.465C98.5591 28.345 98.3025 27.1317 98.3025 25.825C98.3025 24.0517 98.6408 22.4767 99.3175 21.1C99.9941 19.7 100.927 18.615 102.117 17.845C103.307 17.0517 104.626 16.655 106.072 16.655C107.846 16.655 109.269 17.2733 110.342 18.51C111.439 19.7233 112.081 21.2283 112.267 23.025C113.364 22.955 114.671 22.7217 116.187 22.325C116.374 22.2783 116.537 22.255 116.677 22.255ZM105.197 29.465C105.944 29.465 106.586 29.1617 107.122 28.555C107.682 27.9483 108.056 27.0733 108.242 25.93C107.519 25.44 106.959 24.7983 106.562 24.005C106.189 23.2117 106.002 22.3717 106.002 21.485C106.002 21.1117 106.037 20.7383 106.107 20.365H105.932C104.999 20.365 104.217 20.82 103.587 21.73C102.981 22.6167 102.677 23.8767 102.677 25.51C102.677 26.7933 102.922 27.7733 103.412 28.45C103.926 29.1267 104.521 29.465 105.197 29.465ZM117.103 33.175C116.217 33.175 115.587 32.7083 115.213 31.775C114.863 30.8417 114.688 29.3483 114.688 27.295C114.688 24.2617 115.12 21.38 115.983 18.65C116.193 17.9733 116.532 17.4833 116.998 17.18C117.488 16.8533 118.165 16.69 119.028 16.69C119.495 16.69 119.822 16.7483 120.008 16.865C120.195 16.9817 120.288 17.2033 120.288 17.53C120.288 17.9033 120.113 18.7433 119.763 20.05C119.53 20.9833 119.343 21.8 119.203 22.5C119.063 23.2 118.947 24.0633 118.853 25.09C119.623 23.0833 120.487 21.45 121.443 20.19C122.4 18.93 123.333 18.0317 124.243 17.495C125.177 16.9583 126.028 16.69 126.798 16.69C128.315 16.69 129.073 17.4483 129.073 18.965C129.073 19.875 128.817 21.52 128.303 23.9C127.86 25.93 127.638 27.2717 127.638 27.925C127.638 28.8583 127.977 29.325 128.653 29.325C129.12 29.325 129.668 29.045 130.298 28.485C130.952 27.9017 131.815 26.9683 132.888 25.685C133.168 25.3583 133.483 25.195 133.833 25.195C134.137 25.195 134.37 25.335 134.533 25.615C134.72 25.895 134.813 26.28 134.813 26.77C134.813 27.7033 134.592 28.4267 134.148 28.94C133.145 30.1767 132.06 31.1917 130.893 31.985C129.75 32.7783 128.443 33.175 126.973 33.175C125.783 33.175 124.885 32.8367 124.278 32.16C123.672 31.46 123.368 30.4567 123.368 29.15C123.368 28.4967 123.532 27.33 123.858 25.65C124.162 24.18 124.313 23.165 124.313 22.605C124.313 22.2317 124.185 22.045 123.928 22.045C123.625 22.045 123.193 22.4417 122.633 23.235C122.097 24.005 121.537 25.0317 120.953 26.315C120.393 27.5983 119.938 28.9517 119.588 30.375C119.332 31.4717 119.028 32.2183 118.678 32.615C118.352 32.9883 117.827 33.175 117.103 33.175ZM145.605 23.2C146.258 23.2 146.585 23.69 146.585 24.67C146.585 26.5133 145.138 27.435 142.245 27.435C141.685 27.435 140.88 27.33 139.83 27.12C140.133 28.5667 140.378 30.1767 140.565 31.95C140.775 33.7 140.88 35.1467 140.88 36.29C140.88 38.81 140.472 40.735 139.655 42.065C138.838 43.395 137.765 44.06 136.435 44.06C134.755 44.06 133.553 42.87 132.83 40.49C132.13 38.11 131.78 34.5167 131.78 29.71C131.78 25.23 132.258 20.6917 133.215 16.095C134.195 11.475 135.525 7.66 137.205 4.65C138.908 1.61666 140.775 0.099998 142.805 0.099998C143.902 0.099998 144.753 0.589998 145.36 1.57C145.99 2.55 146.305 3.86833 146.305 5.525C146.305 11.0083 143.027 16.9817 136.47 23.445C136.237 25.7317 136.12 27.7383 136.12 29.465C136.12 31.8683 136.202 34.33 136.365 36.85C136.528 39.3933 136.797 40.665 137.17 40.665C137.87 40.665 138.22 39.4517 138.22 37.025C138.22 35.205 138.092 33.4433 137.835 31.74C137.602 30.0367 137.275 28.24 136.855 26.35C136.832 26.0467 136.925 25.6617 137.135 25.195C137.368 24.7283 137.648 24.32 137.975 23.97C138.302 23.62 138.593 23.445 138.85 23.445C139.317 23.445 139.877 23.4683 140.53 23.515C140.74 23.5383 140.985 23.55 141.265 23.55C142.198 23.55 143.237 23.4683 144.38 23.305C144.567 23.2817 144.765 23.2583 144.975 23.235C145.185 23.2117 145.395 23.2 145.605 23.2ZM142.07 3.565C141.65 3.565 141.125 4.27667 140.495 5.7C139.888 7.12333 139.282 9.01333 138.675 11.37C138.068 13.7033 137.543 16.1767 137.1 18.79C138.967 16.6667 140.402 14.4617 141.405 12.175C142.408 9.865 142.922 7.70667 142.945 5.7C142.945 4.27667 142.653 3.565 142.07 3.565ZM159.555 25.195C159.858 25.195 160.091 25.335 160.255 25.615C160.441 25.895 160.535 26.28 160.535 26.77C160.535 27.7033 160.313 28.4267 159.87 28.94C159.006 29.99 157.781 30.9583 156.195 31.845C154.631 32.7317 152.951 33.175 151.155 33.175C148.705 33.175 146.803 32.51 145.45 31.18C144.096 29.85 143.42 28.03 143.42 25.72C143.42 24.11 143.758 22.6167 144.435 21.24C145.111 19.84 146.045 18.7317 147.235 17.915C148.448 17.0983 149.813 16.69 151.33 16.69C152.683 16.69 153.768 17.0983 154.585 17.915C155.401 18.7083 155.81 19.7933 155.81 21.17C155.81 22.78 155.226 24.1683 154.06 25.335C152.916 26.4783 150.968 27.3883 148.215 28.065C148.798 29.1383 149.906 29.675 151.54 29.675C152.59 29.675 153.78 29.3133 155.11 28.59C156.463 27.8433 157.63 26.875 158.61 25.685C158.89 25.3583 159.205 25.195 159.555 25.195ZM150.735 20.12C149.871 20.12 149.136 20.6217 148.53 21.625C147.946 22.6283 147.655 23.8417 147.655 25.265V25.335C149.031 25.0083 150.116 24.5183 150.91 23.865C151.703 23.2117 152.1 22.4533 152.1 21.59C152.1 21.1467 151.971 20.7967 151.715 20.54C151.481 20.26 151.155 20.12 150.735 20.12ZM164.195 33.945C162.982 33.945 162.048 33.665 161.395 33.105C160.765 32.545 160.45 31.915 160.45 31.215C160.45 30.6083 160.672 30.0833 161.115 29.64C161.558 29.1967 162.212 28.975 163.075 28.975C163.378 28.975 163.728 29.01 164.125 29.08C164.545 29.1267 164.86 29.1617 165.07 29.185C165.047 28.5783 164.907 28.0067 164.65 27.47C164.417 26.9333 164.113 26.42 163.74 25.93C163.367 25.4167 163.017 24.9733 162.69 24.6C161.967 25.9767 161.243 27.12 160.52 28.03C159.82 28.94 159.05 29.8033 158.21 30.62C157.79 31.04 157.347 31.25 156.88 31.25C156.507 31.25 156.203 31.1217 155.97 30.865C155.737 30.585 155.62 30.2467 155.62 29.85C155.62 29.3833 155.783 28.9517 156.11 28.555L156.565 27.995C157.848 26.4083 158.817 25.1017 159.47 24.075C159.867 23.3983 160.333 22.5 160.87 21.38C161.407 20.2367 161.932 19.0583 162.445 17.845C162.888 16.8183 163.81 16.305 165.21 16.305C165.863 16.305 166.318 16.3633 166.575 16.48C166.832 16.5967 166.96 16.7833 166.96 17.04C166.96 17.18 166.913 17.4017 166.82 17.705C166.727 18.0083 166.598 18.3117 166.435 18.615C166.015 19.455 165.805 20.1667 165.805 20.75C165.805 21.1 165.922 21.485 166.155 21.905C166.412 22.325 166.797 22.85 167.31 23.48C168.057 24.46 168.617 25.3 168.99 26C169.387 26.6767 169.585 27.4233 169.585 28.24C169.585 28.4733 169.562 28.8 169.515 29.22C170.658 28.7767 172 27.5983 173.54 25.685C173.82 25.3583 174.135 25.195 174.485 25.195C174.788 25.195 175.022 25.335 175.185 25.615C175.372 25.895 175.465 26.28 175.465 26.77C175.465 27.6567 175.243 28.38 174.8 28.94C173.633 30.3867 172.513 31.3783 171.44 31.915C170.39 32.4283 169.083 32.7083 167.52 32.755C166.587 33.5483 165.478 33.945 164.195 33.945ZM179.131 33.945C177.918 33.945 176.985 33.665 176.331 33.105C175.701 32.545 175.386 31.915 175.386 31.215C175.386 30.6083 175.608 30.0833 176.051 29.64C176.495 29.1967 177.148 28.975 178.011 28.975C178.315 28.975 178.665 29.01 179.061 29.08C179.481 29.1267 179.796 29.1617 180.006 29.185C179.983 28.5783 179.843 28.0067 179.586 27.47C179.353 26.9333 179.05 26.42 178.676 25.93C178.303 25.4167 177.953 24.9733 177.626 24.6C176.903 25.9767 176.18 27.12 175.456 28.03C174.756 28.94 173.986 29.8033 173.146 30.62C172.726 31.04 172.283 31.25 171.816 31.25C171.443 31.25 171.14 31.1217 170.906 30.865C170.673 30.585 170.556 30.2467 170.556 29.85C170.556 29.3833 170.72 28.9517 171.046 28.555L171.501 27.995C172.785 26.4083 173.753 25.1017 174.406 24.075C174.803 23.3983 175.27 22.5 175.806 21.38C176.343 20.2367 176.868 19.0583 177.381 17.845C177.825 16.8183 178.746 16.305 180.146 16.305C180.8 16.305 181.255 16.3633 181.511 16.48C181.768 16.5967 181.896 16.7833 181.896 17.04C181.896 17.18 181.85 17.4017 181.756 17.705C181.663 18.0083 181.535 18.3117 181.371 18.615C180.951 19.455 180.741 20.1667 180.741 20.75C180.741 21.1 180.858 21.485 181.091 21.905C181.348 22.325 181.733 22.85 182.246 23.48C182.993 24.46 183.553 25.3 183.926 26C184.323 26.6767 184.521 27.4233 184.521 28.24C184.521 28.4733 184.498 28.8 184.451 29.22C185.595 28.7767 186.936 27.5983 188.476 25.685C188.756 25.3583 189.071 25.195 189.421 25.195C189.725 25.195 189.958 25.335 190.121 25.615C190.308 25.895 190.401 26.28 190.401 26.77C190.401 27.6567 190.18 28.38 189.736 28.94C188.57 30.3867 187.45 31.3783 186.376 31.915C185.326 32.4283 184.02 32.7083 182.456 32.755C181.523 33.5483 180.415 33.945 179.131 33.945ZM200.088 26.245C200.391 26.245 200.625 26.385 200.788 26.665C200.975 26.945 201.068 27.33 201.068 27.82C201.068 28.66 200.87 29.3833 200.473 29.99C199.82 30.9933 198.956 31.775 197.883 32.335C196.833 32.895 195.573 33.175 194.103 33.175C191.863 33.175 190.125 32.51 188.888 31.18C187.651 29.8267 187.033 28.0067 187.033 25.72C187.033 24.11 187.371 22.6167 188.048 21.24C188.725 19.84 189.658 18.7317 190.848 17.915C192.061 17.0983 193.426 16.69 194.943 16.69C196.296 16.69 197.381 17.0983 198.198 17.915C199.015 18.7083 199.423 19.7933 199.423 21.17C199.423 22.78 198.84 24.1683 197.673 25.335C196.53 26.4783 194.57 27.3883 191.793 28.065C192.353 29.1383 193.298 29.675 194.628 29.675C195.585 29.675 196.366 29.4533 196.973 29.01C197.603 28.5667 198.326 27.82 199.143 26.77C199.423 26.42 199.738 26.245 200.088 26.245ZM194.348 20.12C193.485 20.12 192.75 20.6217 192.143 21.625C191.56 22.6283 191.268 23.8417 191.268 25.265V25.335C192.645 25.0083 193.73 24.5183 194.523 23.865C195.316 23.2117 195.713 22.4533 195.713 21.59C195.713 21.1467 195.585 20.7967 195.328 20.54C195.095 20.26 194.768 20.12 194.348 20.12ZM225.385 33.175C222.609 33.175 220.194 32.6733 218.14 31.67C216.087 30.6433 214.512 29.1967 213.415 27.33C212.319 25.4633 211.77 23.2933 211.77 20.82C211.77 17.39 212.412 14.345 213.695 11.685C215.002 9.025 216.764 6.97167 218.98 5.525C221.197 4.055 223.659 3.32 226.365 3.32C228.885 3.32 230.799 3.97333 232.105 5.28C233.412 6.56333 234.065 8.26667 234.065 10.39C234.065 11.8133 233.809 12.9567 233.295 13.82C232.805 14.6833 232.094 15.115 231.16 15.115C230.507 15.115 229.994 14.9633 229.62 14.66C229.247 14.3567 229.06 13.9133 229.06 13.33C229.06 13.12 229.107 12.735 229.2 12.175C229.34 11.475 229.41 10.915 229.41 10.495C229.41 8.37167 228.279 7.31 226.015 7.31C224.475 7.31 223.005 7.81167 221.605 8.815C220.205 9.81833 219.074 11.3 218.21 13.26C217.347 15.1967 216.915 17.5067 216.915 20.19C216.915 22.99 217.697 25.16 219.26 26.7C220.824 28.2167 223.134 28.975 226.19 28.975C227.707 28.975 229.235 28.7883 230.775 28.415C232.339 28.0183 234.065 27.4233 235.955 26.63C236.305 26.49 236.597 26.42 236.83 26.42C237.204 26.42 237.484 26.56 237.67 26.84C237.857 27.12 237.95 27.4817 237.95 27.925C237.95 29.3483 237.18 30.3983 235.64 31.075C233.984 31.7983 232.257 32.335 230.46 32.685C228.687 33.0117 226.995 33.175 225.385 33.175ZM237.689 33.175C236.803 33.175 236.173 32.7083 235.799 31.775C235.449 30.8417 235.274 29.3483 235.274 27.295C235.274 24.2617 235.706 21.38 236.569 18.65C236.779 17.9733 237.118 17.4833 237.584 17.18C238.074 16.8533 238.751 16.69 239.614 16.69C240.081 16.69 240.408 16.7483 240.594 16.865C240.781 16.9817 240.874 17.2033 240.874 17.53C240.874 17.9033 240.699 18.7433 240.349 20.05C240.116 20.9833 239.929 21.8 239.789 22.5C239.649 23.2 239.533 24.0633 239.439 25.09C240.209 23.0833 241.073 21.45 242.029 20.19C242.986 18.93 243.919 18.0317 244.829 17.495C245.763 16.9583 246.614 16.69 247.384 16.69C248.901 16.69 249.659 17.4483 249.659 18.965C249.659 19.2683 249.554 20.0033 249.344 21.17C249.158 22.1033 249.064 22.6867 249.064 22.92C249.064 23.7367 249.356 24.145 249.939 24.145C250.593 24.145 251.433 23.6317 252.459 22.605C252.763 22.3017 253.078 22.15 253.404 22.15C253.708 22.15 253.941 22.29 254.104 22.57C254.291 22.8267 254.384 23.1767 254.384 23.62C254.384 24.4833 254.151 25.16 253.684 25.65C253.031 26.3267 252.261 26.91 251.374 27.4C250.511 27.8667 249.589 28.1 248.609 28.1C247.373 28.1 246.428 27.785 245.774 27.155C245.144 26.525 244.829 25.6733 244.829 24.6C244.829 24.25 244.864 23.9 244.934 23.55C244.981 23.0833 245.004 22.7683 245.004 22.605C245.004 22.2317 244.876 22.045 244.619 22.045C244.269 22.045 243.803 22.4417 243.219 23.235C242.659 24.005 242.099 25.0317 241.539 26.315C240.979 27.5983 240.524 28.9517 240.174 30.375C239.918 31.4717 239.614 32.2183 239.264 32.615C238.938 32.9883 238.413 33.175 237.689 33.175ZM255.717 14.38C254.737 14.38 254.002 14.1583 253.512 13.715C253.022 13.2483 252.777 12.6067 252.777 11.79C252.777 10.9733 253.092 10.2967 253.722 9.76C254.375 9.2 255.18 8.92 256.137 8.92C257 8.92 257.7 9.13 258.237 9.55C258.774 9.97 259.042 10.565 259.042 11.335C259.042 12.2683 258.739 13.015 258.132 13.575C257.525 14.1117 256.72 14.38 255.717 14.38ZM255.437 33.175C253.92 33.175 252.812 32.6383 252.112 31.565C251.435 30.4917 251.097 29.0683 251.097 27.295C251.097 26.245 251.225 24.9033 251.482 23.27C251.762 21.6133 252.112 20.0733 252.532 18.65C252.742 17.9033 253.022 17.39 253.372 17.11C253.722 16.83 254.282 16.69 255.052 16.69C256.242 16.69 256.837 17.0867 256.837 17.88C256.837 18.4633 256.615 19.8167 256.172 21.94C255.612 24.5067 255.332 26.245 255.332 27.155C255.332 27.855 255.425 28.3917 255.612 28.765C255.799 29.1383 256.114 29.325 256.557 29.325C256.977 29.325 257.502 29.0333 258.132 28.45C258.762 27.8667 259.602 26.945 260.652 25.685C260.932 25.3583 261.247 25.195 261.597 25.195C261.9 25.195 262.134 25.335 262.297 25.615C262.484 25.895 262.577 26.28 262.577 26.77C262.577 27.7033 262.355 28.4267 261.912 28.94C259.602 31.7633 257.444 33.175 255.437 33.175ZM262.23 33.175C261.344 33.175 260.714 32.7083 260.34 31.775C259.99 30.8417 259.815 29.3483 259.815 27.295C259.815 24.2617 260.247 21.38 261.11 18.65C261.32 17.9733 261.659 17.4833 262.125 17.18C262.615 16.8533 263.292 16.69 264.155 16.69C264.622 16.69 264.949 16.7483 265.135 16.865C265.322 16.9817 265.415 17.2033 265.415 17.53C265.415 17.9033 265.24 18.7433 264.89 20.05C264.657 20.9833 264.47 21.8 264.33 22.5C264.19 23.1767 264.074 24.0283 263.98 25.055C264.61 23.235 265.357 21.695 266.22 20.435C267.107 19.175 268.005 18.2417 268.915 17.635C269.849 17.005 270.724 16.69 271.54 16.69C272.357 16.69 272.929 16.8767 273.255 17.25C273.605 17.6233 273.78 18.195 273.78 18.965C273.78 19.7117 273.559 21.065 273.115 23.025C272.929 23.865 272.8 24.495 272.73 24.915C273.897 22.045 275.192 19.9567 276.615 18.65C278.039 17.3433 279.369 16.69 280.605 16.69C282.122 16.69 282.88 17.4483 282.88 18.965C282.88 19.875 282.624 21.52 282.11 23.9C281.667 25.93 281.445 27.2717 281.445 27.925C281.445 28.8583 281.784 29.325 282.46 29.325C282.927 29.325 283.475 29.045 284.105 28.485C284.759 27.9017 285.622 26.9683 286.695 25.685C286.975 25.3583 287.29 25.195 287.64 25.195C287.944 25.195 288.177 25.335 288.34 25.615C288.527 25.895 288.62 26.28 288.62 26.77C288.62 27.7033 288.399 28.4267 287.955 28.94C286.952 30.1767 285.867 31.1917 284.7 31.985C283.557 32.7783 282.25 33.175 280.78 33.175C279.59 33.175 278.692 32.8367 278.085 32.16C277.479 31.46 277.175 30.4567 277.175 29.15C277.175 28.4967 277.339 27.33 277.665 25.65C277.969 24.18 278.12 23.165 278.12 22.605C278.12 22.2317 277.992 22.045 277.735 22.045C277.432 22.045 277 22.4417 276.44 23.235C275.88 24.005 275.32 25.0317 274.76 26.315C274.2 27.5983 273.745 28.9517 273.395 30.375C273.139 31.495 272.835 32.2417 272.485 32.615C272.159 32.9883 271.622 33.175 270.875 33.175C270.105 33.175 269.522 32.8133 269.125 32.09C268.752 31.3433 268.565 30.445 268.565 29.395C268.565 28.5083 268.682 27.225 268.915 25.545C269.102 24.0517 269.195 23.0717 269.195 22.605C269.195 22.2317 269.067 22.045 268.81 22.045C268.46 22.045 268.017 22.465 267.48 23.305C266.944 24.145 266.419 25.2183 265.905 26.525C265.415 27.8317 265.019 29.115 264.715 30.375C264.459 31.4717 264.155 32.2183 263.805 32.615C263.479 32.9883 262.954 33.175 262.23 33.175ZM301.4 25.195C301.704 25.195 301.937 25.335 302.1 25.615C302.287 25.895 302.38 26.28 302.38 26.77C302.38 27.7033 302.159 28.4267 301.715 28.94C300.852 29.99 299.627 30.9583 298.04 31.845C296.477 32.7317 294.797 33.175 293 33.175C290.55 33.175 288.649 32.51 287.295 31.18C285.942 29.85 285.265 28.03 285.265 25.72C285.265 24.11 285.604 22.6167 286.28 21.24C286.957 19.84 287.89 18.7317 289.08 17.915C290.294 17.0983 291.659 16.69 293.175 16.69C294.529 16.69 295.614 17.0983 296.43 17.915C297.247 18.7083 297.655 19.7933 297.655 21.17C297.655 22.78 297.072 24.1683 295.905 25.335C294.762 26.4783 292.814 27.3883 290.06 28.065C290.644 29.1383 291.752 29.675 293.385 29.675C294.435 29.675 295.625 29.3133 296.955 28.59C298.309 27.8433 299.475 26.875 300.455 25.685C300.735 25.3583 301.05 25.195 301.4 25.195ZM292.58 20.12C291.717 20.12 290.982 20.6217 290.375 21.625C289.792 22.6283 289.5 23.8417 289.5 25.265V25.335C290.877 25.0083 291.962 24.5183 292.755 23.865C293.549 23.2117 293.945 22.4533 293.945 21.59C293.945 21.1467 293.817 20.7967 293.56 20.54C293.327 20.26 293 20.12 292.58 20.12ZM306.041 33.945C304.827 33.945 303.894 33.665 303.241 33.105C302.611 32.545 302.296 31.915 302.296 31.215C302.296 30.6083 302.517 30.0833 302.961 29.64C303.404 29.1967 304.057 28.975 304.921 28.975C305.224 28.975 305.574 29.01 305.971 29.08C306.391 29.1267 306.706 29.1617 306.916 29.185C306.892 28.5783 306.752 28.0067 306.496 27.47C306.262 26.9333 305.959 26.42 305.586 25.93C305.212 25.4167 304.862 24.9733 304.536 24.6C303.812 25.9767 303.089 27.12 302.366 28.03C301.666 28.94 300.896 29.8033 300.056 30.62C299.636 31.04 299.192 31.25 298.726 31.25C298.352 31.25 298.049 31.1217 297.816 30.865C297.582 30.585 297.466 30.2467 297.466 29.85C297.466 29.3833 297.629 28.9517 297.956 28.555L298.411 27.995C299.694 26.4083 300.662 25.1017 301.316 24.075C301.736 23.3983 302.156 22.5933 302.576 21.66C303.019 20.7267 303.591 19.455 304.291 17.845C304.734 16.8183 305.656 16.305 307.056 16.305C307.709 16.305 308.164 16.3633 308.421 16.48C308.677 16.5967 308.806 16.7833 308.806 17.04C308.806 17.18 308.759 17.4017 308.666 17.705C308.572 18.0083 308.444 18.3117 308.281 18.615C307.861 19.455 307.651 20.1667 307.651 20.75C307.651 21.1 307.767 21.485 308.001 21.905C308.257 22.325 308.642 22.85 309.156 23.48C309.902 24.46 310.462 25.3 310.836 26C311.232 26.6767 311.431 27.4233 311.431 28.24C311.431 29.22 311.197 30.1533 310.731 31.04C310.287 31.9033 309.657 32.6033 308.841 33.14C308.024 33.6767 307.091 33.945 306.041 33.945ZM349.693 12.14C349.693 14.1233 349.179 15.9433 348.153 17.6C347.126 19.2567 345.633 20.61 343.673 21.66C341.713 22.71 339.379 23.3283 336.673 23.515L335.168 31.95C334.584 35.1933 332.998 36.815 330.408 36.815C328.984 36.815 327.666 36.395 326.453 35.555C325.263 34.715 324.306 33.4317 323.583 31.705C322.859 29.9783 322.498 27.855 322.498 25.335C322.498 20.5983 323.256 16.585 324.773 13.295C326.313 9.98167 328.366 7.50833 330.933 5.875C333.523 4.21833 336.369 3.39 339.473 3.39C341.666 3.39 343.521 3.775 345.038 4.545C346.578 5.315 347.733 6.365 348.503 7.695C349.296 9.00166 349.693 10.4833 349.693 12.14ZM337.303 19.91C342.086 19.3033 344.478 16.8183 344.478 12.455C344.478 10.915 343.964 9.66667 342.938 8.71C341.934 7.73 340.371 7.24 338.248 7.24C335.844 7.24 333.744 7.99833 331.948 9.515C330.174 11.0317 328.798 13.1433 327.818 15.85C326.861 18.5333 326.383 21.6017 326.383 25.055C326.383 26.5017 326.523 27.785 326.803 28.905C327.106 30.025 327.479 30.9 327.923 31.53C328.389 32.1367 328.833 32.44 329.253 32.44C329.836 32.44 330.279 31.635 330.583 30.025L331.738 23.41C330.828 23.27 330.431 23.2117 330.548 23.235C329.848 23.1183 329.393 22.9083 329.183 22.605C328.973 22.2783 328.868 21.87 328.868 21.38C328.868 20.8667 329.008 20.4583 329.288 20.155C329.591 19.8517 329.999 19.7 330.513 19.7C330.746 19.7 330.921 19.7117 331.038 19.735C331.598 19.8283 332.029 19.8867 332.333 19.91C332.636 18.09 333.068 15.6517 333.628 12.595C333.768 11.8017 334.083 11.2417 334.573 10.915C335.086 10.565 335.681 10.39 336.358 10.39C337.128 10.39 337.676 10.5417 338.003 10.845C338.353 11.125 338.528 11.58 338.528 12.21C338.528 12.5833 338.504 12.8867 338.458 13.12L337.303 19.91ZM366.839 22.255C367.142 22.255 367.375 22.4067 367.539 22.71C367.702 23.0133 367.784 23.3983 367.784 23.865C367.784 24.985 367.445 25.65 366.769 25.86C365.369 26.35 363.829 26.63 362.149 26.7C361.705 28.66 360.83 30.235 359.524 31.425C358.217 32.5917 356.735 33.175 355.079 33.175C353.679 33.175 352.477 32.8367 351.474 32.16C350.494 31.4833 349.747 30.585 349.234 29.465C348.72 28.345 348.464 27.1317 348.464 25.825C348.464 24.0517 348.802 22.4767 349.479 21.1C350.155 19.7 351.089 18.615 352.279 17.845C353.469 17.0517 354.787 16.655 356.234 16.655C358.007 16.655 359.43 17.2733 360.504 18.51C361.6 19.7233 362.242 21.2283 362.429 23.025C363.525 22.955 364.832 22.7217 366.349 22.325C366.535 22.2783 366.699 22.255 366.839 22.255ZM355.359 29.465C356.105 29.465 356.747 29.1617 357.284 28.555C357.844 27.9483 358.217 27.0733 358.404 25.93C357.68 25.44 357.12 24.7983 356.724 24.005C356.35 23.2117 356.164 22.3717 356.164 21.485C356.164 21.1117 356.199 20.7383 356.269 20.365H356.094C355.16 20.365 354.379 20.82 353.749 21.73C353.142 22.6167 352.839 23.8767 352.839 25.51C352.839 26.7933 353.084 27.7733 353.574 28.45C354.087 29.1267 354.682 29.465 355.359 29.465ZM378.92 21.485C379.433 21.485 379.865 21.6717 380.215 22.045C380.588 22.395 380.775 22.8383 380.775 23.375C380.775 23.6783 380.705 24.005 380.565 24.355C380.191 25.2183 379.666 25.9417 378.99 26.525C378.313 27.1083 377.566 27.4 376.75 27.4C376.096 27.4 375.536 27.1667 375.07 26.7C374.626 26.2333 374.405 25.6033 374.405 24.81C374.405 24.3667 374.428 23.8883 374.475 23.375C374.521 23.0017 374.545 22.745 374.545 22.605C374.545 22.4183 374.498 22.2783 374.405 22.185C374.335 22.0917 374.241 22.045 374.125 22.045C373.798 22.045 373.355 22.4417 372.795 23.235C372.235 24.005 371.675 25.0317 371.115 26.315C370.555 27.5983 370.1 28.9517 369.75 30.375C369.493 31.495 369.201 32.2417 368.875 32.615C368.548 32.9883 368.011 33.175 367.265 33.175C366.378 33.175 365.748 32.7083 365.375 31.775C365.025 30.8417 364.85 29.3483 364.85 27.295C364.85 24.2617 365.281 21.38 366.145 18.65C366.355 17.9733 366.693 17.4833 367.16 17.18C367.65 16.8533 368.326 16.69 369.19 16.69C369.656 16.69 369.983 16.7483 370.17 16.865C370.356 16.9817 370.45 17.2033 370.45 17.53C370.45 17.9033 370.275 18.7433 369.925 20.05C369.691 20.9833 369.505 21.8 369.365 22.5C369.225 23.2 369.108 24.0633 369.015 25.09C369.785 23.0833 370.648 21.45 371.605 20.19C372.561 18.93 373.495 18.0317 374.405 17.495C375.315 16.9583 376.143 16.69 376.89 16.69C377.566 16.69 378.08 16.8883 378.43 17.285C378.803 17.6583 378.99 18.2183 378.99 18.965C378.99 19.4083 378.861 20.2483 378.605 21.485H378.92ZM420.736 3.985C421.39 4.07833 421.833 4.27667 422.066 4.58C422.323 4.88333 422.451 5.28 422.451 5.77C422.451 7.38 421.588 8.12666 419.861 8.01L418.636 7.905C417.26 7.78833 415.883 7.695 414.506 7.625C413.153 7.555 411.73 7.52 410.236 7.52H408.661C408.381 10.9733 408.09 14.1233 407.786 16.97L413.806 16.865C414.67 16.865 415.241 17.0167 415.521 17.32C415.825 17.6233 415.976 18.0317 415.976 18.545C415.976 19.3383 415.743 19.9683 415.276 20.435C414.81 20.8783 414.145 21.1 413.281 21.1H407.296L407.086 22.605C406.596 26.455 405.546 29.1967 403.936 30.83C402.35 32.4633 400.156 33.28 397.356 33.28C395.77 33.28 394.311 32.9417 392.981 32.265C391.651 31.565 390.671 30.725 390.041 29.745C389.785 29.3483 389.656 28.87 389.656 28.31C389.656 27.75 389.785 27.26 390.041 26.84C390.321 26.42 390.66 26.21 391.056 26.21C391.336 26.21 391.605 26.3033 391.861 26.49C392.141 26.6767 392.491 27.0383 392.911 27.575C394.031 29.045 395.42 29.78 397.076 29.78C398.406 29.78 399.515 29.2433 400.401 28.17C401.311 27.0733 401.895 25.3583 402.151 23.025L402.361 21.1H400.681C400.145 21.1 399.678 20.9483 399.281 20.645C398.908 20.3417 398.721 19.91 398.721 19.35C398.721 18.6267 398.908 18.0783 399.281 17.705C399.655 17.3083 400.203 17.11 400.926 17.11C401.58 17.11 402.221 17.0983 402.851 17.075C403.131 14.5083 403.435 11.3933 403.761 7.73C401.241 7.96333 399.468 8.37167 398.441 8.955C397.415 9.53833 396.901 10.4017 396.901 11.545C396.901 12.3383 397.135 13.0967 397.601 13.82C397.741 14.03 397.811 14.24 397.811 14.45C397.811 14.87 397.578 15.2433 397.111 15.57C396.645 15.8733 396.12 16.025 395.536 16.025C394.906 16.025 394.37 15.8383 393.926 15.465C393.646 15.2317 393.378 14.7533 393.121 14.03C392.865 13.3067 392.736 12.5017 392.736 11.615C392.736 8.72167 394.218 6.62167 397.181 5.315C400.168 4.00833 404.52 3.355 410.236 3.355C414.203 3.355 417.703 3.565 420.736 3.985ZM419.363 33.175C417.916 33.175 416.761 32.65 415.898 31.6C415.035 30.55 414.603 29.1733 414.603 27.47C414.603 25.6033 415.035 23.8417 415.898 22.185C416.761 20.505 417.905 19.1633 419.328 18.16C420.775 17.1333 422.303 16.62 423.913 16.62C424.426 16.62 424.765 16.725 424.928 16.935C425.115 17.1217 425.266 17.4717 425.383 17.985C425.873 17.8917 426.386 17.845 426.923 17.845C428.066 17.845 428.638 18.2533 428.638 19.07C428.638 19.56 428.463 20.7267 428.113 22.57C427.576 25.2533 427.308 27.12 427.308 28.17C427.308 28.52 427.39 28.8 427.553 29.01C427.74 29.22 427.973 29.325 428.253 29.325C428.696 29.325 429.233 29.045 429.863 28.485C430.493 27.9017 431.345 26.9683 432.418 25.685C432.698 25.3583 433.013 25.195 433.363 25.195C433.666 25.195 433.9 25.335 434.063 25.615C434.25 25.895 434.343 26.28 434.343 26.77C434.343 27.7033 434.121 28.4267 433.678 28.94C432.721 30.13 431.706 31.1333 430.633 31.95C429.56 32.7667 428.521 33.175 427.518 33.175C426.748 33.175 426.036 32.9183 425.383 32.405C424.753 31.8683 424.275 31.145 423.948 30.235C422.735 32.195 421.206 33.175 419.363 33.175ZM420.623 29.64C421.136 29.64 421.626 29.3367 422.093 28.73C422.56 28.1233 422.898 27.3183 423.108 26.315L424.403 19.875C423.423 19.8983 422.513 20.2717 421.673 20.995C420.856 21.695 420.203 22.6283 419.713 23.795C419.223 24.9617 418.978 26.1983 418.978 27.505C418.978 28.2283 419.118 28.765 419.398 29.115C419.701 29.465 420.11 29.64 420.623 29.64ZM449.165 22.36C449.235 22.3367 449.352 22.325 449.515 22.325C449.865 22.325 450.133 22.4417 450.32 22.675C450.507 22.9083 450.6 23.2233 450.6 23.62C450.6 24.3433 450.46 24.915 450.18 25.335C449.9 25.7317 449.48 26.0233 448.92 26.21C447.847 26.56 446.703 26.735 445.49 26.735C444.463 26.735 443.495 26.595 442.585 26.315C441.908 27.4117 441.162 28.5433 440.345 29.71C439.412 31.04 438.607 31.95 437.93 32.44C437.253 32.93 436.483 33.175 435.62 33.175C434.663 33.175 433.905 32.8017 433.345 32.055C432.808 31.3083 432.47 30.13 432.33 28.52C432.05 25.2533 431.91 22.395 431.91 19.945V18.72C431.933 17.95 432.143 17.4133 432.54 17.11C432.937 16.8067 433.532 16.655 434.325 16.655C434.932 16.655 435.375 16.795 435.655 17.075C435.958 17.3317 436.11 17.775 436.11 18.405C436.11 21.0883 436.273 24.5767 436.6 28.87C438 26.7933 439.05 25.1367 439.75 23.9C439.4 23.2233 439.225 22.4183 439.225 21.485C439.225 20.6917 439.4 19.9217 439.75 19.175C440.1 18.4283 440.578 17.8217 441.185 17.355C441.792 16.8883 442.48 16.655 443.25 16.655C443.927 16.655 444.475 16.9 444.895 17.39C445.315 17.8567 445.525 18.545 445.525 19.455C445.525 20.505 445.245 21.7067 444.685 23.06C445.572 23.0133 446.75 22.8383 448.22 22.535L449.165 22.36ZM465.413 22.255C465.716 22.255 465.949 22.4067 466.113 22.71C466.276 23.0133 466.358 23.3983 466.358 23.865C466.358 24.985 466.019 25.65 465.343 25.86C463.943 26.35 462.403 26.63 460.723 26.7C460.279 28.66 459.404 30.235 458.098 31.425C456.791 32.5917 455.309 33.175 453.653 33.175C452.253 33.175 451.051 32.8367 450.048 32.16C449.068 31.4833 448.321 30.585 447.808 29.465C447.294 28.345 447.038 27.1317 447.038 25.825C447.038 24.0517 447.376 22.4767 448.053 21.1C448.729 19.7 449.663 18.615 450.853 17.845C452.043 17.0517 453.361 16.655 454.808 16.655C456.581 16.655 458.004 17.2733 459.078 18.51C460.174 19.7233 460.816 21.2283 461.003 23.025C462.099 22.955 463.406 22.7217 464.923 22.325C465.109 22.2783 465.273 22.255 465.413 22.255ZM453.933 29.465C454.679 29.465 455.321 29.1617 455.858 28.555C456.418 27.9483 456.791 27.0733 456.978 25.93C456.254 25.44 455.694 24.7983 455.298 24.005C454.924 23.2117 454.738 22.3717 454.738 21.485C454.738 21.1117 454.773 20.7383 454.843 20.365H454.668C453.734 20.365 452.953 20.82 452.323 21.73C451.716 22.6167 451.413 23.8767 451.413 25.51C451.413 26.7933 451.658 27.7733 452.148 28.45C452.661 29.1267 453.256 29.465 453.933 29.465ZM477.494 21.485C478.007 21.485 478.439 21.6717 478.789 22.045C479.162 22.395 479.349 22.8383 479.349 23.375C479.349 23.6783 479.279 24.005 479.139 24.355C478.765 25.2183 478.24 25.9417 477.564 26.525C476.887 27.1083 476.14 27.4 475.324 27.4C474.67 27.4 474.11 27.1667 473.644 26.7C473.2 26.2333 472.979 25.6033 472.979 24.81C472.979 24.3667 473.002 23.8883 473.049 23.375C473.095 23.0017 473.119 22.745 473.119 22.605C473.119 22.4183 473.072 22.2783 472.979 22.185C472.909 22.0917 472.815 22.045 472.699 22.045C472.372 22.045 471.929 22.4417 471.369 23.235C470.809 24.005 470.249 25.0317 469.689 26.315C469.129 27.5983 468.674 28.9517 468.324 30.375C468.067 31.495 467.775 32.2417 467.449 32.615C467.122 32.9883 466.585 33.175 465.839 33.175C464.952 33.175 464.322 32.7083 463.949 31.775C463.599 30.8417 463.424 29.3483 463.424 27.295C463.424 24.2617 463.855 21.38 464.719 18.65C464.929 17.9733 465.267 17.4833 465.734 17.18C466.224 16.8533 466.9 16.69 467.764 16.69C468.23 16.69 468.557 16.7483 468.744 16.865C468.93 16.9817 469.024 17.2033 469.024 17.53C469.024 17.9033 468.849 18.7433 468.499 20.05C468.265 20.9833 468.079 21.8 467.939 22.5C467.799 23.2 467.682 24.0633 467.589 25.09C468.359 23.0833 469.222 21.45 470.179 20.19C471.135 18.93 472.069 18.0317 472.979 17.495C473.889 16.9583 474.717 16.69 475.464 16.69C476.14 16.69 476.654 16.8883 477.004 17.285C477.377 17.6583 477.564 18.2183 477.564 18.965C477.564 19.4083 477.435 20.2483 477.179 21.485H477.494ZM484.603 24.81C484.136 24.81 483.751 24.705 483.448 24.495C483.145 24.285 482.993 23.9583 482.993 23.515L483.028 23.235C483.425 20.6217 483.961 17.6467 484.638 14.31C485.315 10.9733 485.945 8.09167 486.528 5.665C486.901 4.17167 487.916 3.425 489.573 3.425C491.066 3.425 491.813 3.90333 491.813 4.86C491.813 5.07 491.778 5.30333 491.708 5.56C491.101 8.03333 490.296 11.0317 489.293 14.555C488.29 18.055 487.333 21.1 486.423 23.69C486.166 24.4367 485.56 24.81 484.603 24.81ZM483.273 33.175C482.246 33.175 481.465 32.895 480.928 32.335C480.415 31.775 480.158 31.04 480.158 30.13C480.158 29.08 480.45 28.24 481.033 27.61C481.64 26.98 482.48 26.665 483.553 26.665C484.58 26.665 485.35 26.9217 485.863 27.435C486.4 27.925 486.668 28.66 486.668 29.64C486.668 30.7133 486.365 31.5767 485.758 32.23C485.151 32.86 484.323 33.175 483.273 33.175ZM496.497 24.81C496.031 24.81 495.646 24.705 495.342 24.495C495.039 24.285 494.887 23.9583 494.887 23.515L494.922 23.235C495.319 20.6217 495.856 17.6467 496.532 14.31C497.209 10.9733 497.839 8.09167 498.422 5.665C498.796 4.17167 499.811 3.425 501.467 3.425C502.961 3.425 503.707 3.90333 503.707 4.86C503.707 5.07 503.672 5.30333 503.602 5.56C502.996 8.03333 502.191 11.0317 501.187 14.555C500.184 18.055 499.227 21.1 498.317 23.69C498.061 24.4367 497.454 24.81 496.497 24.81ZM495.167 33.175C494.141 33.175 493.359 32.895 492.822 32.335C492.309 31.775 492.052 31.04 492.052 30.13C492.052 29.08 492.344 28.24 492.927 27.61C493.534 26.98 494.374 26.665 495.447 26.665C496.474 26.665 497.244 26.9217 497.757 27.435C498.294 27.925 498.562 28.66 498.562 29.64C498.562 30.7133 498.259 31.5767 497.652 32.23C497.046 32.86 496.217 33.175 495.167 33.175Z" fill="#F3AA17"/>
</svg>
