<svg width="1467" height="3828" viewBox="0 0 1467 3828" fill="none" xmlns="http://www.w3.org/2000/svg">
<path d="M119.108 553.631L86.7846 550.985M101.623 568.468L104.27 536.148L101.623 568.468Z" stroke="#F6FFF0" stroke-opacity="0.6" stroke-width="3.80986" stroke-linecap="round"/>
<path d="M1047.95 195.604C1073.17 195.604 1093.61 175.164 1093.61 149.949C1093.61 124.734 1073.17 104.294 1047.95 104.294C1022.73 104.294 1002.29 124.734 1002.29 149.949C1002.29 175.164 1022.73 195.604 1047.95 195.604Z" stroke="white" stroke-opacity="0.5" stroke-width="2.85739"/>
<ellipse cx="993.155" cy="820.895" rx="48.6503" ry="48.6442" fill="#EFB574" fill-opacity="0.83"/>
<ellipse cx="441.293" cy="753.579" rx="95.335" ry="95.3229" fill="#EFB574" fill-opacity="0.83"/>
<ellipse cx="343.678" cy="95.3229" rx="95.335" ry="95.3229" fill="#EFB574" fill-opacity="0.83"/>
<ellipse cx="147.47" cy="444.938" rx="72.4841" ry="72.4749" fill="#EFB574" fill-opacity="0.83"/>
<ellipse cx="1282.81" cy="345.122" rx="55.2059" ry="55.1989" fill="#EFB574" fill-opacity="0.83"/>
<path d="M712.555 869.374C723.864 869.374 733.031 860.208 733.031 848.901C733.031 837.594 723.864 828.428 712.555 828.428C701.247 828.428 692.08 837.594 692.08 848.901C692.08 860.208 701.247 869.374 712.555 869.374Z" stroke="white" stroke-opacity="0.5" stroke-width="2.85739"/>
<path d="M169.293 947.869C194.511 947.869 214.954 927.428 214.954 902.214C214.954 876.999 194.511 856.559 169.293 856.559C144.075 856.559 123.632 876.999 123.632 902.214C123.632 927.428 144.075 947.869 169.293 947.869Z" stroke="white" stroke-opacity="0.5" stroke-width="2.85739"/>
<path d="M450.928 506.535L418.604 503.888M433.443 521.371L436.089 489.052L433.443 521.371Z" stroke="#F6FFF0" stroke-opacity="0.6" stroke-width="3.80986" stroke-linecap="round"/>
<path d="M1094.53 509.809L1095.11 477.386M1078.61 493.307L1111.04 493.888L1078.61 493.307Z" stroke="#F6FFF0" stroke-opacity="0.6" stroke-width="3.80986" stroke-linecap="round"/>
<path d="M336.569 879.743L322.804 850.381M315.003 871.944L344.369 858.179L315.003 871.944Z" stroke="#F6FFF0" stroke-opacity="0.6" stroke-width="3.80986" stroke-linecap="round"/>
<path d="M27.5195 654.653C40.1849 654.653 50.4523 644.387 50.4523 631.723C50.4523 619.059 40.1849 608.793 27.5195 608.793C14.854 608.793 4.58667 619.059 4.58667 631.723C4.58667 644.387 14.854 654.653 27.5195 654.653Z" stroke="white" stroke-opacity="0.5" stroke-width="2.85739"/>
<path d="M570.516 197.992L541.943 213.334M563.9 219.948L548.559 191.378L563.9 219.948Z" stroke="#F6FFF0" stroke-opacity="0.6" stroke-width="3.80986" stroke-linecap="round"/>
<path d="M827.489 631.95C852.707 631.95 873.15 611.509 873.15 586.295C873.15 561.08 852.707 540.64 827.489 540.64C802.271 540.64 781.828 561.08 781.828 586.295C781.828 611.509 802.271 631.95 827.489 631.95Z" stroke="white" stroke-opacity="0.5" stroke-width="2.85739"/>
<path d="M1416.7 452.424C1441.91 452.424 1462.36 431.984 1462.36 406.769C1462.36 381.555 1441.91 361.114 1416.7 361.114C1391.48 361.114 1371.03 381.555 1371.03 406.769C1371.03 431.984 1391.48 452.424 1416.7 452.424Z" stroke="white" stroke-opacity="0.5" stroke-width="2.85739"/>
<path d="M1273.26 722.744C1298.48 722.744 1318.92 702.304 1318.92 677.089C1318.92 651.875 1298.48 631.434 1273.26 631.434C1248.05 631.434 1227.6 651.875 1227.6 677.089C1227.6 702.304 1248.05 722.744 1273.26 722.744Z" stroke="white" stroke-opacity="0.5" stroke-width="2.85739"/>
<ellipse cx="250.923" cy="217.184" rx="2.57971" ry="2.57939" fill="white" fill-opacity="0.5"/>
<ellipse opacity="0.3" cx="275.688" cy="160.438" rx="2.57971" ry="2.57939" fill="white" fill-opacity="0.5"/>
<ellipse opacity="0.3" cx="572.871" cy="197.581" rx="2.57971" ry="2.57939" fill="white" fill-opacity="0.5"/>
<ellipse opacity="0.3" cx="870.054" cy="234.724" rx="2.57971" ry="2.57939" fill="white" fill-opacity="0.5"/>
<ellipse cx="432.535" cy="882.666" rx="2.57971" ry="2.57939" fill="white" fill-opacity="0.9"/>
<ellipse cx="558.425" cy="844.492" rx="2.57971" ry="2.57939" fill="white" fill-opacity="0.5"/>
<ellipse opacity="0.3" cx="1464.42" cy="309.011" rx="2.57971" ry="2.57939" fill="white" fill-opacity="0.5"/>
<ellipse opacity="0.3" cx="1151.76" cy="239.883" rx="2.57971" ry="2.57939" fill="white" fill-opacity="0.5"/>
<path d="M518.181 338.416C536.133 338.416 550.686 323.634 550.686 305.399C550.686 287.165 536.133 272.383 518.181 272.383C500.229 272.383 485.677 287.165 485.677 305.399C485.677 323.634 500.229 338.416 518.181 338.416Z" stroke="white" stroke-opacity="0.5" stroke-width="2.85739"/>
<path d="M1347.89 1510.63L1380.22 1507.99M1365.38 1525.47L1362.73 1493.15L1365.38 1525.47Z" stroke="#F6FFF0" stroke-opacity="0.6" stroke-width="3.80986" stroke-linecap="round"/>
<path d="M419.053 1152.6C393.835 1152.6 373.392 1132.16 373.392 1106.95C373.392 1081.73 393.835 1061.29 419.053 1061.29C444.27 1061.29 464.713 1081.73 464.713 1106.95C464.713 1132.16 444.27 1152.6 419.053 1152.6Z" stroke="white" stroke-opacity="0.5" stroke-width="2.85739"/>
<ellipse rx="48.6503" ry="48.6442" transform="matrix(-1 0 0 1 473.845 1777.89)" fill="#EFB574" fill-opacity="0.83"/>
<ellipse rx="95.335" ry="95.3229" transform="matrix(-1 0 0 1 1025.71 1710.58)" fill="#EFB574" fill-opacity="0.83"/>
<ellipse rx="95.335" ry="95.3229" transform="matrix(-1 0 0 1 1123.32 1052.32)" fill="#EFB574" fill-opacity="0.83"/>
<ellipse rx="72.4841" ry="72.4749" transform="matrix(-1 0 0 1 1319.53 1401.94)" fill="#EFB574" fill-opacity="0.83"/>
<ellipse rx="55.2059" ry="55.1989" transform="matrix(-1 0 0 1 184.192 1302.12)" fill="#EFB574" fill-opacity="0.83"/>
<path d="M754.445 1826.37C743.136 1826.37 733.969 1817.21 733.969 1805.9C733.969 1794.59 743.136 1785.43 754.445 1785.43C765.753 1785.43 774.92 1794.59 774.92 1805.9C774.92 1817.21 765.753 1826.37 754.445 1826.37Z" stroke="white" stroke-opacity="0.5" stroke-width="2.85739"/>
<path d="M1297.71 1904.87C1272.49 1904.87 1252.05 1884.43 1252.05 1859.21C1252.05 1834 1272.49 1813.56 1297.71 1813.56C1322.92 1813.56 1343.37 1834 1343.37 1859.21C1343.37 1884.43 1322.92 1904.87 1297.71 1904.87Z" stroke="white" stroke-opacity="0.5" stroke-width="2.85739"/>
<path d="M1016.07 1463.53L1048.4 1460.89M1033.56 1478.37L1030.91 1446.05L1033.56 1478.37Z" stroke="#F6FFF0" stroke-opacity="0.6" stroke-width="3.80986" stroke-linecap="round"/>
<path d="M372.468 1466.81L371.886 1434.39M388.391 1450.31L355.964 1450.89L388.391 1450.31Z" stroke="#F6FFF0" stroke-opacity="0.6" stroke-width="3.80986" stroke-linecap="round"/>
<path d="M1130.43 1836.74L1144.2 1807.38M1152 1828.94L1122.63 1815.18L1152 1828.94Z" stroke="#F6FFF0" stroke-opacity="0.6" stroke-width="3.80986" stroke-linecap="round"/>
<path d="M1439.48 1611.65C1426.82 1611.65 1416.55 1601.39 1416.55 1588.72C1416.55 1576.06 1426.82 1565.79 1439.48 1565.79C1452.15 1565.79 1462.41 1576.06 1462.41 1588.72C1462.41 1601.39 1452.15 1611.65 1439.48 1611.65Z" stroke="white" stroke-opacity="0.5" stroke-width="2.85739"/>
<path d="M896.484 1154.99L925.057 1170.33M903.1 1176.95L918.441 1148.38L903.1 1176.95Z" stroke="#F6FFF0" stroke-opacity="0.6" stroke-width="3.80986" stroke-linecap="round"/>
<path d="M639.511 1588.95C614.293 1588.95 593.85 1568.51 593.85 1543.29C593.85 1518.08 614.293 1497.64 639.511 1497.64C664.729 1497.64 685.172 1518.08 685.172 1543.29C685.172 1568.51 664.729 1588.95 639.511 1588.95Z" stroke="white" stroke-opacity="0.5" stroke-width="2.85739"/>
<path d="M50.3045 1409.42C25.0867 1409.42 4.64359 1388.98 4.64359 1363.77C4.64359 1338.55 25.0867 1318.11 50.3045 1318.11C75.5223 1318.11 95.9653 1338.55 95.9653 1363.77C95.9653 1388.98 75.5223 1409.42 50.3045 1409.42Z" stroke="white" stroke-opacity="0.5" stroke-width="2.85739"/>
<path d="M193.737 1679.74C168.519 1679.74 148.076 1659.3 148.076 1634.09C148.076 1608.87 168.519 1588.43 193.737 1588.43C218.954 1588.43 239.397 1608.87 239.397 1634.09C239.397 1659.3 218.954 1679.74 193.737 1679.74Z" stroke="white" stroke-opacity="0.5" stroke-width="2.85739"/>
<ellipse rx="2.57971" ry="2.57939" transform="matrix(-1 0 0 1 1216.08 1174.18)" fill="white" fill-opacity="0.5"/>
<ellipse opacity="0.3" rx="2.57971" ry="2.57939" transform="matrix(-1 0 0 1 1191.31 1117.44)" fill="white" fill-opacity="0.5"/>
<ellipse opacity="0.3" rx="2.57971" ry="2.57939" transform="matrix(-1 0 0 1 894.129 1154.58)" fill="white" fill-opacity="0.5"/>
<ellipse opacity="0.3" rx="2.57971" ry="2.57939" transform="matrix(-1 0 0 1 596.946 1191.72)" fill="white" fill-opacity="0.5"/>
<ellipse rx="2.57971" ry="2.57939" transform="matrix(-1 0 0 1 1034.47 1839.67)" fill="white" fill-opacity="0.9"/>
<ellipse rx="2.57971" ry="2.57939" transform="matrix(-1 0 0 1 908.575 1801.49)" fill="white" fill-opacity="0.5"/>
<ellipse opacity="0.3" rx="2.57971" ry="2.57939" transform="matrix(-1 0 0 1 2.57971 1266.01)" fill="white" fill-opacity="0.5"/>
<ellipse opacity="0.3" rx="2.57971" ry="2.57939" transform="matrix(-1 0 0 1 315.241 1196.88)" fill="white" fill-opacity="0.5"/>
<path d="M948.819 1295.42C930.867 1295.42 916.314 1280.63 916.314 1262.4C916.314 1244.17 930.867 1229.38 948.819 1229.38C966.771 1229.38 981.323 1244.17 981.323 1262.4C981.323 1280.63 966.771 1295.42 948.819 1295.42Z" stroke="white" stroke-opacity="0.5" stroke-width="2.85739"/>
<path d="M119.108 2317.37L86.7846 2320.01M101.623 2302.53L104.27 2334.85L101.623 2302.53Z" stroke="#F6FFF0" stroke-opacity="0.6" stroke-width="3.80986" stroke-linecap="round"/>
<path d="M1047.95 2675.4C1073.17 2675.4 1093.61 2695.84 1093.61 2721.05C1093.61 2746.27 1073.17 2766.71 1047.95 2766.71C1022.73 2766.71 1002.29 2746.27 1002.29 2721.05C1002.29 2695.84 1022.73 2675.4 1047.95 2675.4Z" stroke="white" stroke-opacity="0.5" stroke-width="2.85739"/>
<ellipse rx="48.6503" ry="48.6442" transform="matrix(1 0 0 -1 993.155 2050.11)" fill="#EFB574" fill-opacity="0.83"/>
<ellipse rx="95.335" ry="95.3229" transform="matrix(1 0 0 -1 441.293 2117.42)" fill="#EFB574" fill-opacity="0.83"/>
<ellipse rx="95.335" ry="95.3229" transform="matrix(1 0 0 -1 343.678 2775.68)" fill="#EFB574" fill-opacity="0.83"/>
<ellipse rx="72.4841" ry="72.4749" transform="matrix(1 0 0 -1 147.47 2426.06)" fill="#EFB574" fill-opacity="0.83"/>
<ellipse rx="55.2059" ry="55.1989" transform="matrix(1 0 0 -1 1282.81 2525.88)" fill="#EFB574" fill-opacity="0.83"/>
<path d="M712.555 2001.63C723.864 2001.63 733.031 2010.79 733.031 2022.1C733.031 2033.41 723.864 2042.57 712.555 2042.57C701.247 2042.57 692.08 2033.41 692.08 2022.1C692.08 2010.79 701.247 2001.63 712.555 2001.63Z" stroke="white" stroke-opacity="0.5" stroke-width="2.85739"/>
<path d="M169.293 1923.13C194.511 1923.13 214.954 1943.57 214.954 1968.79C214.954 1994 194.511 2014.44 169.293 2014.44C144.075 2014.44 123.632 1994 123.632 1968.79C123.632 1943.57 144.075 1923.13 169.293 1923.13Z" stroke="white" stroke-opacity="0.5" stroke-width="2.85739"/>
<path d="M450.928 2364.47L418.604 2367.11M433.443 2349.63L436.089 2381.95L433.443 2349.63Z" stroke="#F6FFF0" stroke-opacity="0.6" stroke-width="3.80986" stroke-linecap="round"/>
<path d="M1094.53 2361.19L1095.11 2393.61M1078.61 2377.69L1111.04 2377.11L1078.61 2377.69Z" stroke="#F6FFF0" stroke-opacity="0.6" stroke-width="3.80986" stroke-linecap="round"/>
<path d="M336.569 1991.26L322.804 2020.62M315.003 1999.06L344.369 2012.82L315.003 1999.06Z" stroke="#F6FFF0" stroke-opacity="0.6" stroke-width="3.80986" stroke-linecap="round"/>
<path d="M27.5195 2216.35C40.1849 2216.35 50.4523 2226.61 50.4523 2239.28C50.4523 2251.94 40.1849 2262.21 27.5195 2262.21C14.854 2262.21 4.58667 2251.94 4.58667 2239.28C4.58667 2226.61 14.854 2216.35 27.5195 2216.35Z" stroke="white" stroke-opacity="0.5" stroke-width="2.85739"/>
<path d="M570.516 2673.01L541.943 2657.67M563.9 2651.05L548.559 2679.62L563.9 2651.05Z" stroke="#F6FFF0" stroke-opacity="0.6" stroke-width="3.80986" stroke-linecap="round"/>
<path d="M827.489 2239.05C852.707 2239.05 873.15 2259.49 873.15 2284.71C873.15 2309.92 852.707 2330.36 827.489 2330.36C802.271 2330.36 781.828 2309.92 781.828 2284.71C781.828 2259.49 802.271 2239.05 827.489 2239.05Z" stroke="white" stroke-opacity="0.5" stroke-width="2.85739"/>
<path d="M1416.7 2418.58C1441.91 2418.58 1462.36 2439.02 1462.36 2464.23C1462.36 2489.45 1441.91 2509.89 1416.7 2509.89C1391.48 2509.89 1371.03 2489.45 1371.03 2464.23C1371.03 2439.02 1391.48 2418.58 1416.7 2418.58Z" stroke="white" stroke-opacity="0.5" stroke-width="2.85739"/>
<path d="M1273.26 2148.26C1298.48 2148.26 1318.92 2168.7 1318.92 2193.91C1318.92 2219.13 1298.48 2239.57 1273.26 2239.57C1248.05 2239.57 1227.6 2219.13 1227.6 2193.91C1227.6 2168.7 1248.05 2148.26 1273.26 2148.26Z" stroke="white" stroke-opacity="0.5" stroke-width="2.85739"/>
<ellipse rx="2.57971" ry="2.57939" transform="matrix(1 0 0 -1 250.923 2653.82)" fill="white" fill-opacity="0.5"/>
<ellipse opacity="0.3" rx="2.57971" ry="2.57939" transform="matrix(1 0 0 -1 275.688 2710.56)" fill="white" fill-opacity="0.5"/>
<ellipse opacity="0.3" rx="2.57971" ry="2.57939" transform="matrix(1 0 0 -1 572.871 2673.42)" fill="white" fill-opacity="0.5"/>
<ellipse opacity="0.3" rx="2.57971" ry="2.57939" transform="matrix(1 0 0 -1 870.054 2636.28)" fill="white" fill-opacity="0.5"/>
<ellipse rx="2.57971" ry="2.57939" transform="matrix(1 0 0 -1 432.535 1988.33)" fill="white" fill-opacity="0.9"/>
<ellipse rx="2.57971" ry="2.57939" transform="matrix(1 0 0 -1 558.425 2026.51)" fill="white" fill-opacity="0.5"/>
<ellipse opacity="0.3" rx="2.57971" ry="2.57939" transform="matrix(1 0 0 -1 1464.42 2561.99)" fill="white" fill-opacity="0.5"/>
<ellipse opacity="0.3" rx="2.57971" ry="2.57939" transform="matrix(1 0 0 -1 1151.76 2631.12)" fill="white" fill-opacity="0.5"/>
<path d="M518.181 2532.58C536.133 2532.58 550.686 2547.37 550.686 2565.6C550.686 2583.83 536.133 2598.62 518.181 2598.62C500.229 2598.62 485.677 2583.83 485.677 2565.6C485.677 2547.37 500.229 2532.58 518.181 2532.58Z" stroke="white" stroke-opacity="0.5" stroke-width="2.85739"/>
<path d="M1347.89 3274.37L1380.22 3277.01M1365.38 3259.53L1362.73 3291.85L1365.38 3259.53Z" stroke="#F6FFF0" stroke-opacity="0.6" stroke-width="3.80986" stroke-linecap="round"/>
<path d="M419.053 3632.4C393.835 3632.4 373.392 3652.84 373.392 3678.05C373.392 3703.27 393.835 3723.71 419.053 3723.71C444.27 3723.71 464.713 3703.27 464.713 3678.05C464.713 3652.84 444.27 3632.4 419.053 3632.4Z" stroke="white" stroke-opacity="0.5" stroke-width="2.85739"/>
<ellipse cx="473.845" cy="3007.11" rx="48.6503" ry="48.6442" transform="rotate(-180 473.845 3007.11)" fill="#EFB574" fill-opacity="0.83"/>
<ellipse cx="1025.71" cy="3074.42" rx="95.335" ry="95.3229" transform="rotate(-180 1025.71 3074.42)" fill="#EFB574" fill-opacity="0.83"/>
<ellipse cx="1123.32" cy="3732.68" rx="95.335" ry="95.3229" transform="rotate(-180 1123.32 3732.68)" fill="#EFB574" fill-opacity="0.83"/>
<ellipse cx="1319.53" cy="3383.06" rx="72.4841" ry="72.4749" transform="rotate(-180 1319.53 3383.06)" fill="#EFB574" fill-opacity="0.83"/>
<ellipse cx="184.192" cy="3482.88" rx="55.2059" ry="55.1989" transform="rotate(-180 184.192 3482.88)" fill="#EFB574" fill-opacity="0.83"/>
<path d="M754.445 2958.63C743.136 2958.63 733.969 2967.79 733.969 2979.1C733.969 2990.41 743.136 2999.57 754.445 2999.57C765.753 2999.57 774.92 2990.41 774.92 2979.1C774.92 2967.79 765.753 2958.63 754.445 2958.63Z" stroke="white" stroke-opacity="0.5" stroke-width="2.85739"/>
<path d="M1297.71 2880.13C1272.49 2880.13 1252.05 2900.57 1252.05 2925.79C1252.05 2951 1272.49 2971.44 1297.71 2971.44C1322.92 2971.44 1343.37 2951 1343.37 2925.79C1343.37 2900.57 1322.92 2880.13 1297.71 2880.13Z" stroke="white" stroke-opacity="0.5" stroke-width="2.85739"/>
<path d="M1016.07 3321.47L1048.4 3324.11M1033.56 3306.63L1030.91 3338.95L1033.56 3306.63Z" stroke="#F6FFF0" stroke-opacity="0.6" stroke-width="3.80986" stroke-linecap="round"/>
<path d="M372.468 3318.19L371.886 3350.61M388.391 3334.69L355.964 3334.11L388.391 3334.69Z" stroke="#F6FFF0" stroke-opacity="0.6" stroke-width="3.80986" stroke-linecap="round"/>
<path d="M1130.43 2948.26L1144.2 2977.62M1152 2956.06L1122.63 2969.82L1152 2956.06Z" stroke="#F6FFF0" stroke-opacity="0.6" stroke-width="3.80986" stroke-linecap="round"/>
<path d="M1439.48 3173.35C1426.82 3173.35 1416.55 3183.61 1416.55 3196.28C1416.55 3208.94 1426.82 3219.21 1439.48 3219.21C1452.15 3219.21 1462.41 3208.94 1462.41 3196.28C1462.41 3183.61 1452.15 3173.35 1439.48 3173.35Z" stroke="white" stroke-opacity="0.5" stroke-width="2.85739"/>
<path d="M896.484 3630.01L925.057 3614.67M903.1 3608.05L918.441 3636.62L903.1 3608.05Z" stroke="#F6FFF0" stroke-opacity="0.6" stroke-width="3.80986" stroke-linecap="round"/>
<path d="M639.511 3196.05C614.293 3196.05 593.85 3216.49 593.85 3241.71C593.85 3266.92 614.293 3287.36 639.511 3287.36C664.729 3287.36 685.172 3266.92 685.172 3241.71C685.172 3216.49 664.729 3196.05 639.511 3196.05Z" stroke="white" stroke-opacity="0.5" stroke-width="2.85739"/>
<path d="M50.3045 3375.58C25.0867 3375.58 4.64359 3396.02 4.64359 3421.23C4.64359 3446.45 25.0867 3466.89 50.3045 3466.89C75.5223 3466.89 95.9653 3446.45 95.9653 3421.23C95.9653 3396.02 75.5223 3375.58 50.3045 3375.58Z" stroke="white" stroke-opacity="0.5" stroke-width="2.85739"/>
<path d="M193.737 3105.26C168.519 3105.26 148.076 3125.7 148.076 3150.91C148.076 3176.13 168.519 3196.57 193.737 3196.57C218.954 3196.57 239.397 3176.13 239.397 3150.91C239.397 3125.7 218.954 3105.26 193.737 3105.26Z" stroke="white" stroke-opacity="0.5" stroke-width="2.85739"/>
<ellipse cx="1216.08" cy="3610.82" rx="2.57971" ry="2.57939" transform="rotate(-180 1216.08 3610.82)" fill="white" fill-opacity="0.5"/>
<ellipse opacity="0.3" cx="1191.31" cy="3667.56" rx="2.57971" ry="2.57939" transform="rotate(-180 1191.31 3667.56)" fill="white" fill-opacity="0.5"/>
<ellipse opacity="0.3" cx="894.129" cy="3630.42" rx="2.57971" ry="2.57939" transform="rotate(-180 894.129 3630.42)" fill="white" fill-opacity="0.5"/>
<ellipse opacity="0.3" cx="596.946" cy="3593.28" rx="2.57971" ry="2.57939" transform="rotate(-180 596.946 3593.28)" fill="white" fill-opacity="0.5"/>
<ellipse cx="1034.47" cy="2945.33" rx="2.57971" ry="2.57939" transform="rotate(-180 1034.47 2945.33)" fill="white" fill-opacity="0.9"/>
<ellipse cx="908.575" cy="2983.51" rx="2.57971" ry="2.57939" transform="rotate(-180 908.575 2983.51)" fill="white" fill-opacity="0.5"/>
<ellipse opacity="0.3" cx="2.57971" cy="3518.99" rx="2.57971" ry="2.57939" transform="rotate(-180 2.57971 3518.99)" fill="white" fill-opacity="0.5"/>
<ellipse opacity="0.3" cx="315.241" cy="3588.12" rx="2.57971" ry="2.57939" transform="rotate(-180 315.241 3588.12)" fill="white" fill-opacity="0.5"/>
<path d="M948.819 3489.58C930.867 3489.58 916.314 3504.37 916.314 3522.6C916.314 3540.83 930.867 3555.62 948.819 3555.62C966.771 3555.62 981.323 3540.83 981.323 3522.6C981.323 3504.37 966.771 3489.58 948.819 3489.58Z" stroke="white" stroke-opacity="0.5" stroke-width="2.85739"/>
</svg>
