<svg width="1395" height="724" viewBox="0 0 1395 724" fill="none" xmlns="http://www.w3.org/2000/svg">
<path d="M88.7589 399.592L57.434 397.027M71.8141 413.972L74.3788 382.647L71.8141 413.972Z" stroke="#F6FFF0" stroke-opacity="0.6" stroke-width="3.80986" stroke-linecap="round"/>
<path d="M988.896 52.5841C1013.34 52.5841 1033.15 32.7727 1033.15 8.33415C1033.15 -16.1044 1013.34 -35.9158 988.896 -35.9158C964.458 -35.9158 944.647 -16.1044 944.647 8.33415C944.647 32.7727 964.458 52.5841 988.896 52.5841Z" stroke="white" stroke-opacity="0.5" stroke-width="2.85739"/>
<circle cx="935.797" cy="658.629" r="47.147" fill="#EFB574" fill-opacity="0.83"/>
<circle cx="400.988" cy="593.386" r="92.3891" fill="#EFB574" fill-opacity="0.83"/>
<circle cx="306.389" cy="-44.6109" r="92.3891" fill="#EFB574" fill-opacity="0.83"/>
<circle cx="116.244" cy="294.244" r="70.2443" fill="#EFB574" fill-opacity="0.83"/>
<circle cx="1216.5" cy="197.5" r="53.5" fill="#EFB574" fill-opacity="0.83"/>
<path d="M663.868 705.618C674.827 705.618 683.711 696.734 683.711 685.775C683.711 674.816 674.827 665.932 663.868 665.932C652.909 665.932 644.025 674.816 644.025 685.775C644.025 696.734 652.909 705.618 663.868 705.618Z" stroke="white" stroke-opacity="0.5" stroke-width="2.85739"/>
<path d="M137.393 781.696C161.832 781.696 181.643 761.884 181.643 737.446C181.643 713.007 161.832 693.196 137.393 693.196C112.954 693.196 93.1431 713.007 93.1431 737.446C93.1431 761.884 112.954 781.696 137.393 781.696Z" stroke="white" stroke-opacity="0.5" stroke-width="2.85739"/>
<path d="M410.325 353.945L379 351.38M393.38 368.325L395.945 337L393.38 368.325Z" stroke="#F6FFF0" stroke-opacity="0.6" stroke-width="3.80986" stroke-linecap="round"/>
<path d="M1034.04 357.118L1034.61 325.693M1018.61 341.124L1050.04 341.687L1018.61 341.124Z" stroke="#F6FFF0" stroke-opacity="0.6" stroke-width="3.80986" stroke-linecap="round"/>
<path d="M299.5 715.666L286.159 687.208M278.601 708.108L307.059 694.767L278.601 708.108Z" stroke="#F6FFF0" stroke-opacity="0.6" stroke-width="3.80986" stroke-linecap="round"/>
<path d="M-5.72205e-06 497.504C12.2741 497.504 22.2242 487.554 22.2242 475.28C22.2242 463.006 12.2741 453.056 -5.72205e-06 453.056C-12.2741 453.056 -22.2242 463.006 -22.2242 475.28C-22.2242 487.554 -12.2741 497.504 -5.72205e-06 497.504Z" stroke="white" stroke-opacity="0.5" stroke-width="2.85739"/>
<path d="M526.218 54.899L498.527 69.7671M519.807 76.1784L504.939 48.4878L519.807 76.1784Z" stroke="#F6FFF0" stroke-opacity="0.6" stroke-width="3.80986" stroke-linecap="round"/>
<path d="M775.25 475.5C799.688 475.5 819.5 455.688 819.5 431.25C819.5 406.811 799.688 387 775.25 387C750.811 387 731 406.811 731 431.25C731 455.688 750.811 475.5 775.25 475.5Z" stroke="white" stroke-opacity="0.5" stroke-width="2.85739"/>
<path d="M1346.25 301.5C1370.69 301.5 1390.5 281.688 1390.5 257.25C1390.5 232.811 1370.69 213 1346.25 213C1321.81 213 1302 232.811 1302 257.25C1302 281.688 1321.81 301.5 1346.25 301.5Z" stroke="white" stroke-opacity="0.5" stroke-width="2.85739"/>
<path d="M1207.25 563.5C1231.69 563.5 1251.5 543.688 1251.5 519.25C1251.5 494.811 1231.69 475 1207.25 475C1182.81 475 1163 494.811 1163 519.25C1163 543.688 1182.81 563.5 1207.25 563.5Z" stroke="white" stroke-opacity="0.5" stroke-width="2.85739"/>
<circle cx="216.5" cy="73.5" r="2.5" fill="white" fill-opacity="0.5"/>
<circle opacity="0.3" cx="240.5" cy="18.5" r="2.5" fill="white" fill-opacity="0.5"/>
<circle opacity="0.3" cx="528.5" cy="54.5" r="2.5" fill="white" fill-opacity="0.5"/>
<circle opacity="0.3" cx="816.5" cy="90.5" r="2.5" fill="white" fill-opacity="0.5"/>
<circle cx="392.5" cy="718.5" r="2.5" fill="white" fill-opacity="0.9"/>
<circle cx="514.5" cy="681.5" r="2.5" fill="white" fill-opacity="0.5"/>
<circle opacity="0.3" cx="1392.5" cy="162.5" r="2.5" fill="white" fill-opacity="0.5"/>
<circle opacity="0.3" cx="1089.5" cy="95.5" r="2.5" fill="white" fill-opacity="0.5"/>
<path d="M475.5 191C492.897 191 507 176.673 507 159C507 141.327 492.897 127 475.5 127C458.103 127 444 141.327 444 159C444 176.673 458.103 191 475.5 191Z" stroke="white" stroke-opacity="0.5" stroke-width="2.85739"/>
</svg>
