<svg width="3000" height="1301" viewBox="0 0 3000 1301" fill="none" xmlns="http://www.w3.org/2000/svg">
<path d="M499.991 1164.62C776.129 1164.62 999.982 940.769 999.982 664.632C999.982 388.494 776.129 164.64 499.991 164.64C223.854 164.64 0 388.494 0 664.632C0 940.769 223.854 1164.62 499.991 1164.62Z" fill="#394CE2"/>
<path d="M999.969 666.77L742.27 409.074C729.524 393.4 710.09 383.38 688.313 383.38C688.122 383.38 687.932 383.39 687.737 383.392L658.395 354.193C639.774 332.779 612.352 319.228 581.745 319.228C564.331 319.228 547.954 323.628 533.632 331.351L510.204 308.158C486.675 281.88 452.515 265.326 414.464 265.326C351.767 265.326 299.583 310.22 288.234 369.611C281.351 367.667 274.097 366.607 266.591 366.607C222.64 366.607 187.013 402.236 187.013 446.185C187.013 470.738 198.136 492.689 215.613 507.284L258.617 550.634V921.135C258.617 955.49 273.822 986.447 297.814 1007.67L452.521 1162.38C468.151 1163.85 483.981 1164.64 499.995 1164.64C775.426 1164.64 998.816 941.93 999.969 666.77Z" fill="#1B2DDD"/>
<path d="M800.87 562.874H721.043V514.239C742.938 502.534 757.836 479.46 757.836 452.9C757.836 414.505 726.71 383.378 688.315 383.378C684.315 383.378 680.401 383.736 676.586 384.382C661.936 346.281 625.012 319.226 581.749 319.226C562.179 319.226 543.909 324.773 528.401 334.361C506.929 293.337 463.98 265.326 414.466 265.326C351.769 265.326 299.585 310.22 288.236 369.611C281.353 367.667 274.099 366.607 266.593 366.607C222.642 366.607 187.015 402.236 187.015 446.185C187.015 487.441 218.414 521.362 258.617 525.362V921.133C258.617 984.715 310.64 1036.74 374.226 1036.74H605.438C669.022 1036.74 721.045 984.717 721.045 921.133V917.508H800.871C835.781 917.508 864.18 889.108 864.18 854.2V626.185C864.178 591.274 835.78 562.874 800.87 562.874ZM803.621 854.202C803.621 855.643 802.309 856.956 800.867 856.956H721.043V623.431H800.87C802.311 623.431 803.623 624.743 803.623 626.185V854.202H803.621Z" fill="white"/>
<path d="M800.87 562.874H721.043V514.239C742.938 502.534 757.836 479.46 757.836 452.9C757.836 414.505 726.71 383.378 688.315 383.378C684.315 383.378 680.401 383.736 676.586 384.382C661.936 346.281 625.012 319.226 581.749 319.226C562.179 319.226 543.909 324.773 528.401 334.361C519.141 316.669 505.882 301.408 489.831 289.759V1036.74H605.438C669.022 1036.74 721.045 984.715 721.045 921.131V917.506H800.872C835.782 917.506 864.18 889.106 864.18 854.198L864.18 626.185C864.178 591.274 835.78 562.874 800.87 562.874ZM803.621 854.202C803.621 855.643 802.309 856.956 800.867 856.956H721.043V623.431H800.87C802.311 623.431 803.623 624.743 803.623 626.185V854.202H803.621Z" fill="#E1E1E3"/>
<path d="M374.224 1036.74H605.438C669.022 1036.74 721.046 984.719 721.046 921.135V562.876H258.617L258.617 921.135C258.617 984.719 310.64 1036.74 374.224 1036.74Z" fill="#FFA91F"/>
<path d="M489.831 562.874V1036.74H605.438C669.022 1036.74 721.046 984.719 721.046 921.135V562.876H489.831V562.874Z" fill="#FF8800"/>
<path d="M366.476 956.879H363.519C344.847 956.879 329.572 941.604 329.572 922.932V703.317C329.572 684.645 344.847 669.37 363.519 669.37H366.476C385.148 669.37 400.423 684.645 400.423 703.317V922.93C400.423 941.604 385.148 956.879 366.476 956.879Z" fill="#E67500"/>
<path d="M491.31 956.879H488.353C469.681 956.879 454.405 941.604 454.405 922.932V703.317C454.405 684.645 469.681 669.37 488.353 669.37H491.31C509.982 669.37 525.257 684.645 525.257 703.317V922.93C525.257 941.604 509.98 956.879 491.31 956.879Z" fill="#E67500"/>
<path d="M491.309 669.372H489.829V956.879L491.31 956.879C509.982 956.879 525.257 941.604 525.257 922.932L525.257 703.317C525.257 684.645 509.979 669.372 491.309 669.372Z" fill="#C06100"/>
<path d="M616.141 956.879H613.184C594.512 956.879 579.236 941.604 579.236 922.932V703.317C579.236 684.645 594.512 669.37 613.184 669.37H616.141C634.812 669.37 650.088 684.645 650.088 703.317V922.93C650.09 941.604 634.812 956.879 616.141 956.879Z" fill="#C06100"/>
<path d="M1465.94 223.395C1465.94 241.216 1464.04 258.22 1460.23 274.408C1456.55 290.46 1450.57 304.607 1442.27 316.851C1434.11 328.958 1423.5 338.616 1410.44 345.826C1397.52 353.036 1381.87 356.64 1363.51 356.64H1276.99V90.354H1363.51C1381.6 90.354 1397.11 94.0269 1410.03 101.373C1423.09 108.583 1433.7 118.241 1441.86 130.348C1450.16 142.455 1456.21 156.535 1460.02 172.587C1463.97 188.639 1465.94 205.575 1465.94 223.395ZM1423.7 223.395C1423.7 192.652 1418.46 169.186 1407.99 152.998C1397.51 136.674 1382.69 128.512 1363.51 128.512H1319.23V318.687H1363.51C1382.69 318.687 1397.51 310.389 1407.99 293.793C1418.46 277.197 1423.7 253.731 1423.7 223.395Z" fill="#2D2B2B"/>
<path d="M1494.3 301.955C1494.3 290.8 1497.3 281.074 1503.28 272.776C1509.27 264.341 1517.09 257.336 1526.75 251.758C1536.54 246.181 1547.7 242.032 1560.21 239.311C1572.86 236.454 1585.72 235.026 1598.78 235.026C1605.99 235.026 1612.18 235.162 1617.35 235.434C1622.52 235.706 1627.75 236.114 1633.06 236.659V229.109C1633.06 219.178 1629.18 211.764 1621.43 206.867C1613.81 201.97 1603.74 199.521 1591.23 199.521C1579.8 199.521 1568.17 201.154 1556.33 204.418C1544.5 207.547 1533.28 212.172 1522.67 218.294L1505.53 185.238C1518.04 178.028 1531.44 172.382 1545.72 168.301C1560.14 164.084 1575.31 161.976 1591.23 161.976C1601.57 161.976 1611.7 163.132 1621.63 165.445C1631.7 167.757 1640.68 171.566 1648.57 176.872C1656.59 182.177 1662.99 189.115 1667.75 197.685C1672.51 206.119 1674.89 216.594 1674.89 229.109V356.64H1633.06V328.685C1626.39 339.024 1616.53 347.05 1603.47 352.763C1590.55 358.477 1576.6 361.334 1561.64 361.334C1552.39 361.334 1543.62 360.041 1535.32 357.457C1527.16 355.008 1520.08 351.267 1514.1 346.234C1508.11 341.201 1503.28 335.011 1499.61 327.665C1496.07 320.183 1494.3 311.613 1494.3 301.955ZM1572.45 323.584C1580.75 323.584 1588.51 322.564 1595.72 320.523C1603.06 318.347 1609.52 315.422 1615.1 311.749C1620.68 307.94 1625.03 303.383 1628.16 298.078C1631.43 292.773 1633.06 286.923 1633.06 280.529V273.388C1626.39 272.299 1620.13 271.687 1614.29 271.551C1608.44 271.415 1603.27 271.347 1598.78 271.347C1578.1 271.347 1562.46 274.068 1551.85 279.509C1541.37 284.951 1536.13 291.684 1536.13 299.71C1536.13 315.626 1548.24 323.584 1572.45 323.584Z" fill="#2D2B2B"/>
<path d="M1915.46 296.037C1913.29 316.034 1905.4 331.95 1891.79 343.785C1878.33 355.484 1861.46 361.334 1841.19 361.334C1830.03 361.334 1819.83 359.497 1810.58 355.824C1801.33 352.151 1793.44 347.05 1786.91 340.52C1780.38 333.991 1775.28 326.169 1771.61 317.055C1768.07 307.804 1766.3 297.738 1766.3 286.855V204.623H1723.25V166.465H1766.3V90.354H1808.54V166.465H1888.33V204.623H1808.54V286.855C1808.54 299.098 1811.53 308.212 1817.52 314.198C1823.51 320.183 1831.4 323.176 1841.19 323.176C1853.16 323.176 1862.07 319.707 1867.92 312.77C1873.77 305.832 1877.24 297.466 1878.33 287.671L1915.46 296.037Z" fill="#2D2B2B"/>
<path d="M1950.56 301.955C1950.56 290.8 1953.55 281.074 1959.54 272.776C1965.52 264.341 1973.35 257.336 1983.01 251.758C1992.8 246.181 2003.95 242.032 2016.47 239.311C2029.12 236.454 2041.98 235.026 2055.04 235.026C2062.24 235.026 2068.43 235.162 2073.6 235.434C2078.77 235.706 2084.01 236.114 2089.32 236.659V229.109C2089.32 219.178 2085.44 211.764 2077.68 206.867C2070.07 201.97 2060 199.521 2047.49 199.521C2036.06 199.521 2024.43 201.154 2012.59 204.418C2000.76 207.547 1989.53 212.172 1978.92 218.294L1961.78 185.238C1974.3 178.028 1987.7 172.382 2001.98 168.301C2016.4 164.084 2031.57 161.976 2047.49 161.976C2057.82 161.976 2067.96 163.132 2077.89 165.445C2087.96 167.757 2096.93 171.566 2104.82 176.872C2112.85 182.177 2119.24 189.115 2124 197.685C2128.77 206.119 2131.15 216.594 2131.15 229.109V356.64H2089.32V328.685C2082.65 339.024 2072.79 347.05 2059.73 352.763C2046.81 358.477 2032.86 361.334 2017.9 361.334C2008.65 361.334 1999.87 360.041 1991.58 357.457C1983.41 355.008 1976.34 351.267 1970.35 346.234C1964.37 341.201 1959.54 335.011 1955.87 327.665C1952.33 320.183 1950.56 311.613 1950.56 301.955ZM2028.71 323.584C2037.01 323.584 2044.76 322.564 2051.97 320.523C2059.32 318.347 2065.78 315.422 2071.36 311.749C2076.94 307.94 2081.29 303.383 2084.42 298.078C2087.68 292.773 2089.32 286.923 2089.32 280.529V273.388C2082.65 272.299 2076.39 271.687 2070.54 271.551C2064.69 271.415 2059.52 271.347 2055.04 271.347C2034.36 271.347 2018.71 274.068 2008.1 279.509C1997.63 284.951 1992.39 291.684 1992.39 299.71C1992.39 315.626 2004.5 323.584 2028.71 323.584Z" fill="#2D2B2B"/>
<path d="M1456.76 701.59C1456.76 725.804 1448.53 744.033 1432.07 756.276C1415.61 768.519 1392.21 774.64 1361.87 774.64H1276.99V508.354H1357.18C1368.34 508.354 1379.29 509.306 1390.03 511.211C1400.78 512.979 1410.37 516.38 1418.8 521.413C1427.37 526.447 1434.31 533.52 1439.62 542.635C1444.92 551.613 1447.58 563.312 1447.58 577.731C1447.58 591.199 1444.11 603.51 1437.17 614.665C1430.37 625.819 1420.03 633.845 1406.15 638.743C1423.16 644.048 1435.81 651.462 1444.11 660.984C1452.54 670.506 1456.76 684.042 1456.76 701.59ZM1405.74 583.241C1405.74 575.487 1404.25 569.161 1401.26 564.264C1398.4 559.367 1394.66 555.626 1390.03 553.041C1385.41 550.32 1380.24 548.552 1374.53 547.736C1368.81 546.92 1363.03 546.512 1357.18 546.512H1319.23V619.97H1357.18C1363.03 619.97 1368.81 619.562 1374.53 618.746C1380.24 617.929 1385.41 616.229 1390.03 613.644C1394.66 610.924 1398.4 607.115 1401.26 602.217C1404.25 597.32 1405.74 590.995 1405.74 583.241ZM1414.93 697.305C1414.93 683.974 1410.23 674.111 1400.85 667.718C1391.6 661.324 1378.61 658.127 1361.87 658.127H1319.23V736.687H1361.87C1378.61 736.687 1391.6 733.49 1400.85 727.097C1410.23 720.567 1414.93 710.637 1414.93 697.305Z" fill="#2D2B2B"/>
<path d="M1533.89 695.673C1535.93 708.732 1542.12 719.615 1552.46 728.321C1562.93 736.891 1576.94 741.176 1594.49 741.176C1608.23 741.176 1620.13 739.068 1630.2 734.851C1640.4 730.497 1649.18 724.784 1656.52 717.71L1678.15 747.502C1665.91 759.745 1652.92 768.111 1639.18 772.6C1625.58 777.089 1610.68 779.334 1594.49 779.334C1579.8 779.334 1566.13 776.885 1553.48 771.988C1540.83 767.091 1529.88 760.289 1520.63 751.583C1511.38 742.74 1504.1 732.266 1498.79 720.159C1493.62 708.052 1491.04 694.584 1491.04 679.757C1491.04 665.337 1493.42 652.074 1498.18 639.967C1503.08 627.724 1509.88 617.181 1518.59 608.339C1527.43 599.361 1537.97 592.423 1550.21 587.526C1562.46 582.493 1575.99 579.976 1590.82 579.976C1606.19 579.976 1620.13 582.629 1632.65 587.934C1645.16 593.103 1655.84 600.653 1664.69 610.583C1673.66 620.514 1680.67 632.689 1685.7 647.109C1690.74 661.392 1693.25 677.58 1693.25 695.673H1533.89ZM1645.5 658.535C1643.33 646.292 1637 636.498 1626.53 629.152C1616.05 621.67 1604.15 617.929 1590.82 617.929C1577.49 617.929 1565.52 621.67 1554.91 629.152C1544.3 636.498 1537.9 646.292 1535.73 658.535H1645.5ZM1656.52 553.245L1640.2 574.058L1590.82 532.228L1540.62 574.466L1524.3 554.061L1590.41 489.173L1656.52 553.245Z" fill="#2D2B2B"/>
<path d="M1733.25 508.354H1775.49V601.605C1783.51 594.395 1791.61 589.022 1799.77 585.485C1808.07 581.812 1817.52 579.976 1828.13 579.976C1840.37 579.976 1851.73 582.493 1862.21 587.526C1872.68 592.423 1881.66 599.293 1889.14 608.135C1896.62 616.841 1902.54 627.384 1906.89 639.763C1911.25 652.006 1913.42 665.337 1913.42 679.757C1913.42 694.312 1911.25 707.712 1906.89 719.955C1902.54 732.198 1896.62 742.74 1889.14 751.583C1881.66 760.289 1872.68 767.091 1862.21 771.988C1851.73 776.885 1840.37 779.334 1828.13 779.334C1817.52 779.334 1808.07 777.429 1799.77 773.62C1791.61 769.811 1783.51 764.302 1775.49 757.092V774.64H1733.25V508.354ZM1775.49 724.036C1780.52 729.613 1786.91 733.898 1794.67 736.891C1802.56 739.748 1810.11 741.176 1817.32 741.176C1833.23 741.176 1846.15 735.531 1856.09 724.24C1866.15 712.949 1871.19 698.121 1871.19 679.757C1871.19 661.392 1866.15 646.496 1856.09 635.07C1846.15 623.643 1833.23 617.929 1817.32 617.929C1810.11 617.929 1802.56 619.426 1794.67 622.418C1786.91 625.275 1780.52 629.492 1775.49 635.07V724.036Z" fill="#2D2B2B"/>
<path d="M1950.56 719.955C1950.56 708.8 1953.55 699.074 1959.54 690.776C1965.52 682.341 1973.35 675.336 1983.01 669.758C1992.8 664.181 2003.95 660.032 2016.47 657.311C2029.12 654.454 2041.98 653.026 2055.04 653.026C2062.24 653.026 2068.43 653.162 2073.6 653.434C2078.77 653.706 2084.01 654.114 2089.32 654.659V647.109C2089.32 637.178 2085.44 629.764 2077.68 624.867C2070.07 619.97 2060 617.521 2047.49 617.521C2036.06 617.521 2024.43 619.154 2012.59 622.418C2000.76 625.547 1989.53 630.172 1978.92 636.294L1961.78 603.238C1974.3 596.028 1987.7 590.382 2001.98 586.301C2016.4 582.084 2031.57 579.976 2047.49 579.976C2057.82 579.976 2067.96 581.132 2077.89 583.445C2087.96 585.757 2096.93 589.566 2104.82 594.872C2112.85 600.177 2119.24 607.115 2124 615.685C2128.77 624.119 2131.15 634.594 2131.15 647.109V774.64H2089.32V746.685C2082.65 757.024 2072.79 765.05 2059.73 770.763C2046.81 776.477 2032.86 779.334 2017.9 779.334C2008.65 779.334 1999.87 778.041 1991.58 775.457C1983.41 773.008 1976.34 769.267 1970.35 764.234C1964.37 759.201 1959.54 753.011 1955.87 745.665C1952.33 738.183 1950.56 729.613 1950.56 719.955ZM2028.71 741.584C2037.01 741.584 2044.76 740.564 2051.97 738.523C2059.32 736.347 2065.78 733.422 2071.36 729.749C2076.94 725.94 2081.29 721.383 2084.42 716.078C2087.68 710.772 2089.32 704.923 2089.32 698.529V691.388C2082.65 690.299 2076.39 689.687 2070.54 689.551C2064.69 689.415 2059.52 689.347 2055.04 689.347C2034.36 689.347 2018.71 692.068 2008.1 697.509C1997.63 702.951 1992.39 709.684 1992.39 717.71C1992.39 733.626 2004.5 741.584 2028.71 741.584Z" fill="#2D2B2B"/>
<path d="M2359.68 774.64H2317.44V757.092C2309.28 764.302 2301.05 769.811 2292.75 773.62C2284.46 777.429 2275 779.334 2264.39 779.334C2252.15 779.334 2240.79 776.885 2230.31 771.988C2219.84 767.091 2210.79 760.289 2203.18 751.583C2195.69 742.74 2189.78 732.198 2185.42 719.955C2181.21 707.712 2179.1 694.312 2179.1 679.757C2179.1 665.337 2181.21 652.006 2185.42 639.763C2189.78 627.384 2195.69 616.841 2203.18 608.135C2210.79 599.293 2219.84 592.423 2230.31 587.526C2240.79 582.493 2252.15 579.976 2264.39 579.976C2275 579.976 2284.46 581.812 2292.75 585.485C2301.05 589.022 2309.28 594.395 2317.44 601.605V546.512H2280.72V508.354H2359.68V774.64ZM2317.44 635.07C2312.41 629.492 2305.88 625.275 2297.86 622.418C2289.97 619.426 2282.42 617.929 2275.21 617.929C2259.29 617.929 2246.3 623.643 2236.23 635.07C2226.3 646.496 2221.34 661.392 2221.34 679.757C2221.34 698.121 2226.3 712.949 2236.23 724.24C2246.3 735.531 2259.29 741.176 2275.21 741.176C2282.42 741.176 2289.97 739.748 2297.86 736.891C2305.88 733.898 2312.41 729.613 2317.44 724.036V635.07Z" fill="#2D2B2B"/>
<path d="M2602.71 679.757C2602.71 694.584 2600.33 708.052 2595.57 720.159C2590.94 732.266 2584.21 742.74 2575.36 751.583C2566.66 760.289 2556.18 767.091 2543.94 771.988C2531.7 776.885 2518.03 779.334 2502.93 779.334C2488.1 779.334 2474.56 776.885 2462.32 771.988C2450.08 767.091 2439.54 760.289 2430.69 751.583C2421.99 742.74 2415.25 732.266 2410.49 720.159C2405.87 708.052 2403.55 694.584 2403.55 679.757C2403.55 665.337 2405.87 652.006 2410.49 639.763C2415.25 627.384 2421.99 616.773 2430.69 607.931C2439.54 598.953 2450.08 592.083 2462.32 587.322C2474.56 582.424 2488.1 579.976 2502.93 579.976C2518.03 579.976 2531.7 582.424 2543.94 587.322C2556.18 592.083 2566.66 598.953 2575.36 607.931C2584.21 616.773 2590.94 627.384 2595.57 639.763C2600.33 652.006 2602.71 665.337 2602.71 679.757ZM2560.67 679.757C2560.67 671.187 2559.31 663.093 2556.59 655.475C2554.01 647.721 2550.2 641.123 2545.17 635.682C2540.13 630.24 2534.01 625.955 2526.8 622.827C2519.73 619.562 2511.77 617.929 2502.93 617.929C2493.95 617.929 2485.92 619.562 2478.85 622.827C2471.78 625.955 2465.79 630.24 2460.89 635.682C2456 641.123 2452.19 647.721 2449.47 655.475C2446.88 663.093 2445.59 671.187 2445.59 679.757C2445.59 688.735 2446.88 696.897 2449.47 704.243C2452.19 711.589 2456 718.05 2460.89 723.628C2465.79 729.205 2471.78 733.558 2478.85 736.687C2485.92 739.68 2493.95 741.176 2502.93 741.176C2511.77 741.176 2519.73 739.68 2526.8 736.687C2534.01 733.558 2540.13 729.205 2545.17 723.628C2550.2 718.05 2554.01 711.589 2556.59 704.243C2559.31 696.897 2560.67 688.735 2560.67 679.757Z" fill="#2D2B2B"/>
<line x1="1114" y1="15" x2="1114" y2="1285" stroke="black" stroke-width="30" stroke-linecap="round"/>
<path d="M1343.84 935.779C1343.84 940.174 1343.09 944.104 1341.57 947.571C1340.11 950.989 1338.08 953.895 1335.5 956.287C1332.96 958.68 1329.9 960.511 1326.34 961.78C1322.82 963.05 1319.06 963.685 1315.06 963.685C1310.57 963.685 1306.52 962.879 1302.9 961.268C1299.29 959.656 1296.19 956.995 1293.6 953.284V962H1279.98V930.799H1293.6C1293.6 933.924 1294.14 936.683 1295.21 939.075C1296.33 941.468 1297.8 943.494 1299.61 945.154C1301.41 946.766 1303.51 948.011 1305.91 948.89C1308.3 949.72 1310.84 950.135 1313.52 950.135C1318.06 950.135 1321.73 949.085 1324.51 946.985C1327.29 944.886 1328.68 941.541 1328.68 936.951C1328.68 934.559 1328.24 932.508 1327.37 930.799C1326.54 929.09 1325.31 927.576 1323.7 926.258C1322.14 924.891 1320.21 923.719 1317.92 922.742C1315.62 921.717 1313.01 920.643 1310.08 919.52C1306.61 918.348 1303.15 917.029 1299.68 915.564C1296.21 914.1 1293.11 912.293 1290.38 910.145C1287.64 907.996 1285.42 905.359 1283.71 902.234C1282 899.061 1281.15 895.081 1281.15 890.296C1281.15 886.097 1281.91 882.435 1283.42 879.31C1284.98 876.136 1287.03 873.475 1289.57 871.326C1292.16 869.178 1295.14 867.566 1298.51 866.492C1301.93 865.369 1305.54 864.808 1309.35 864.808C1313.74 864.808 1317.5 865.735 1320.63 867.591C1323.8 869.446 1326.24 871.912 1327.95 874.988V866.419H1341.57V896.155H1327.95C1327.95 890.54 1326.46 886.17 1323.48 883.045C1320.55 879.871 1316.6 878.284 1311.62 878.284C1307.22 878.284 1303.56 879.31 1300.63 881.36C1297.75 883.411 1296.31 886.292 1296.31 890.003C1296.31 891.907 1296.68 893.543 1297.41 894.91C1298.19 896.229 1299.29 897.449 1300.71 898.572C1302.17 899.646 1304 900.672 1306.2 901.648C1308.4 902.576 1310.93 903.602 1313.82 904.725C1317.43 905.994 1321.02 907.435 1324.58 909.046C1328.15 910.657 1331.34 912.635 1334.18 914.979C1337.01 917.322 1339.33 920.179 1341.13 923.548C1342.94 926.868 1343.84 930.945 1343.84 935.779ZM1417.47 914.173C1417.47 907.776 1418.15 901.6 1419.52 895.643C1420.89 889.686 1423.01 884.437 1425.89 879.896C1428.77 875.354 1432.53 871.717 1437.17 868.982C1441.86 866.199 1447.5 864.808 1454.09 864.808C1460.68 864.808 1466.3 866.199 1470.93 868.982C1475.62 871.717 1479.43 875.354 1482.36 879.896C1485.29 884.437 1487.41 889.686 1488.73 895.643C1490.05 901.6 1490.71 907.776 1490.71 914.173C1490.71 920.569 1490.05 926.746 1488.73 932.703C1487.41 938.611 1485.31 943.885 1482.43 948.523C1479.55 953.113 1475.77 956.8 1471.08 959.583C1466.44 962.317 1460.78 963.685 1454.09 963.685C1447.4 963.685 1441.71 962.317 1437.02 959.583C1432.38 956.8 1428.6 953.113 1425.67 948.523C1422.79 943.885 1420.71 938.611 1419.45 932.703C1418.13 926.746 1417.47 920.569 1417.47 914.173ZM1432.63 914.173C1432.63 918.47 1432.95 922.767 1433.58 927.063C1434.26 931.36 1435.39 935.218 1436.95 938.636C1438.56 942.005 1440.73 944.739 1443.47 946.839C1446.25 948.938 1449.79 949.988 1454.09 949.988C1458.39 949.988 1461.9 948.938 1464.64 946.839C1467.42 944.739 1469.59 942.005 1471.15 938.636C1472.77 935.218 1473.89 931.36 1474.52 927.063C1475.21 922.767 1475.55 918.47 1475.55 914.173C1475.55 909.876 1475.21 905.604 1474.52 901.355C1473.89 897.107 1472.77 893.274 1471.15 889.856C1469.59 886.438 1467.39 883.68 1464.56 881.58C1461.78 879.48 1458.29 878.431 1454.09 878.431C1447.11 878.431 1441.78 881.58 1438.12 887.879C1434.46 894.178 1432.63 902.942 1432.63 914.173ZM1471.96 845.105L1440.32 862.977L1433.8 852.942L1463.39 831.922L1471.96 845.105ZM1773.23 962H1754.04L1729.29 923.328H1722.4V962H1707.24V866.419H1738.74C1749.24 866.419 1757.39 868.836 1763.2 873.67C1769.01 878.455 1771.92 885.56 1771.92 894.983C1771.92 899.183 1771.26 902.894 1769.94 906.116C1768.67 909.29 1766.84 912.024 1764.45 914.319C1762.1 916.614 1759.34 918.445 1756.17 919.812C1753.04 921.131 1749.65 922.034 1745.99 922.522L1773.23 962ZM1756.75 894.764C1756.75 889.881 1755.14 886.219 1751.92 883.777C1748.75 881.336 1744.35 880.115 1738.74 880.115H1722.4V909.632H1738.74C1744.35 909.632 1748.75 908.411 1751.92 905.97C1755.14 903.528 1756.75 899.793 1756.75 894.764ZM1910.21 962H1849.13V866.419H1910.21V880.115H1864.29V906.482H1900.1V920.179H1864.29V948.377H1910.21V962ZM2059.42 914.466C2059.42 920.96 2058.76 927.161 2057.44 933.069C2056.17 938.978 2054.05 944.202 2051.07 948.743C2048.14 953.284 2044.33 956.922 2039.65 959.656C2035.01 962.342 2029.34 963.685 2022.65 963.685C2015.96 963.685 2010.3 962.317 2005.66 959.583C2001.02 956.8 1997.21 953.138 1994.24 948.597C1991.31 944.056 1989.18 938.807 1987.86 932.85C1986.59 926.893 1985.96 920.716 1985.96 914.319C1985.96 907.923 1986.59 901.746 1987.86 895.789C1989.18 889.832 1991.31 884.559 1994.24 879.969C1997.21 875.379 2001.02 871.717 2005.66 868.982C2010.3 866.199 2015.96 864.808 2022.65 864.808C2024.56 864.808 2026.51 865.076 2028.51 865.613C2030.51 866.15 2032.42 866.98 2034.23 868.104C2036.03 869.178 2037.62 870.521 2038.99 872.132C2040.4 873.743 2041.4 875.599 2041.99 877.698V866.419H2055.69V900.33H2041.99C2041.99 897.352 2041.53 894.544 2040.6 891.907C2039.67 889.222 2038.35 886.878 2036.64 884.876C2034.93 882.874 2032.88 881.312 2030.49 880.188C2028.1 879.017 2025.49 878.431 2022.65 878.431C2018.36 878.431 2014.84 879.505 2012.11 881.653C2009.37 883.802 2007.17 886.585 2005.51 890.003C2003.85 893.421 2002.68 897.254 2002 901.502C2001.36 905.75 2001.05 910.022 2001.05 914.319C2001.05 918.616 2001.36 922.889 2002 927.137C2002.68 931.385 2003.83 935.218 2005.44 938.636C2007.05 942.005 2009.25 944.739 2012.03 946.839C2014.82 948.938 2018.36 949.988 2022.65 949.988C2028.85 949.988 2033.86 948.011 2037.67 944.056C2041.48 940.101 2044.09 933.973 2045.5 925.672H2025.36V912.049H2059.42V914.466ZM2186.58 962H2140.73V948.377H2155.82V880.115H2140.73V866.419H2186.58V880.115H2170.98V948.377H2186.58V962ZM2337.04 935.779C2337.04 940.174 2336.28 944.104 2334.77 947.571C2333.3 950.989 2331.28 953.895 2328.69 956.287C2326.15 958.68 2323.1 960.511 2319.53 961.78C2316.02 963.05 2312.26 963.685 2308.25 963.685C2303.76 963.685 2299.71 962.879 2296.1 961.268C2292.48 959.656 2289.38 956.995 2286.79 953.284V962H2273.17V930.799H2286.79C2286.79 933.924 2287.33 936.683 2288.41 939.075C2289.53 941.468 2290.99 943.494 2292.8 945.154C2294.61 946.766 2296.71 948.011 2299.1 948.89C2301.49 949.72 2304.03 950.135 2306.72 950.135C2311.26 950.135 2314.92 949.085 2317.7 946.985C2320.49 944.886 2321.88 941.541 2321.88 936.951C2321.88 934.559 2321.44 932.508 2320.56 930.799C2319.73 929.09 2318.51 927.576 2316.9 926.258C2315.33 924.891 2313.41 923.719 2311.11 922.742C2308.82 921.717 2306.2 920.643 2303.27 919.52C2299.81 918.348 2296.34 917.029 2292.87 915.564C2289.41 914.1 2286.31 912.293 2283.57 910.145C2280.84 907.996 2278.62 905.359 2276.91 902.234C2275.2 899.061 2274.34 895.081 2274.34 890.296C2274.34 886.097 2275.1 882.435 2276.61 879.31C2278.18 876.136 2280.23 873.475 2282.77 871.326C2285.35 869.178 2288.33 867.566 2291.7 866.492C2295.12 865.369 2298.73 864.808 2302.54 864.808C2306.94 864.808 2310.7 865.735 2313.82 867.591C2316.99 869.446 2319.44 871.912 2321.14 874.988V866.419H2334.77V896.155H2321.14C2321.14 890.54 2319.66 886.17 2316.68 883.045C2313.75 879.871 2309.79 878.284 2304.81 878.284C2300.42 878.284 2296.75 879.31 2293.83 881.36C2290.94 883.411 2289.5 886.292 2289.5 890.003C2289.5 891.907 2289.87 893.543 2290.6 894.91C2291.38 896.229 2292.48 897.449 2293.9 898.572C2295.36 899.646 2297.19 900.672 2299.39 901.648C2301.59 902.576 2304.13 903.602 2307.01 904.725C2310.62 905.994 2314.21 907.435 2317.78 909.046C2321.34 910.657 2324.54 912.635 2327.37 914.979C2330.2 917.322 2332.52 920.179 2334.33 923.548C2336.13 926.868 2337.04 930.945 2337.04 935.779ZM2481.19 901.282H2467.64V880.115H2454.75V948.377H2469.91V962H2424.5V948.377H2439.59V880.115H2426.55V901.282H2413.08V866.419H2481.19V901.282ZM2624.54 962H2605.35L2580.6 923.328H2573.71V962H2558.55V866.419H2590.05C2600.54 866.419 2608.7 868.836 2614.51 873.67C2620.32 878.455 2623.22 885.56 2623.22 894.983C2623.22 899.183 2622.57 902.894 2621.25 906.116C2619.98 909.29 2618.15 912.024 2615.75 914.319C2613.41 916.614 2610.65 918.445 2607.48 919.812C2604.35 921.131 2600.96 922.034 2597.3 922.522L2624.54 962ZM2608.06 894.764C2608.06 889.881 2606.45 886.219 2603.23 883.777C2600.06 881.336 2595.66 880.115 2590.05 880.115H2573.71V909.632H2590.05C2595.66 909.632 2600.06 908.411 2603.23 905.97C2606.45 903.528 2608.06 899.793 2608.06 894.764ZM2694.43 914.173C2694.43 907.776 2695.11 901.6 2696.48 895.643C2697.85 889.686 2699.97 884.437 2702.85 879.896C2705.73 875.354 2709.49 871.717 2714.13 868.982C2718.82 866.199 2724.46 864.808 2731.05 864.808C2737.64 864.808 2743.26 866.199 2747.9 868.982C2752.58 871.717 2756.39 875.354 2759.32 879.896C2762.25 884.437 2764.38 889.686 2765.7 895.643C2767.01 901.6 2767.67 907.776 2767.67 914.173C2767.67 920.569 2767.01 926.746 2765.7 932.703C2764.38 938.611 2762.28 943.885 2759.4 948.523C2756.52 953.113 2752.73 956.8 2748.04 959.583C2743.41 962.317 2737.74 963.685 2731.05 963.685C2724.36 963.685 2718.67 962.317 2713.99 959.583C2709.35 956.8 2705.56 953.113 2702.63 948.523C2699.75 943.885 2697.68 938.611 2696.41 932.703C2695.09 926.746 2694.43 920.569 2694.43 914.173ZM2709.59 914.173C2709.59 918.47 2709.91 922.767 2710.54 927.063C2711.23 931.36 2712.35 935.218 2713.91 938.636C2715.52 942.005 2717.7 944.739 2720.43 946.839C2723.21 948.938 2726.75 949.988 2731.05 949.988C2735.35 949.988 2738.86 948.938 2741.6 946.839C2744.38 944.739 2746.55 942.005 2748.12 938.636C2749.73 935.218 2750.85 931.36 2751.49 927.063C2752.17 922.767 2752.51 918.47 2752.51 914.173C2752.51 909.876 2752.17 905.604 2751.49 901.355C2750.85 897.107 2749.73 893.274 2748.12 889.856C2746.55 886.438 2744.36 883.68 2741.53 881.58C2738.74 879.48 2735.25 878.431 2731.05 878.431C2724.07 878.431 2718.75 881.58 2715.08 887.879C2711.42 894.178 2709.59 902.942 2709.59 914.173ZM2904.58 935.779C2904.58 940.174 2903.82 944.104 2902.31 947.571C2900.84 950.989 2898.82 953.895 2896.23 956.287C2893.69 958.68 2890.64 960.511 2887.07 961.78C2883.56 963.05 2879.8 963.685 2875.79 963.685C2871.3 963.685 2867.25 962.879 2863.63 961.268C2860.02 959.656 2856.92 956.995 2854.33 953.284V962H2840.71V930.799H2854.33C2854.33 933.924 2854.87 936.683 2855.94 939.075C2857.07 941.468 2858.53 943.494 2860.34 945.154C2862.15 946.766 2864.25 948.011 2866.64 948.89C2869.03 949.72 2871.57 950.135 2874.25 950.135C2878.8 950.135 2882.46 949.085 2885.24 946.985C2888.02 944.886 2889.42 941.541 2889.42 936.951C2889.42 934.559 2888.98 932.508 2888.1 930.799C2887.27 929.09 2886.05 927.576 2884.44 926.258C2882.87 924.891 2880.94 923.719 2878.65 922.742C2876.35 921.717 2873.74 920.643 2870.81 919.52C2867.35 918.348 2863.88 917.029 2860.41 915.564C2856.95 914.1 2853.84 912.293 2851.11 910.145C2848.38 907.996 2846.15 905.359 2844.45 902.234C2842.74 899.061 2841.88 895.081 2841.88 890.296C2841.88 886.097 2842.64 882.435 2844.15 879.31C2845.71 876.136 2847.77 873.475 2850.3 871.326C2852.89 869.178 2855.87 867.566 2859.24 866.492C2862.66 865.369 2866.27 864.808 2870.08 864.808C2874.47 864.808 2878.23 865.735 2881.36 867.591C2884.53 869.446 2886.97 871.912 2888.68 874.988V866.419H2902.31V896.155H2888.68C2888.68 890.54 2887.19 886.17 2884.22 883.045C2881.29 879.871 2877.33 878.284 2872.35 878.284C2867.96 878.284 2864.29 879.31 2861.36 881.36C2858.48 883.411 2857.04 886.292 2857.04 890.003C2857.04 891.907 2857.41 893.543 2858.14 894.91C2858.92 896.229 2860.02 897.449 2861.44 898.572C2862.9 899.646 2864.73 900.672 2866.93 901.648C2869.13 902.576 2871.67 903.602 2874.55 904.725C2878.16 905.994 2881.75 907.435 2885.31 909.046C2888.88 910.657 2892.08 912.635 2894.91 914.979C2897.74 917.322 2900.06 920.179 2901.87 923.548C2903.67 926.868 2904.58 930.945 2904.58 935.779ZM1349.41 1139.17C1349.41 1145.57 1348.73 1151.67 1347.36 1157.48C1346.04 1163.25 1343.89 1168.32 1340.92 1172.72C1337.99 1177.06 1334.18 1180.53 1329.49 1183.12C1324.85 1185.71 1319.24 1187 1312.64 1187H1281.59V1091.42H1312.64C1319.14 1091.42 1324.7 1092.74 1329.34 1095.37C1334.03 1097.96 1337.84 1101.43 1340.77 1105.77C1343.75 1110.12 1345.92 1115.17 1347.29 1120.94C1348.7 1126.7 1349.41 1132.78 1349.41 1139.17ZM1334.25 1139.17C1334.25 1128.14 1332.37 1119.71 1328.61 1113.9C1324.85 1108.04 1319.53 1105.12 1312.64 1105.12H1296.75V1173.38H1312.64C1319.53 1173.38 1324.85 1170.4 1328.61 1164.44C1332.37 1158.48 1334.25 1150.06 1334.25 1139.17ZM1484.56 1187H1423.47V1091.42H1484.56V1105.12H1438.63V1131.48H1474.45V1145.18H1438.63V1173.38H1484.56V1187ZM1771.77 1160.78C1771.77 1169.47 1768.82 1176.01 1762.91 1180.41C1757 1184.8 1748.6 1187 1737.71 1187H1707.24V1091.42H1736.03C1740.03 1091.42 1743.96 1091.76 1747.82 1092.44C1751.68 1093.08 1755.12 1094.3 1758.15 1096.11C1761.22 1097.91 1763.71 1100.45 1765.62 1103.72C1767.52 1106.95 1768.47 1111.15 1768.47 1116.32C1768.47 1121.16 1767.23 1125.57 1764.74 1129.58C1762.3 1133.58 1758.59 1136.46 1753.61 1138.22C1759.71 1140.12 1764.25 1142.79 1767.23 1146.2C1770.26 1149.62 1771.77 1154.48 1771.77 1160.78ZM1753.46 1118.3C1753.46 1115.52 1752.92 1113.25 1751.85 1111.49C1750.82 1109.73 1749.48 1108.39 1747.82 1107.46C1746.16 1106.48 1744.3 1105.85 1742.25 1105.55C1740.2 1105.26 1738.13 1105.12 1736.03 1105.12H1722.4V1131.48H1736.03C1738.13 1131.48 1740.2 1131.34 1742.25 1131.04C1744.3 1130.75 1746.16 1130.14 1747.82 1129.21C1749.48 1128.24 1750.82 1126.87 1751.85 1125.11C1752.92 1123.35 1753.46 1121.08 1753.46 1118.3ZM1756.75 1159.24C1756.75 1154.46 1755.07 1150.92 1751.7 1148.62C1748.38 1146.33 1743.72 1145.18 1737.71 1145.18H1722.4V1173.38H1737.71C1743.72 1173.38 1748.38 1172.23 1751.7 1169.93C1755.07 1167.59 1756.75 1164.03 1756.75 1159.24ZM1910.21 1187H1849.13V1091.42H1910.21V1105.12H1864.29V1131.48H1900.1V1145.18H1864.29V1173.38H1910.21V1187ZM2055.54 1160.78C2055.54 1169.47 2052.58 1176.01 2046.68 1180.41C2040.77 1184.8 2032.37 1187 2021.48 1187H1991.01V1091.42H2019.8C2023.8 1091.42 2027.73 1091.76 2031.59 1092.44C2035.45 1093.08 2038.89 1094.3 2041.92 1096.11C2044.99 1097.91 2047.48 1100.45 2049.39 1103.72C2051.29 1106.95 2052.24 1111.15 2052.24 1116.32C2052.24 1121.16 2051 1125.57 2048.51 1129.58C2046.07 1133.58 2042.36 1136.46 2037.38 1138.22C2043.48 1140.12 2048.02 1142.79 2051 1146.2C2054.03 1149.62 2055.54 1154.48 2055.54 1160.78ZM2037.23 1118.3C2037.23 1115.52 2036.69 1113.25 2035.62 1111.49C2034.59 1109.73 2033.25 1108.39 2031.59 1107.46C2029.93 1106.48 2028.07 1105.85 2026.02 1105.55C2023.97 1105.26 2021.9 1105.12 2019.8 1105.12H2006.17V1131.48H2019.8C2021.9 1131.48 2023.97 1131.34 2026.02 1131.04C2028.07 1130.75 2029.93 1130.14 2031.59 1129.21C2033.25 1128.24 2034.59 1126.87 2035.62 1125.11C2036.69 1123.35 2037.23 1121.08 2037.23 1118.3ZM2040.52 1159.24C2040.52 1154.46 2038.84 1150.92 2035.47 1148.62C2032.15 1146.33 2027.49 1145.18 2021.48 1145.18H2006.17V1173.38H2021.48C2027.49 1173.38 2032.15 1172.23 2035.47 1169.93C2038.84 1167.59 2040.52 1164.03 2040.52 1159.24ZM2193.98 1187H2132.9V1091.42H2193.98V1105.12H2148.06V1131.48H2183.87V1145.18H2148.06V1173.38H2193.98V1187ZM2342.6 1139.17C2342.6 1145.57 2341.92 1151.67 2340.55 1157.48C2339.24 1163.25 2337.09 1168.32 2334.11 1172.72C2331.18 1177.06 2327.37 1180.53 2322.68 1183.12C2318.04 1185.71 2312.43 1187 2305.84 1187H2274.78V1091.42H2305.84C2312.33 1091.42 2317.9 1092.74 2322.54 1095.37C2327.22 1097.96 2331.03 1101.43 2333.96 1105.77C2336.94 1110.12 2339.11 1115.17 2340.48 1120.94C2341.9 1126.7 2342.6 1132.78 2342.6 1139.17ZM2327.44 1139.17C2327.44 1128.14 2325.56 1119.71 2321.8 1113.9C2318.04 1108.04 2312.72 1105.12 2305.84 1105.12H2289.94V1173.38H2305.84C2312.72 1173.38 2318.04 1170.4 2321.8 1164.44C2325.56 1158.48 2327.44 1150.06 2327.44 1139.17ZM2477.75 1187H2416.67V1091.42H2477.75V1105.12H2431.83V1131.48H2467.64V1145.18H2431.83V1173.38H2477.75V1187ZM2612.24 1187H2566.39V1173.38H2581.48V1105.12H2566.39V1091.42H2612.24V1105.12H2596.64V1173.38H2612.24V1187ZM2766.43 1187H2747.24L2722.48 1148.33H2715.6V1187H2700.44V1091.42H2731.93C2742.43 1091.42 2750.58 1093.84 2756.39 1098.67C2762.2 1103.46 2765.11 1110.56 2765.11 1119.98C2765.11 1124.18 2764.45 1127.89 2763.13 1131.12C2761.86 1134.29 2760.03 1137.02 2757.64 1139.32C2755.29 1141.61 2752.54 1143.45 2749.36 1144.81C2746.24 1146.13 2742.84 1147.03 2739.18 1147.52L2766.43 1187ZM2749.95 1119.76C2749.95 1114.88 2748.34 1111.22 2745.11 1108.78C2741.94 1106.34 2737.55 1105.12 2731.93 1105.12H2715.6V1134.63H2731.93C2737.55 1134.63 2741.94 1133.41 2745.11 1130.97C2748.34 1128.53 2749.95 1124.79 2749.95 1119.76ZM2895.57 1187L2888.68 1164.22H2857.04L2850.3 1187H2834.41L2864.22 1091.42H2881.65L2911.46 1187H2895.57ZM2861.07 1150.82H2884.66L2872.94 1111.41L2861.07 1150.82Z" fill="#1B2DDD"/>
</svg>
