<svg width="3000" height="1300" viewBox="0 0 3000 1300" fill="none" xmlns="http://www.w3.org/2000/svg">
<path d="M499.991 1149.62C776.129 1149.62 999.982 925.769 999.982 649.632C999.982 373.494 776.129 149.64 499.991 149.64C223.854 149.64 0 373.494 0 649.632C0 925.769 223.854 1149.62 499.991 1149.62Z" fill="#394CE2"/>
<path d="M999.969 651.77L742.27 394.074C729.524 378.4 710.09 368.38 688.313 368.38C688.122 368.38 687.932 368.39 687.737 368.392L658.395 339.193C639.774 317.779 612.352 304.228 581.745 304.228C564.331 304.228 547.954 308.628 533.632 316.351L510.204 293.158C486.675 266.88 452.515 250.326 414.464 250.326C351.767 250.326 299.583 295.22 288.234 354.611C281.351 352.667 274.097 351.607 266.591 351.607C222.64 351.607 187.013 387.236 187.013 431.185C187.013 455.737 198.136 477.689 215.613 492.284L258.617 535.634V906.135C258.617 940.49 273.822 971.447 297.814 992.672L452.52 1147.38C468.151 1148.85 483.981 1149.64 499.995 1149.64C775.426 1149.64 998.816 926.93 999.969 651.77Z" fill="#1B2DDD"/>
<path d="M800.869 547.874H721.043V499.239C742.938 487.534 757.836 464.46 757.836 437.9C757.836 399.505 726.709 368.378 688.315 368.378C684.315 368.378 680.401 368.736 676.586 369.382C661.936 331.281 625.012 304.226 581.749 304.226C562.178 304.226 543.909 309.773 528.401 319.361C506.929 278.337 463.979 250.326 414.466 250.326C351.769 250.326 299.585 295.22 288.236 354.611C281.353 352.667 274.099 351.607 266.593 351.607C222.642 351.607 187.015 387.236 187.015 431.185C187.015 472.441 218.414 506.362 258.617 510.362V906.133C258.617 969.715 310.64 1021.74 374.226 1021.74H605.438C669.022 1021.74 721.045 969.717 721.045 906.133V902.508H800.871C835.781 902.508 864.18 874.108 864.18 839.2V611.184C864.178 576.274 835.78 547.874 800.869 547.874ZM803.621 839.202C803.621 840.643 802.309 841.956 800.867 841.956H721.043V608.431H800.869C802.311 608.431 803.623 609.743 803.623 611.184V839.202H803.621Z" fill="white"/>
<path d="M800.869 547.874H721.043V499.239C742.938 487.534 757.836 464.46 757.836 437.9C757.836 399.505 726.709 368.378 688.315 368.378C684.315 368.378 680.401 368.736 676.586 369.382C661.936 331.281 625.012 304.226 581.749 304.226C562.178 304.226 543.909 309.773 528.401 319.361C519.141 301.669 505.882 286.408 489.831 274.759V1021.74H605.438C669.022 1021.74 721.045 969.715 721.045 906.131V902.506H800.872C835.782 902.506 864.18 874.106 864.18 839.198L864.18 611.184C864.178 576.274 835.78 547.874 800.869 547.874ZM803.621 839.202C803.621 840.643 802.309 841.956 800.867 841.956H721.043V608.431H800.869C802.311 608.431 803.623 609.743 803.623 611.184V839.202H803.621Z" fill="#E1E1E3"/>
<path d="M374.224 1021.74H605.438C669.022 1021.74 721.045 969.719 721.045 906.135V547.876H258.617L258.617 906.135C258.617 969.719 310.64 1021.74 374.224 1021.74Z" fill="#FFA91F"/>
<path d="M489.831 547.874V1021.74L605.438 1021.74C669.022 1021.74 721.045 969.719 721.045 906.135V547.876H489.831V547.874Z" fill="#FF8800"/>
<path d="M366.476 941.879H363.519C344.847 941.879 329.572 926.604 329.572 907.932V688.317C329.572 669.645 344.847 654.37 363.519 654.37H366.476C385.148 654.37 400.423 669.645 400.423 688.317V907.93C400.423 926.604 385.148 941.879 366.476 941.879Z" fill="#E67500"/>
<path d="M491.31 941.879H488.353C469.681 941.879 454.405 926.604 454.405 907.932V688.317C454.405 669.645 469.681 654.37 488.353 654.37H491.31C509.982 654.37 525.257 669.645 525.257 688.317V907.93C525.257 926.604 509.98 941.879 491.31 941.879Z" fill="#E67500"/>
<path d="M491.309 654.372H489.829V941.879L491.31 941.879C509.982 941.879 525.257 926.604 525.257 907.932L525.257 688.317C525.257 669.645 509.979 654.372 491.309 654.372Z" fill="#C06100"/>
<path d="M616.141 941.879H613.184C594.512 941.879 579.237 926.604 579.237 907.932V688.317C579.237 669.645 594.512 654.37 613.184 654.37H616.141C634.813 654.37 650.088 669.645 650.088 688.317V907.93C650.09 926.604 634.813 941.879 616.141 941.879Z" fill="#C06100"/>
<path d="M1465.94 208.395C1465.94 226.216 1464.04 243.22 1460.23 259.408C1456.55 275.46 1450.57 289.607 1442.27 301.851C1434.11 313.958 1423.5 323.616 1410.44 330.826C1397.51 338.036 1381.87 341.64 1363.51 341.64H1276.99V75.354H1363.51C1381.6 75.354 1397.11 79.0269 1410.03 86.3727C1423.09 93.5825 1433.7 103.241 1441.86 115.348C1450.16 127.455 1456.21 141.535 1460.02 157.587C1463.97 173.639 1465.94 190.575 1465.94 208.395ZM1423.7 208.395C1423.7 177.652 1418.46 154.186 1407.99 137.998C1397.51 121.674 1382.69 113.512 1363.51 113.512H1319.23V303.687H1363.51C1382.69 303.687 1397.51 295.389 1407.99 278.793C1418.46 262.197 1423.7 238.731 1423.7 208.395Z" fill="white"/>
<path d="M1494.3 286.955C1494.3 275.8 1497.3 266.074 1503.28 257.776C1509.27 249.341 1517.09 242.336 1526.75 236.758C1536.54 231.181 1547.7 227.032 1560.21 224.311C1572.86 221.454 1585.72 220.026 1598.78 220.026C1605.99 220.026 1612.18 220.162 1617.35 220.434C1622.51 220.706 1627.75 221.114 1633.06 221.659V214.109C1633.06 204.178 1629.18 196.764 1621.43 191.867C1613.81 186.97 1603.74 184.521 1591.23 184.521C1579.8 184.521 1568.17 186.154 1556.33 189.418C1544.5 192.547 1533.28 197.172 1522.67 203.294L1505.53 170.238C1518.04 163.028 1531.44 157.382 1545.72 153.301C1560.14 149.084 1575.31 146.976 1591.23 146.976C1601.57 146.976 1611.7 148.132 1621.63 150.445C1631.7 152.757 1640.68 156.566 1648.57 161.872C1656.59 167.177 1662.99 174.115 1667.75 182.685C1672.51 191.119 1674.89 201.594 1674.89 214.109V341.64H1633.06V313.685C1626.39 324.024 1616.53 332.05 1603.47 337.763C1590.55 343.477 1576.6 346.334 1561.64 346.334C1552.39 346.334 1543.62 345.041 1535.32 342.457C1527.16 340.008 1520.08 336.267 1514.1 331.234C1508.11 326.201 1503.28 320.011 1499.61 312.665C1496.07 305.183 1494.3 296.613 1494.3 286.955ZM1572.45 308.584C1580.75 308.584 1588.51 307.564 1595.72 305.523C1603.06 303.347 1609.52 300.422 1615.1 296.749C1620.68 292.94 1625.03 288.383 1628.16 283.078C1631.43 277.773 1633.06 271.923 1633.06 265.529V258.388C1626.39 257.299 1620.13 256.687 1614.28 256.551C1608.44 256.415 1603.27 256.347 1598.78 256.347C1578.1 256.347 1562.46 259.068 1551.85 264.509C1541.37 269.951 1536.13 276.684 1536.13 284.71C1536.13 300.626 1548.24 308.584 1572.45 308.584Z" fill="white"/>
<path d="M1915.46 281.037C1913.29 301.034 1905.4 316.95 1891.79 328.785C1878.33 340.484 1861.46 346.334 1841.19 346.334C1830.03 346.334 1819.83 344.497 1810.58 340.824C1801.33 337.151 1793.44 332.05 1786.91 325.52C1780.38 318.991 1775.28 311.169 1771.61 302.055C1768.07 292.804 1766.3 282.738 1766.3 271.855V189.623H1723.25V151.465H1766.3V75.354H1808.54V151.465H1888.33V189.623H1808.54V271.855C1808.54 284.098 1811.53 293.212 1817.52 299.198C1823.51 305.183 1831.4 308.176 1841.19 308.176C1853.16 308.176 1862.07 304.707 1867.92 297.77C1873.77 290.832 1877.24 282.466 1878.33 272.671L1915.46 281.037Z" fill="white"/>
<path d="M1950.56 286.955C1950.56 275.8 1953.55 266.074 1959.54 257.776C1965.52 249.341 1973.35 242.336 1983.01 236.758C1992.8 231.181 2003.95 227.032 2016.47 224.311C2029.12 221.454 2041.98 220.026 2055.03 220.026C2062.24 220.026 2068.43 220.162 2073.6 220.434C2078.77 220.706 2084.01 221.114 2089.32 221.659V214.109C2089.32 204.178 2085.44 196.764 2077.68 191.867C2070.07 186.97 2060 184.521 2047.49 184.521C2036.06 184.521 2024.43 186.154 2012.59 189.418C2000.76 192.547 1989.53 197.172 1978.92 203.294L1961.78 170.238C1974.3 163.028 1987.7 157.382 2001.98 153.301C2016.4 149.084 2031.57 146.976 2047.49 146.976C2057.82 146.976 2067.96 148.132 2077.89 150.445C2087.96 152.757 2096.93 156.566 2104.82 161.872C2112.85 167.177 2119.24 174.115 2124 182.685C2128.77 191.119 2131.15 201.594 2131.15 214.109V341.64H2089.32V313.685C2082.65 324.024 2072.79 332.05 2059.73 337.763C2046.8 343.477 2032.86 346.334 2017.9 346.334C2008.65 346.334 1999.87 345.041 1991.58 342.457C1983.41 340.008 1976.34 336.267 1970.35 331.234C1964.37 326.201 1959.54 320.011 1955.87 312.665C1952.33 305.183 1950.56 296.613 1950.56 286.955ZM2028.71 308.584C2037.01 308.584 2044.76 307.564 2051.97 305.523C2059.32 303.347 2065.78 300.422 2071.36 296.749C2076.94 292.94 2081.29 288.383 2084.42 283.078C2087.68 277.773 2089.32 271.923 2089.32 265.529V258.388C2082.65 257.299 2076.39 256.687 2070.54 256.551C2064.69 256.415 2059.52 256.347 2055.03 256.347C2034.36 256.347 2018.71 259.068 2008.1 264.509C1997.63 269.951 1992.39 276.684 1992.39 284.71C1992.39 300.626 2004.5 308.584 2028.71 308.584Z" fill="white"/>
<path d="M1456.76 686.59C1456.76 710.804 1448.53 729.033 1432.07 741.276C1415.61 753.519 1392.21 759.64 1361.87 759.64H1276.99V493.354H1357.18C1368.34 493.354 1379.29 494.306 1390.03 496.211C1400.78 497.979 1410.37 501.38 1418.8 506.413C1427.37 511.447 1434.31 518.52 1439.62 527.635C1444.92 536.613 1447.58 548.312 1447.58 562.731C1447.58 576.199 1444.11 588.51 1437.17 599.665C1430.37 610.819 1420.03 618.845 1406.15 623.743C1423.16 629.048 1435.81 636.462 1444.11 645.984C1452.54 655.506 1456.76 669.042 1456.76 686.59ZM1405.74 568.241C1405.74 560.487 1404.25 554.161 1401.26 549.264C1398.4 544.367 1394.66 540.626 1390.03 538.041C1385.41 535.32 1380.24 533.552 1374.53 532.736C1368.81 531.92 1363.03 531.512 1357.18 531.512H1319.23V604.97H1357.18C1363.03 604.97 1368.81 604.562 1374.53 603.746C1380.24 602.929 1385.41 601.229 1390.03 598.644C1394.66 595.924 1398.4 592.115 1401.26 587.217C1404.25 582.32 1405.74 575.995 1405.74 568.241ZM1414.93 682.305C1414.93 668.974 1410.23 659.111 1400.85 652.718C1391.6 646.324 1378.61 643.127 1361.87 643.127H1319.23V721.687H1361.87C1378.61 721.687 1391.6 718.49 1400.85 712.097C1410.23 705.567 1414.93 695.637 1414.93 682.305Z" fill="white"/>
<path d="M1533.89 680.673C1535.93 693.732 1542.12 704.615 1552.46 713.321C1562.93 721.891 1576.94 726.176 1594.49 726.176C1608.23 726.176 1620.13 724.068 1630.2 719.851C1640.4 715.497 1649.18 709.784 1656.52 702.71L1678.15 732.502C1665.91 744.745 1652.92 753.111 1639.18 757.6C1625.58 762.089 1610.68 764.334 1594.49 764.334C1579.8 764.334 1566.13 761.885 1553.48 756.988C1540.83 752.091 1529.88 745.289 1520.63 736.583C1511.38 727.74 1504.1 717.266 1498.79 705.159C1493.62 693.052 1491.04 679.584 1491.04 664.757C1491.04 650.337 1493.42 637.074 1498.18 624.967C1503.08 612.724 1509.88 602.181 1518.59 593.339C1527.43 584.361 1537.97 577.423 1550.21 572.526C1562.46 567.493 1575.99 564.976 1590.82 564.976C1606.19 564.976 1620.13 567.629 1632.65 572.934C1645.16 578.103 1655.84 585.653 1664.69 595.583C1673.66 605.514 1680.67 617.689 1685.7 632.109C1690.74 646.392 1693.25 662.58 1693.25 680.673H1533.89ZM1645.5 643.535C1643.33 631.292 1637 621.498 1626.53 614.152C1616.05 606.67 1604.15 602.929 1590.82 602.929C1577.49 602.929 1565.52 606.67 1554.91 614.152C1544.3 621.498 1537.9 631.292 1535.73 643.535H1645.5ZM1656.52 538.245L1640.2 559.058L1590.82 517.228L1540.62 559.466L1524.3 539.061L1590.41 474.173L1656.52 538.245Z" fill="white"/>
<path d="M1733.25 493.354H1775.49V586.605C1783.51 579.395 1791.61 574.022 1799.77 570.485C1808.07 566.812 1817.52 564.976 1828.13 564.976C1840.37 564.976 1851.73 567.493 1862.21 572.526C1872.68 577.423 1881.66 584.293 1889.14 593.135C1896.62 601.841 1902.54 612.384 1906.89 624.763C1911.25 637.006 1913.42 650.337 1913.42 664.757C1913.42 679.312 1911.25 692.712 1906.89 704.955C1902.54 717.198 1896.62 727.74 1889.14 736.583C1881.66 745.289 1872.68 752.091 1862.21 756.988C1851.73 761.885 1840.37 764.334 1828.13 764.334C1817.52 764.334 1808.07 762.429 1799.77 758.62C1791.61 754.811 1783.51 749.302 1775.49 742.092V759.64H1733.25V493.354ZM1775.49 709.036C1780.52 714.613 1786.91 718.898 1794.67 721.891C1802.56 724.748 1810.11 726.176 1817.32 726.176C1833.23 726.176 1846.15 720.531 1856.09 709.24C1866.15 697.949 1871.19 683.121 1871.19 664.757C1871.19 646.392 1866.15 631.496 1856.09 620.07C1846.15 608.643 1833.23 602.929 1817.32 602.929C1810.11 602.929 1802.56 604.426 1794.67 607.418C1786.91 610.275 1780.52 614.492 1775.49 620.07V709.036Z" fill="white"/>
<path d="M1950.56 704.955C1950.56 693.8 1953.55 684.074 1959.54 675.776C1965.52 667.341 1973.35 660.336 1983.01 654.758C1992.8 649.181 2003.95 645.032 2016.47 642.311C2029.12 639.454 2041.98 638.026 2055.03 638.026C2062.24 638.026 2068.43 638.162 2073.6 638.434C2078.77 638.706 2084.01 639.114 2089.32 639.659V632.109C2089.32 622.178 2085.44 614.764 2077.68 609.867C2070.07 604.97 2060 602.521 2047.49 602.521C2036.06 602.521 2024.43 604.154 2012.59 607.418C2000.76 610.547 1989.53 615.172 1978.92 621.294L1961.78 588.238C1974.3 581.028 1987.7 575.382 2001.98 571.301C2016.4 567.084 2031.57 564.976 2047.49 564.976C2057.82 564.976 2067.96 566.132 2077.89 568.445C2087.96 570.757 2096.93 574.566 2104.82 579.872C2112.85 585.177 2119.24 592.115 2124 600.685C2128.77 609.119 2131.15 619.594 2131.15 632.109V759.64H2089.32V731.685C2082.65 742.024 2072.79 750.05 2059.73 755.763C2046.8 761.477 2032.86 764.334 2017.9 764.334C2008.65 764.334 1999.87 763.041 1991.58 760.457C1983.41 758.008 1976.34 754.267 1970.35 749.234C1964.37 744.201 1959.54 738.011 1955.87 730.665C1952.33 723.183 1950.56 714.613 1950.56 704.955ZM2028.71 726.584C2037.01 726.584 2044.76 725.564 2051.97 723.523C2059.32 721.347 2065.78 718.422 2071.36 714.749C2076.94 710.94 2081.29 706.383 2084.42 701.078C2087.68 695.772 2089.32 689.923 2089.32 683.529V676.388C2082.65 675.299 2076.39 674.687 2070.54 674.551C2064.69 674.415 2059.52 674.347 2055.03 674.347C2034.36 674.347 2018.71 677.068 2008.1 682.509C1997.63 687.951 1992.39 694.684 1992.39 702.71C1992.39 718.626 2004.5 726.584 2028.71 726.584Z" fill="white"/>
<path d="M2359.68 759.64H2317.44V742.092C2309.28 749.302 2301.05 754.811 2292.75 758.62C2284.46 762.429 2275 764.334 2264.39 764.334C2252.15 764.334 2240.79 761.885 2230.31 756.988C2219.84 752.091 2210.79 745.289 2203.18 736.583C2195.69 727.74 2189.78 717.198 2185.42 704.955C2181.21 692.712 2179.1 679.312 2179.1 664.757C2179.1 650.337 2181.21 637.006 2185.42 624.763C2189.78 612.384 2195.69 601.841 2203.18 593.135C2210.79 584.293 2219.84 577.423 2230.31 572.526C2240.79 567.493 2252.15 564.976 2264.39 564.976C2275 564.976 2284.46 566.812 2292.75 570.485C2301.05 574.022 2309.28 579.395 2317.44 586.605V531.512H2280.72V493.354H2359.68V759.64ZM2317.44 620.07C2312.41 614.492 2305.88 610.275 2297.86 607.418C2289.97 604.426 2282.42 602.929 2275.21 602.929C2259.29 602.929 2246.3 608.643 2236.23 620.07C2226.3 631.496 2221.34 646.392 2221.34 664.757C2221.34 683.121 2226.3 697.949 2236.23 709.24C2246.3 720.531 2259.29 726.176 2275.21 726.176C2282.42 726.176 2289.97 724.748 2297.86 721.891C2305.88 718.898 2312.41 714.613 2317.44 709.036V620.07Z" fill="white"/>
<path d="M2602.71 664.757C2602.71 679.584 2600.33 693.052 2595.57 705.159C2590.94 717.266 2584.21 727.74 2575.36 736.583C2566.66 745.289 2556.18 752.091 2543.94 756.988C2531.7 761.885 2518.03 764.334 2502.93 764.334C2488.1 764.334 2474.56 761.885 2462.32 756.988C2450.08 752.091 2439.53 745.289 2430.69 736.583C2421.99 727.74 2415.25 717.266 2410.49 705.159C2405.87 693.052 2403.55 679.584 2403.55 664.757C2403.55 650.337 2405.87 637.006 2410.49 624.763C2415.25 612.384 2421.99 601.773 2430.69 592.931C2439.53 583.953 2450.08 577.083 2462.32 572.322C2474.56 567.424 2488.1 564.976 2502.93 564.976C2518.03 564.976 2531.7 567.424 2543.94 572.322C2556.18 577.083 2566.66 583.953 2575.36 592.931C2584.21 601.773 2590.94 612.384 2595.57 624.763C2600.33 637.006 2602.71 650.337 2602.71 664.757ZM2560.67 664.757C2560.67 656.187 2559.31 648.093 2556.59 640.475C2554.01 632.721 2550.2 626.123 2545.17 620.682C2540.13 615.24 2534.01 610.955 2526.8 607.827C2519.73 604.562 2511.77 602.929 2502.93 602.929C2493.95 602.929 2485.92 604.562 2478.85 607.827C2471.77 610.955 2465.79 615.24 2460.89 620.682C2455.99 626.123 2452.19 632.721 2449.47 640.475C2446.88 648.093 2445.59 656.187 2445.59 664.757C2445.59 673.735 2446.88 681.897 2449.47 689.243C2452.19 696.589 2455.99 703.05 2460.89 708.628C2465.79 714.205 2471.77 718.558 2478.85 721.687C2485.92 724.68 2493.95 726.176 2502.93 726.176C2511.77 726.176 2519.73 724.68 2526.8 721.687C2534.01 718.558 2540.13 714.205 2545.17 708.628C2550.2 703.05 2554.01 696.589 2556.59 689.243C2559.31 681.897 2560.67 673.735 2560.67 664.757Z" fill="white"/>
<line x1="1116" y1="15" x2="1116" y2="1285" stroke="#DFDFDF" stroke-width="30" stroke-linecap="round"/>
<path d="M1342.84 934.779C1342.84 939.174 1342.09 943.104 1340.57 946.571C1339.11 949.989 1337.08 952.895 1334.5 955.287C1331.96 957.68 1328.9 959.511 1325.34 960.78C1321.82 962.05 1318.06 962.685 1314.06 962.685C1309.57 962.685 1305.52 961.879 1301.9 960.268C1298.29 958.656 1295.19 955.995 1292.6 952.284V961H1278.98V929.799H1292.6C1292.6 932.924 1293.14 935.683 1294.21 938.075C1295.33 940.468 1296.8 942.494 1298.61 944.154C1300.41 945.766 1302.51 947.011 1304.91 947.89C1307.3 948.72 1309.84 949.135 1312.52 949.135C1317.06 949.135 1320.73 948.085 1323.51 945.985C1326.29 943.886 1327.68 940.541 1327.68 935.951C1327.68 933.559 1327.24 931.508 1326.37 929.799C1325.54 928.09 1324.31 926.576 1322.7 925.258C1321.14 923.891 1319.21 922.719 1316.92 921.742C1314.62 920.717 1312.01 919.643 1309.08 918.52C1305.61 917.348 1302.15 916.029 1298.68 914.564C1295.21 913.1 1292.11 911.293 1289.38 909.145C1286.64 906.996 1284.42 904.359 1282.71 901.234C1281 898.061 1280.15 894.081 1280.15 889.296C1280.15 885.097 1280.91 881.435 1282.42 878.31C1283.98 875.136 1286.03 872.475 1288.57 870.326C1291.16 868.178 1294.14 866.566 1297.51 865.492C1300.93 864.369 1304.54 863.808 1308.35 863.808C1312.74 863.808 1316.5 864.735 1319.63 866.591C1322.8 868.446 1325.24 870.912 1326.95 873.988V865.419H1340.57V895.155H1326.95C1326.95 889.54 1325.46 885.17 1322.48 882.045C1319.55 878.871 1315.6 877.284 1310.62 877.284C1306.22 877.284 1302.56 878.31 1299.63 880.36C1296.75 882.411 1295.31 885.292 1295.31 889.003C1295.31 890.907 1295.68 892.543 1296.41 893.91C1297.19 895.229 1298.29 896.449 1299.71 897.572C1301.17 898.646 1303 899.672 1305.2 900.648C1307.4 901.576 1309.93 902.602 1312.82 903.725C1316.43 904.994 1320.02 906.435 1323.58 908.046C1327.15 909.657 1330.34 911.635 1333.18 913.979C1336.01 916.322 1338.33 919.179 1340.13 922.548C1341.94 925.868 1342.84 929.945 1342.84 934.779ZM1416.47 913.173C1416.47 906.776 1417.15 900.6 1418.52 894.643C1419.89 888.686 1422.01 883.437 1424.89 878.896C1427.77 874.354 1431.53 870.717 1436.17 867.982C1440.86 865.199 1446.5 863.808 1453.09 863.808C1459.68 863.808 1465.3 865.199 1469.93 867.982C1474.62 870.717 1478.43 874.354 1481.36 878.896C1484.29 883.437 1486.41 888.686 1487.73 894.643C1489.05 900.6 1489.71 906.776 1489.71 913.173C1489.71 919.569 1489.05 925.746 1487.73 931.703C1486.41 937.611 1484.31 942.885 1481.43 947.523C1478.55 952.113 1474.77 955.8 1470.08 958.583C1465.44 961.317 1459.78 962.685 1453.09 962.685C1446.4 962.685 1440.71 961.317 1436.02 958.583C1431.38 955.8 1427.6 952.113 1424.67 947.523C1421.79 942.885 1419.71 937.611 1418.45 931.703C1417.13 925.746 1416.47 919.569 1416.47 913.173ZM1431.63 913.173C1431.63 917.47 1431.95 921.767 1432.58 926.063C1433.26 930.36 1434.39 934.218 1435.95 937.636C1437.56 941.005 1439.73 943.739 1442.47 945.839C1445.25 947.938 1448.79 948.988 1453.09 948.988C1457.39 948.988 1460.9 947.938 1463.64 945.839C1466.42 943.739 1468.59 941.005 1470.15 937.636C1471.77 934.218 1472.89 930.36 1473.52 926.063C1474.21 921.767 1474.55 917.47 1474.55 913.173C1474.55 908.876 1474.21 904.604 1473.52 900.355C1472.89 896.107 1471.77 892.274 1470.15 888.856C1468.59 885.438 1466.39 882.68 1463.56 880.58C1460.78 878.48 1457.29 877.431 1453.09 877.431C1446.11 877.431 1440.78 880.58 1437.12 886.879C1433.46 893.178 1431.63 901.942 1431.63 913.173ZM1470.96 844.105L1439.32 861.977L1432.8 851.942L1462.39 830.922L1470.96 844.105ZM1772.23 961H1753.04L1728.29 922.328H1721.4V961H1706.24V865.419H1737.74C1748.24 865.419 1756.39 867.836 1762.2 872.67C1768.01 877.455 1770.92 884.56 1770.92 893.983C1770.92 898.183 1770.26 901.894 1768.94 905.116C1767.67 908.29 1765.84 911.024 1763.45 913.319C1761.1 915.614 1758.34 917.445 1755.17 918.812C1752.04 920.131 1748.65 921.034 1744.99 921.522L1772.23 961ZM1755.75 893.764C1755.75 888.881 1754.14 885.219 1750.92 882.777C1747.75 880.336 1743.35 879.115 1737.74 879.115H1721.4V908.632H1737.74C1743.35 908.632 1747.75 907.411 1750.92 904.97C1754.14 902.528 1755.75 898.793 1755.75 893.764ZM1909.21 961H1848.13V865.419H1909.21V879.115H1863.29V905.482H1899.1V919.179H1863.29V947.377H1909.21V961ZM2058.42 913.466C2058.42 919.96 2057.76 926.161 2056.44 932.069C2055.17 937.978 2053.05 943.202 2050.07 947.743C2047.14 952.284 2043.33 955.922 2038.65 958.656C2034.01 961.342 2028.34 962.685 2021.65 962.685C2014.96 962.685 2009.3 961.317 2004.66 958.583C2000.02 955.8 1996.21 952.138 1993.24 947.597C1990.31 943.056 1988.18 937.807 1986.86 931.85C1985.59 925.893 1984.96 919.716 1984.96 913.319C1984.96 906.923 1985.59 900.746 1986.86 894.789C1988.18 888.832 1990.31 883.559 1993.24 878.969C1996.21 874.379 2000.02 870.717 2004.66 867.982C2009.3 865.199 2014.96 863.808 2021.65 863.808C2023.56 863.808 2025.51 864.076 2027.51 864.613C2029.51 865.15 2031.42 865.98 2033.23 867.104C2035.03 868.178 2036.62 869.521 2037.99 871.132C2039.4 872.743 2040.4 874.599 2040.99 876.698V865.419H2054.69V899.33H2040.99C2040.99 896.352 2040.53 893.544 2039.6 890.907C2038.67 888.222 2037.35 885.878 2035.64 883.876C2033.93 881.874 2031.88 880.312 2029.49 879.188C2027.1 878.017 2024.49 877.431 2021.65 877.431C2017.36 877.431 2013.84 878.505 2011.11 880.653C2008.37 882.802 2006.17 885.585 2004.51 889.003C2002.85 892.421 2001.68 896.254 2001 900.502C2000.36 904.75 2000.05 909.022 2000.05 913.319C2000.05 917.616 2000.36 921.889 2001 926.137C2001.68 930.385 2002.83 934.218 2004.44 937.636C2006.05 941.005 2008.25 943.739 2011.03 945.839C2013.82 947.938 2017.36 948.988 2021.65 948.988C2027.85 948.988 2032.86 947.011 2036.67 943.056C2040.48 939.101 2043.09 932.973 2044.5 924.672H2024.36V911.049H2058.42V913.466ZM2185.58 961H2139.73V947.377H2154.82V879.115H2139.73V865.419H2185.58V879.115H2169.98V947.377H2185.58V961ZM2336.04 934.779C2336.04 939.174 2335.28 943.104 2333.77 946.571C2332.3 949.989 2330.28 952.895 2327.69 955.287C2325.15 957.68 2322.1 959.511 2318.53 960.78C2315.02 962.05 2311.26 962.685 2307.25 962.685C2302.76 962.685 2298.71 961.879 2295.1 960.268C2291.48 958.656 2288.38 955.995 2285.79 952.284V961H2272.17V929.799H2285.79C2285.79 932.924 2286.33 935.683 2287.41 938.075C2288.53 940.468 2289.99 942.494 2291.8 944.154C2293.61 945.766 2295.71 947.011 2298.1 947.89C2300.49 948.72 2303.03 949.135 2305.72 949.135C2310.26 949.135 2313.92 948.085 2316.7 945.985C2319.49 943.886 2320.88 940.541 2320.88 935.951C2320.88 933.559 2320.44 931.508 2319.56 929.799C2318.73 928.09 2317.51 926.576 2315.9 925.258C2314.33 923.891 2312.41 922.719 2310.11 921.742C2307.82 920.717 2305.2 919.643 2302.27 918.52C2298.81 917.348 2295.34 916.029 2291.87 914.564C2288.41 913.1 2285.31 911.293 2282.57 909.145C2279.84 906.996 2277.62 904.359 2275.91 901.234C2274.2 898.061 2273.34 894.081 2273.34 889.296C2273.34 885.097 2274.1 881.435 2275.61 878.31C2277.18 875.136 2279.23 872.475 2281.77 870.326C2284.35 868.178 2287.33 866.566 2290.7 865.492C2294.12 864.369 2297.73 863.808 2301.54 863.808C2305.94 863.808 2309.7 864.735 2312.82 866.591C2315.99 868.446 2318.44 870.912 2320.14 873.988V865.419H2333.77V895.155H2320.14C2320.14 889.54 2318.66 885.17 2315.68 882.045C2312.75 878.871 2308.79 877.284 2303.81 877.284C2299.42 877.284 2295.75 878.31 2292.83 880.36C2289.94 882.411 2288.5 885.292 2288.5 889.003C2288.5 890.907 2288.87 892.543 2289.6 893.91C2290.38 895.229 2291.48 896.449 2292.9 897.572C2294.36 898.646 2296.19 899.672 2298.39 900.648C2300.59 901.576 2303.13 902.602 2306.01 903.725C2309.62 904.994 2313.21 906.435 2316.78 908.046C2320.34 909.657 2323.54 911.635 2326.37 913.979C2329.2 916.322 2331.52 919.179 2333.33 922.548C2335.13 925.868 2336.04 929.945 2336.04 934.779ZM2480.19 900.282H2466.64V879.115H2453.75V947.377H2468.91V961H2423.5V947.377H2438.59V879.115H2425.55V900.282H2412.08V865.419H2480.19V900.282ZM2623.54 961H2604.35L2579.6 922.328H2572.71V961H2557.55V865.419H2589.05C2599.54 865.419 2607.7 867.836 2613.51 872.67C2619.32 877.455 2622.22 884.56 2622.22 893.983C2622.22 898.183 2621.57 901.894 2620.25 905.116C2618.98 908.29 2617.15 911.024 2614.75 913.319C2612.41 915.614 2609.65 917.445 2606.48 918.812C2603.35 920.131 2599.96 921.034 2596.3 921.522L2623.54 961ZM2607.06 893.764C2607.06 888.881 2605.45 885.219 2602.23 882.777C2599.06 880.336 2594.66 879.115 2589.05 879.115H2572.71V908.632H2589.05C2594.66 908.632 2599.06 907.411 2602.23 904.97C2605.45 902.528 2607.06 898.793 2607.06 893.764ZM2693.43 913.173C2693.43 906.776 2694.11 900.6 2695.48 894.643C2696.85 888.686 2698.97 883.437 2701.85 878.896C2704.73 874.354 2708.49 870.717 2713.13 867.982C2717.82 865.199 2723.46 863.808 2730.05 863.808C2736.64 863.808 2742.26 865.199 2746.9 867.982C2751.58 870.717 2755.39 874.354 2758.32 878.896C2761.25 883.437 2763.38 888.686 2764.7 894.643C2766.01 900.6 2766.67 906.776 2766.67 913.173C2766.67 919.569 2766.01 925.746 2764.7 931.703C2763.38 937.611 2761.28 942.885 2758.4 947.523C2755.52 952.113 2751.73 955.8 2747.04 958.583C2742.41 961.317 2736.74 962.685 2730.05 962.685C2723.36 962.685 2717.67 961.317 2712.99 958.583C2708.35 955.8 2704.56 952.113 2701.63 947.523C2698.75 942.885 2696.68 937.611 2695.41 931.703C2694.09 925.746 2693.43 919.569 2693.43 913.173ZM2708.59 913.173C2708.59 917.47 2708.91 921.767 2709.54 926.063C2710.23 930.36 2711.35 934.218 2712.91 937.636C2714.52 941.005 2716.7 943.739 2719.43 945.839C2722.21 947.938 2725.75 948.988 2730.05 948.988C2734.35 948.988 2737.86 947.938 2740.6 945.839C2743.38 943.739 2745.55 941.005 2747.12 937.636C2748.73 934.218 2749.85 930.36 2750.49 926.063C2751.17 921.767 2751.51 917.47 2751.51 913.173C2751.51 908.876 2751.17 904.604 2750.49 900.355C2749.85 896.107 2748.73 892.274 2747.12 888.856C2745.55 885.438 2743.36 882.68 2740.53 880.58C2737.74 878.48 2734.25 877.431 2730.05 877.431C2723.07 877.431 2717.75 880.58 2714.08 886.879C2710.42 893.178 2708.59 901.942 2708.59 913.173ZM2903.58 934.779C2903.58 939.174 2902.82 943.104 2901.31 946.571C2899.84 949.989 2897.82 952.895 2895.23 955.287C2892.69 957.68 2889.64 959.511 2886.07 960.78C2882.56 962.05 2878.8 962.685 2874.79 962.685C2870.3 962.685 2866.25 961.879 2862.63 960.268C2859.02 958.656 2855.92 955.995 2853.33 952.284V961H2839.71V929.799H2853.33C2853.33 932.924 2853.87 935.683 2854.94 938.075C2856.07 940.468 2857.53 942.494 2859.34 944.154C2861.15 945.766 2863.25 947.011 2865.64 947.89C2868.03 948.72 2870.57 949.135 2873.25 949.135C2877.8 949.135 2881.46 948.085 2884.24 945.985C2887.02 943.886 2888.42 940.541 2888.42 935.951C2888.42 933.559 2887.98 931.508 2887.1 929.799C2886.27 928.09 2885.05 926.576 2883.44 925.258C2881.87 923.891 2879.94 922.719 2877.65 921.742C2875.35 920.717 2872.74 919.643 2869.81 918.52C2866.35 917.348 2862.88 916.029 2859.41 914.564C2855.95 913.1 2852.84 911.293 2850.11 909.145C2847.38 906.996 2845.15 904.359 2843.45 901.234C2841.74 898.061 2840.88 894.081 2840.88 889.296C2840.88 885.097 2841.64 881.435 2843.15 878.31C2844.71 875.136 2846.77 872.475 2849.3 870.326C2851.89 868.178 2854.87 866.566 2858.24 865.492C2861.66 864.369 2865.27 863.808 2869.08 863.808C2873.47 863.808 2877.23 864.735 2880.36 866.591C2883.53 868.446 2885.97 870.912 2887.68 873.988V865.419H2901.31V895.155H2887.68C2887.68 889.54 2886.19 885.17 2883.22 882.045C2880.29 878.871 2876.33 877.284 2871.35 877.284C2866.96 877.284 2863.29 878.31 2860.36 880.36C2857.48 882.411 2856.04 885.292 2856.04 889.003C2856.04 890.907 2856.41 892.543 2857.14 893.91C2857.92 895.229 2859.02 896.449 2860.44 897.572C2861.9 898.646 2863.73 899.672 2865.93 900.648C2868.13 901.576 2870.67 902.602 2873.55 903.725C2877.16 904.994 2880.75 906.435 2884.31 908.046C2887.88 909.657 2891.08 911.635 2893.91 913.979C2896.74 916.322 2899.06 919.179 2900.87 922.548C2902.67 925.868 2903.58 929.945 2903.58 934.779ZM1348.41 1138.17C1348.41 1144.57 1347.73 1150.67 1346.36 1156.48C1345.04 1162.25 1342.89 1167.32 1339.92 1171.72C1336.99 1176.06 1333.18 1179.53 1328.49 1182.12C1323.85 1184.71 1318.24 1186 1311.64 1186H1280.59V1090.42H1311.64C1318.14 1090.42 1323.7 1091.74 1328.34 1094.37C1333.03 1096.96 1336.84 1100.43 1339.77 1104.77C1342.75 1109.12 1344.92 1114.17 1346.29 1119.94C1347.7 1125.7 1348.41 1131.78 1348.41 1138.17ZM1333.25 1138.17C1333.25 1127.14 1331.37 1118.71 1327.61 1112.9C1323.85 1107.04 1318.53 1104.12 1311.64 1104.12H1295.75V1172.38H1311.64C1318.53 1172.38 1323.85 1169.4 1327.61 1163.44C1331.37 1157.48 1333.25 1149.06 1333.25 1138.17ZM1483.56 1186H1422.47V1090.42H1483.56V1104.12H1437.63V1130.48H1473.45V1144.18H1437.63V1172.38H1483.56V1186ZM1770.77 1159.78C1770.77 1168.47 1767.82 1175.01 1761.91 1179.41C1756 1183.8 1747.6 1186 1736.71 1186H1706.24V1090.42H1735.03C1739.03 1090.42 1742.96 1090.76 1746.82 1091.44C1750.68 1092.08 1754.12 1093.3 1757.15 1095.11C1760.22 1096.91 1762.71 1099.45 1764.62 1102.72C1766.52 1105.95 1767.47 1110.15 1767.47 1115.32C1767.47 1120.16 1766.23 1124.57 1763.74 1128.58C1761.3 1132.58 1757.59 1135.46 1752.61 1137.22C1758.71 1139.12 1763.25 1141.79 1766.23 1145.2C1769.26 1148.62 1770.77 1153.48 1770.77 1159.78ZM1752.46 1117.3C1752.46 1114.52 1751.92 1112.25 1750.85 1110.49C1749.82 1108.73 1748.48 1107.39 1746.82 1106.46C1745.16 1105.48 1743.3 1104.85 1741.25 1104.55C1739.2 1104.26 1737.13 1104.12 1735.03 1104.12H1721.4V1130.48H1735.03C1737.13 1130.48 1739.2 1130.34 1741.25 1130.04C1743.3 1129.75 1745.16 1129.14 1746.82 1128.21C1748.48 1127.24 1749.82 1125.87 1750.85 1124.11C1751.92 1122.35 1752.46 1120.08 1752.46 1117.3ZM1755.75 1158.24C1755.75 1153.46 1754.07 1149.92 1750.7 1147.62C1747.38 1145.33 1742.72 1144.18 1736.71 1144.18H1721.4V1172.38H1736.71C1742.72 1172.38 1747.38 1171.23 1750.7 1168.93C1754.07 1166.59 1755.75 1163.03 1755.75 1158.24ZM1909.21 1186H1848.13V1090.42H1909.21V1104.12H1863.29V1130.48H1899.1V1144.18H1863.29V1172.38H1909.21V1186ZM2054.54 1159.78C2054.54 1168.47 2051.58 1175.01 2045.68 1179.41C2039.77 1183.8 2031.37 1186 2020.48 1186H1990.01V1090.42H2018.8C2022.8 1090.42 2026.73 1090.76 2030.59 1091.44C2034.45 1092.08 2037.89 1093.3 2040.92 1095.11C2043.99 1096.91 2046.48 1099.45 2048.39 1102.72C2050.29 1105.95 2051.24 1110.15 2051.24 1115.32C2051.24 1120.16 2050 1124.57 2047.51 1128.58C2045.07 1132.58 2041.36 1135.46 2036.38 1137.22C2042.48 1139.12 2047.02 1141.79 2050 1145.2C2053.03 1148.62 2054.54 1153.48 2054.54 1159.78ZM2036.23 1117.3C2036.23 1114.52 2035.69 1112.25 2034.62 1110.49C2033.59 1108.73 2032.25 1107.39 2030.59 1106.46C2028.93 1105.48 2027.07 1104.85 2025.02 1104.55C2022.97 1104.26 2020.9 1104.12 2018.8 1104.12H2005.17V1130.48H2018.8C2020.9 1130.48 2022.97 1130.34 2025.02 1130.04C2027.07 1129.75 2028.93 1129.14 2030.59 1128.21C2032.25 1127.24 2033.59 1125.87 2034.62 1124.11C2035.69 1122.35 2036.23 1120.08 2036.23 1117.3ZM2039.52 1158.24C2039.52 1153.46 2037.84 1149.92 2034.47 1147.62C2031.15 1145.33 2026.49 1144.18 2020.48 1144.18H2005.17V1172.38H2020.48C2026.49 1172.38 2031.15 1171.23 2034.47 1168.93C2037.84 1166.59 2039.52 1163.03 2039.52 1158.24ZM2192.98 1186H2131.9V1090.42H2192.98V1104.12H2147.06V1130.48H2182.87V1144.18H2147.06V1172.38H2192.98V1186ZM2341.6 1138.17C2341.6 1144.57 2340.92 1150.67 2339.55 1156.48C2338.24 1162.25 2336.09 1167.32 2333.11 1171.72C2330.18 1176.06 2326.37 1179.53 2321.68 1182.12C2317.04 1184.71 2311.43 1186 2304.84 1186H2273.78V1090.42H2304.84C2311.33 1090.42 2316.9 1091.74 2321.54 1094.37C2326.22 1096.96 2330.03 1100.43 2332.96 1104.77C2335.94 1109.12 2338.11 1114.17 2339.48 1119.94C2340.9 1125.7 2341.6 1131.78 2341.6 1138.17ZM2326.44 1138.17C2326.44 1127.14 2324.56 1118.71 2320.8 1112.9C2317.04 1107.04 2311.72 1104.12 2304.84 1104.12H2288.94V1172.38H2304.84C2311.72 1172.38 2317.04 1169.4 2320.8 1163.44C2324.56 1157.48 2326.44 1149.06 2326.44 1138.17ZM2476.75 1186H2415.67V1090.42H2476.75V1104.12H2430.83V1130.48H2466.64V1144.18H2430.83V1172.38H2476.75V1186ZM2611.24 1186H2565.39V1172.38H2580.48V1104.12H2565.39V1090.42H2611.24V1104.12H2595.64V1172.38H2611.24V1186ZM2765.43 1186H2746.24L2721.48 1147.33H2714.6V1186H2699.44V1090.42H2730.93C2741.43 1090.42 2749.58 1092.84 2755.39 1097.67C2761.2 1102.46 2764.11 1109.56 2764.11 1118.98C2764.11 1123.18 2763.45 1126.89 2762.13 1130.12C2760.86 1133.29 2759.03 1136.02 2756.64 1138.32C2754.29 1140.61 2751.54 1142.45 2748.36 1143.81C2745.24 1145.13 2741.84 1146.03 2738.18 1146.52L2765.43 1186ZM2748.95 1118.76C2748.95 1113.88 2747.34 1110.22 2744.11 1107.78C2740.94 1105.34 2736.55 1104.12 2730.93 1104.12H2714.6V1133.63H2730.93C2736.55 1133.63 2740.94 1132.41 2744.11 1129.97C2747.34 1127.53 2748.95 1123.79 2748.95 1118.76ZM2894.57 1186L2887.68 1163.22H2856.04L2849.3 1186H2833.41L2863.22 1090.42H2880.65L2910.46 1186H2894.57ZM2860.07 1149.82H2883.66L2871.94 1110.41L2860.07 1149.82Z" fill="#C06100"/>
</svg>
