<svg width="1375" height="604" viewBox="0 0 1375 604" fill="none" xmlns="http://www.w3.org/2000/svg">
<g clip-path="url(#clip0_33_35)">
<path d="M78.6207 517.664C85.5991 517.664 91.2561 512.007 91.2561 505.028C91.2561 498.05 85.5991 492.393 78.6207 492.393C71.6424 492.393 65.9854 498.05 65.9854 505.028C65.9854 512.007 71.6424 517.664 78.6207 517.664Z" fill="#010002"/>
<path d="M102.754 477.282L106.623 471.504L99.8173 468.688L56.4763 483.494L59.4101 492.088L102.754 477.282Z" fill="#010002"/>
<path d="M147.655 474.815L146.307 468L139.497 470.819L119.326 511.931L127.482 515.935L147.655 474.815Z" fill="#010002"/>
<path d="M138.559 587.733C123.875 577.857 109.234 567.807 94.1798 558.499C94.3049 557.243 94.2373 555.945 93.9297 554.649C93.9022 554.557 91.9639 546.238 90.7509 535.531C98.7918 535.151 106.82 534.508 114.869 534.083C120.961 533.761 123.33 527.773 121.919 523.369L123.74 519.669L126.691 521.123L128.084 518.284L117.33 513.007L115.934 515.845L118.543 517.123L117.61 519.022C116.827 518.792 115.954 518.684 114.976 518.734C103.316 519.352 91.6762 520.437 79.9763 520.5C79.2009 520.41 78.4056 520.397 77.6003 520.467C77.12 520.51 76.6498 520.587 76.1922 520.685C70.3922 519.254 64.5947 517.821 58.7972 516.391C56.2537 508.627 53.7101 500.861 51.164 493.096L54.1228 492.085L55.1882 495.199L58.1745 494.179L54.2978 482.844L51.3166 483.867L52.247 486.61L48.4253 487.916C43.3532 483.322 33.1613 487.356 35.7649 495.309C38.8713 504.778 41.9751 514.252 45.0814 523.726C47.0572 529.769 51.5216 530.399 56.8789 531.725C60.2629 532.56 63.6443 533.393 67.0308 534.228C68.0787 545.503 69.992 555.017 70.7673 558.574C64.3846 559.829 58.0019 561.085 51.6217 562.345C47.7125 563.116 44.9113 567.968 46.1994 571.734C49.1256 580.32 51.8643 588.972 54.6055 597.618C57.5892 607.019 72.423 603.088 69.4268 593.641C67.516 587.618 65.5801 581.598 63.6043 575.583C70.0921 574.308 76.5773 573.03 83.0601 571.757C83.8904 571.599 84.6107 571.331 85.246 570.996C100.75 580.52 115.789 590.872 130.89 601.027C139.111 606.551 146.735 593.226 138.559 587.733Z" fill="#010002"/>
</g>
<path d="M1273.34 492.138C1275.89 498.33 1282.97 501.281 1289.17 498.731C1292.99 497.157 1295.57 493.853 1296.39 490.1L1306.24 492.902L1307.59 488.927L1297.5 482.18L1298.48 473.954C1298.66 472.409 1297.69 470.961 1296.2 470.536L1283.34 466.879C1281.85 466.453 1280.26 467.178 1279.61 468.587L1276.2 475.911L1264.38 476.638L1263.03 480.612L1273.13 483.484C1272.17 486.201 1272.15 489.263 1273.34 492.138ZM1297.71 529.084H1283.11L1275.53 501.728C1274.44 496.897 1270.12 493.216 1265.06 493.216H1238.33C1236.49 493.216 1234.64 494.196 1233.61 495.808L1223.01 514.335C1221.4 516.921 1222.43 520.17 1224.97 521.758C1227.28 523.2 1230.71 522.318 1232.39 519.914L1241.43 504.204H1255.45L1238.2 533.96C1236.18 537.432 1235.99 541.667 1237.69 545.306L1246.33 563.867L1238.71 593.017C1237.64 597.228 1240.15 601.45 1244.25 602.551C1248.46 603.616 1252.68 601.11 1253.79 597.009L1261.85 565.108C1262.28 563.472 1262.22 561.531 1261.36 559.888L1260.62 558.331L1270.97 564.293L1260.76 592.111C1259.28 596.145 1261.19 600.75 1265.2 602.278C1269.27 603.829 1273.75 601.785 1275.26 597.708L1287.73 563.606C1289.28 559.389 1287.56 554.686 1283.66 552.459L1261.61 539.871L1270.24 524.8L1273.39 535.924C1274.1 538.361 1276.33 540.035 1278.87 540.035H1297.71C1300.75 540.145 1303.04 537.84 1303.15 534.852C1303.26 532.125 1300.63 529.351 1297.71 529.084ZM1335.42 486.264C1345.54 482.422 1351.02 471.8 1348.74 461.548C1348.71 462.075 1348.47 462.509 1348.25 462.993C1346.89 466.034 1343.23 467.422 1340.19 466.055C1339.7 465.837 1339.25 465.55 1338.87 465.295C1335.53 462.549 1330.81 461.589 1326.6 463.187C1320.29 465.583 1316.97 472.69 1319.42 479.154C1321.88 485.616 1328.96 488.717 1335.42 486.264ZM1373.76 572.904C1373.76 572.904 1371.33 533.951 1355.81 519.957C1355.71 519.865 1355.61 519.779 1355.51 519.69V491.801L1368.39 486.178C1371.68 484.743 1373.44 481.053 1372.49 477.594L1366.27 455.004C1365.52 452.25 1362.67 450.632 1359.92 451.389C1357.16 452.146 1355.54 454.993 1356.3 457.747L1361.81 477.765L1350.38 482.752L1327.42 492.95C1322.93 494.941 1319.86 499.211 1319.4 504.094L1318.26 516.162L1304.84 508.472C1302.36 507.052 1299.2 507.909 1297.78 510.388C1296.36 512.866 1297.22 516.026 1299.7 517.447L1317.75 527.793C1318.82 528.405 1320 528.711 1321.18 528.711C1322.27 528.711 1323.36 528.453 1324.36 527.935C1326.45 526.852 1327.83 524.805 1328.05 522.458L1329.14 511.024L1334.52 523.608C1334.52 523.608 1335.68 531.861 1320.83 542.47C1303.79 554.638 1309.57 579.888 1309.57 579.888C1309.57 579.888 1314.65 578.119 1322.05 577.107V596.011C1322.05 599.677 1325.15 602.656 1328.74 602.704C1332.4 602.699 1335.38 599.597 1335.43 596.011V576.524C1337.92 576.666 1340.48 576.965 1343.04 577.476L1342.89 577.547L1347.95 597.605C1348.85 601.158 1352.59 603.288 1356.07 602.459C1359.63 601.558 1361.75 597.822 1360.93 594.333L1357.2 579.576C1371.97 580.053 1373.76 572.904 1373.76 572.904Z" fill="black"/>
<g clip-path="url(#clip1_33_35)">
<path d="M1331.26 316.848C1338.41 316.848 1344.2 311.055 1344.2 303.908C1344.2 296.762 1338.41 290.968 1331.26 290.968C1324.11 290.968 1318.32 296.762 1318.32 303.908C1318.32 311.055 1324.11 316.848 1331.26 316.848Z" fill="black"/>
<path d="M1364.89 305.068C1361.99 303.994 1358.77 305.47 1357.69 308.366L1350.45 327.869L1301.54 312.517L1309.21 296.664C1310.56 293.881 1309.39 290.535 1306.61 289.188C1303.83 287.842 1300.48 289.006 1299.13 291.787L1288.64 313.475C1287.93 314.938 1287.89 316.64 1288.54 318.134C1289.18 319.626 1290.45 320.767 1292 321.253L1300 323.763L1280.8 334.696L1268.45 338.327C1268.44 338.332 1268.43 338.334 1268.42 338.337L1268.02 338.456L1250.43 316.544C1247.53 312.927 1242.24 312.352 1238.63 315.25C1235.01 318.153 1234.43 323.437 1237.33 327.054L1258.44 353.354C1260.06 355.371 1262.48 356.492 1264.99 356.492C1265.78 356.492 1266.58 356.382 1267.36 356.149L1269.11 355.634L1283.53 367.18C1285.06 368.409 1286.92 369.022 1288.77 369.022C1290.64 369.022 1292.51 368.401 1294.05 367.159L1309.57 354.63C1309.63 354.587 1309.66 354.534 1309.71 354.489L1335.03 334.768L1352.16 340.146C1352.72 340.32 1353.28 340.404 1353.84 340.404C1356.12 340.404 1358.25 339.001 1359.09 336.756L1368.18 312.268C1369.26 309.367 1367.79 306.143 1364.89 305.068Z" fill="black"/>
<path d="M1349.7 288.894C1349.7 290.216 1350.78 291.289 1352.1 291.289C1353.42 291.289 1354.49 290.216 1354.49 288.894V252.366C1354.49 251.044 1353.42 249.971 1352.1 249.971C1350.78 249.971 1349.7 251.044 1349.7 252.366V288.894Z" fill="black"/>
<path d="M1346.09 273.925V237.395C1346.09 236.073 1345.01 235 1343.69 235C1342.37 235 1341.3 236.073 1341.3 237.395V273.925C1341.3 275.247 1342.37 276.32 1343.69 276.32C1345.02 276.32 1346.09 275.247 1346.09 273.925Z" fill="black"/>
<path d="M1263.89 280.189V316.716C1263.89 318.041 1264.97 319.111 1266.29 319.111C1267.61 319.111 1268.68 318.041 1268.68 316.716V280.189C1268.68 278.867 1267.61 277.794 1266.29 277.794C1264.97 277.793 1263.89 278.867 1263.89 280.189Z" fill="black"/>
<path d="M1272.3 265.218V301.747C1272.3 303.07 1273.37 304.143 1274.7 304.143C1276.02 304.143 1277.09 303.07 1277.09 301.747V265.218C1277.09 263.895 1276.02 262.823 1274.7 262.823C1273.37 262.823 1272.3 263.896 1272.3 265.218Z" fill="black"/>
</g>
<path d="M234.462 497.549C229.179 495.085 226.893 488.804 229.357 483.52C231.82 478.236 238.1 475.95 243.384 478.414C248.667 480.878 250.953 487.158 248.489 492.442C246.026 497.726 239.746 500.012 234.462 497.549Z" fill="black"/>
<path d="M266.638 522.677H248.031L243.201 509.616C241.591 505.501 238.37 501.922 233.719 500.312L231.93 499.417C227.815 497.449 223.163 497.628 219.406 499.238L201.695 505.68C200.442 506.038 199.369 506.932 198.832 508.185L189.529 527.866C188.455 530.192 189.35 532.876 191.855 534.128C194.18 535.202 196.864 534.307 198.116 531.802L206.525 513.731L216.902 509.974L192.749 561.683H170.386C166.629 561.683 163.766 564.545 163.766 568.303C163.766 572.06 166.629 574.923 170.386 574.923H196.864C199.548 574.923 201.695 573.313 202.768 570.987L211.177 552.915L227.815 598.362C229.067 601.761 232.824 603.551 236.223 602.298C239.623 601.046 241.412 597.288 240.159 593.889L222.984 546.474L236.223 518.025L240.159 528.761C240.875 530.55 242.485 531.802 244.453 531.802H266.638C269.142 531.802 271.289 529.655 271.289 527.15C271.289 524.824 269.142 522.677 266.638 522.677Z" fill="black"/>
<path d="M333.059 505.501C328.041 501.986 326.821 495.069 330.335 490.05C333.849 485.031 340.766 483.811 345.784 487.325C350.803 490.84 352.022 497.757 348.508 502.776C344.995 507.795 338.078 509.015 333.059 505.501Z" fill="black"/>
<path d="M372.371 508.542C370.224 506.932 367.004 507.648 365.573 509.795L355.196 524.645L337.305 512.121L330.149 506.932C327.287 504.785 323.887 503.89 320.488 503.89H297.946C296.336 503.712 294.547 504.427 293.652 506.038L280.592 524.645C278.982 526.793 279.698 530.013 281.844 531.445C283.991 532.876 287.212 532.339 288.643 530.192L300.272 513.552H313.869L278.803 563.651L256.798 557.746C253.041 556.852 249.284 558.999 248.389 562.577C247.494 566.335 249.641 570.092 253.22 570.987L280.055 578.143C281.666 578.501 283.634 578.501 285.423 577.428C286.675 576.712 287.569 575.281 288.285 574.386C289.001 573.491 300.451 557.031 300.451 557.031L322.098 572.418L326.392 597.109C327.108 600.867 330.686 603.372 334.443 602.835C338.2 602.119 340.705 598.541 340.168 594.783L335.337 567.408C334.98 565.619 333.906 564.009 332.475 562.935L315.3 550.947L334.98 522.141L353.765 535.202C355.912 536.812 359.132 536.097 360.563 533.949L373.623 515.163C375.234 513.015 374.697 509.974 372.371 508.542Z" fill="black"/>
<path d="M1226.29 77.0251C1234 77.0251 1240.24 70.7801 1240.24 63.0766C1240.24 55.3731 1234 49.1282 1226.29 49.1282C1218.59 49.1282 1212.34 55.3731 1212.34 63.0766C1212.34 70.7801 1218.59 77.0251 1226.29 77.0251Z" fill="black"/>
<path d="M1164.94 150.1L1181.61 130.103L1200.86 146.273C1203.95 149.236 1208.15 151.087 1212.84 151.087C1222.34 151.087 1230.24 143.311 1230.24 133.683C1230.24 133.683 1230.24 96.2812 1230.24 96.1578C1230.24 90.2328 1227.28 85.0484 1222.71 81.8391L1194.32 61.8422L1189.88 37.0312C1189.38 33.6984 1186.05 31.4766 1182.72 32.2172C1179.39 32.7109 1177.16 36.0437 1177.9 39.3766L1182.72 66.9031C1183.09 68.5078 1183.95 69.8656 1185.19 70.7297L1202.47 82.5797V125.042L1186.05 111.217C1185.19 110.353 1183.95 109.859 1182.72 109.489C1179.51 108.625 1176.05 109.859 1173.95 112.328L1151.49 138.991C1148.4 142.694 1148.9 148.248 1152.48 151.211C1156.18 154.173 1161.73 153.927 1164.94 150.1Z" fill="black"/>
<defs>
<clipPath id="clip0_33_35">
<rect width="135" height="135" fill="white" transform="translate(24 468)"/>
</clipPath>
<clipPath id="clip1_33_35">
<rect width="134.022" height="134.022" fill="white" transform="translate(1235 235)"/>
</clipPath>
</defs>
</svg>
