<svg width="512" height="512" viewBox="0 0 512 512" fill="none" xmlns="http://www.w3.org/2000/svg">
<g clip-path="url(#clip0_9_49)">
<path d="M82.9442 119.619H130.815V69H484.81V452.624C500.652 458.249 512 473.364 512 491.136C512 513.704 493.705 532 471.137 532H144.489C121.921 532 103.626 513.704 103.626 491.136C103.626 473.364 114.974 458.249 130.816 452.624V402.005H82.9453C37.2088 402.005 3.05176e-05 364.795 3.05176e-05 319.057V202.568C-0.0010656 156.829 37.2077 119.619 82.9442 119.619ZM49.3362 319.057C49.3362 337.589 64.4133 352.666 82.9442 352.666H130.815V168.958H82.9442C64.4133 168.958 49.3362 184.035 49.3362 202.566V319.057Z" fill="#E0E0E0"/>
<path d="M145 86H462V198.288L303.5 226L145 198.288V86Z" fill="white"/>
<path d="M462 200V435.445C462 458.3 443.148 477 420.106 477H186.894C163.852 477 145 458.3 145 435.445V200H462Z" fill="#FE5D26"/>
</g>
<defs>
<clipPath id="clip0_9_49">
<rect width="512.001" height="512.001" fill="white" transform="matrix(-1 0 0 1 512.001 0)"/>
</clipPath>
</defs>
</svg>
